SplineFontDB: 3.0
FontName: PirataOne-Regular
FullName: Pirata One
FamilyName: Pirata One
Weight: Book
Copyright: Copyright (c) 2012, Rodrigo Fuenzalida, Nicolas Massi (www.taip.com.ar / abc.taip.com.ar), with Reserved Font Name 'Pirata'
Version: 1.001
ItalicAngle: 0
UnderlinePosition: -50
UnderlineWidth: 50
Ascent: 800
Descent: 200
sfntRevision: 0x00010042
LayerCount: 2
Layer: 0 1 "Back"  1
Layer: 1 1 "Fore"  0
XUID: [1021 880 1949165018 566456]
FSType: 0
OS2Version: 3
OS2_WeightWidthSlopeOnly: 0
OS2_UseTypoMetrics: 1
CreationTime: 1323367020
ModificationTime: 1351749400
PfmFamily: 81
TTFWeight: 400
TTFWidth: 5
LineGap: 0
VLineGap: 0
Panose: 0 0 0 0 0 0 0 0 0 0
OS2TypoAscent: 1006
OS2TypoAOffset: 0
OS2TypoDescent: -279
OS2TypoDOffset: 0
OS2TypoLinegap: 0
OS2WinAscent: 1006
OS2WinAOffset: 0
OS2WinDescent: 279
OS2WinDOffset: 0
HheadAscent: 1006
HheadAOffset: 0
HheadDescent: -279
HheadDOffset: 0
OS2SubXSize: 650
OS2SubYSize: 600
OS2SubXOff: 0
OS2SubYOff: 75
OS2SupXSize: 650
OS2SupYSize: 600
OS2SupXOff: 0
OS2SupYOff: 350
OS2StrikeYSize: 50
OS2StrikeYPos: 342
OS2Vendor: 'pyrs'
OS2CodePages: 20000093.00000000
OS2UnicodeRanges: a000003f.4000005a.00000000.00000000
Lookup: 258 0 0 "'kern' Horizontal Kerning in Latin lookup 0"  {"'kern' Horizontal Kerning in Latin lookup 0 subtable"  } ['kern' ('latn' <'dflt' > ) ]
DEI: 91125
TtTable: prep
PUSHW_1
 511
SCANCTRL
PUSHB_1
 4
SCANTYPE
EndTTInstrs
ShortTable: maxp 16
  1
  0
  386
  98
  7
  0
  0
  2
  0
  1
  1
  0
  64
  0
  0
  0
EndShort
LangName: 1033 "" "" "" "RodrigoFuenzalida,NicolasMassi: Pirata One: 2012" "" "Version 1.001" "" "Pirata is a trademark of Rodrigo Fuenzalida, Nicolas Massi ." "Rodrigo Fuenzalida, Nicolas Massi" "Rodrigo Fuenzalida, Nicolas Massi" "" "abc.taip.com.ar" "www.taip.com.ar" "This Font Software is licensed under the SIL Open Font License, Version 1.1. This license is available with a FAQ at: http://scripts.sil.org/OFL" "http://scripts.sil.org/OFL" 
GaspTable: 1 65535 15 1
Encoding: UnicodeBmp

StartChar: exclam
Encoding: 33 33 6
Width: 220
GlyphClass: 2
Flags: W
LayerCount: 2
Fore
SplineSet
50 198 m 2,0,-1
 50 620 l 2,1,2
 50 681 50 681 9 689 c 1,3,-1
 9 711 l 1,4,-1
 110 768 l 1,5,6
 132 759 132 759 151 738.5 c 128,-1,7
 170 718 170 718 170 700 c 2,8,-1
 170 278 l 2,9,10
 170 217 170 217 211 209 c 1,11,-1
 211 187 l 1,12,-1
 110 130 l 1,13,14
 88 139 88 139 69 159.5 c 128,-1,15
 50 180 50 180 50 198 c 2,0,-1
185 15 m 2,16,-1
 185 -46 l 2,17,18
 185 -49 185 -49 143.5 -64.5 c 128,-1,19
 102 -80 102 -80 95.5 -80 c 128,-1,20
 89 -80 89 -80 76.5 -63 c 128,-1,21
 64 -46 64 -46 64 -28 c 2,22,-1
 64 45 l 2,23,24
 64 48 64 48 104 63.5 c 128,-1,25
 144 79 144 79 153 79 c 128,-1,26
 162 79 162 79 173.5 61.5 c 128,-1,27
 185 44 185 44 185 15 c 2,16,-1
EndSplineSet
EndChar

StartChar: quotedbl
Encoding: 34 34 7
Width: 307
GlyphClass: 2
Flags: W
LayerCount: 2
Fore
SplineSet
57 754.5 m 128,-1,1
 89 770 89 770 95 770 c 128,-1,2
 101 770 101 770 113.5 753 c 128,-1,3
 126 736 126 736 126 718 c 1,4,-1
 116 604 l 2,5,6
 116 600 116 600 96 585 c 128,-1,7
 76 570 76 570 67 570 c 128,-1,8
 58 570 58 570 48 587 c 128,-1,9
 38 604 38 604 35 634 c 2,10,-1
 25 736 l 2,11,0
 25 739 25 739 57 754.5 c 128,-1,1
213 754.5 m 128,-1,13
 245 770 245 770 251 770 c 128,-1,14
 257 770 257 770 269.5 753 c 128,-1,15
 282 736 282 736 282 718 c 1,16,-1
 272 604 l 2,17,18
 272 600 272 600 252 585 c 128,-1,19
 232 570 232 570 223 570 c 128,-1,20
 214 570 214 570 204 587 c 128,-1,21
 194 604 194 604 191 634 c 2,22,-1
 181 736 l 2,23,12
 181 739 181 739 213 754.5 c 128,-1,13
EndSplineSet
EndChar

StartChar: numbersign
Encoding: 35 35 8
Width: 571
GlyphClass: 2
Flags: W
LayerCount: 2
Fore
SplineSet
19 425 m 1,0,-1
 19 447 l 1,1,-1
 79 504 l 1,2,-1
 177 504 l 1,3,-1
 232 665 l 1,4,-1
 305 704 l 1,5,-1
 330 704 l 1,6,-1
 261 504 l 1,7,-1
 424 504 l 1,8,-1
 479 665 l 1,9,-1
 552 704 l 1,10,-1
 577 704 l 1,11,-1
 509 504 l 1,12,-1
 642 504 l 1,13,-1
 642 480 l 1,14,-1
 582 425 l 1,15,-1
 482 425 l 1,16,-1
 430 270 l 1,17,-1
 555 270 l 1,18,-1
 555 246 l 1,19,-1
 495 191 l 1,20,-1
 403 191 l 1,21,-1
 351 38 l 1,22,-1
 276 0 l 1,23,-1
 254 0 l 1,24,-1
 318 191 l 1,25,-1
 154 191 l 1,26,-1
 102 38 l 1,27,-1
 27 0 l 1,28,-1
 5 0 l 1,29,-1
 70 191 l 1,30,-1
 -68 191 l 1,31,-1
 -68 213 l 1,32,-1
 -8 270 l 1,33,-1
 97 270 l 1,34,-1
 150 425 l 1,35,-1
 19 425 l 1,0,-1
234 425 m 1,36,-1
 181 270 l 1,37,-1
 345 270 l 1,38,-1
 397 425 l 1,39,-1
 234 425 l 1,36,-1
EndSplineSet
EndChar

StartChar: dollar
Encoding: 36 36 9
Width: 425
GlyphClass: 2
Flags: W
LayerCount: 2
Fore
SplineSet
111 319 m 0,0,1
 86 319 86 319 68 357 c 128,-1,2
 50 395 50 395 50 450 c 2,3,-1
 50 658 l 2,4,5
 50 675 50 675 139 716 c 1,6,-1
 139 813 l 1,7,-1
 195 843 l 1,8,-1
 219 843 l 1,9,-1
 219 750 l 1,10,11
 269 770 269 770 274.5 770 c 128,-1,12
 280 770 280 770 285.5 765 c 128,-1,13
 291 760 291 760 297.5 750 c 128,-1,14
 304 740 304 740 309.5 730 c 128,-1,15
 315 720 315 720 324.5 703 c 128,-1,16
 334 686 334 686 340 675 c 0,17,18
 353 651 353 651 373 651 c 1,19,-1
 373 631 l 1,20,21
 357 624 357 624 330 610 c 0,22,23
 267 575 267 575 262 575 c 0,24,25
 247 575 247 575 224.5 634 c 128,-1,26
 202 693 202 693 188 693 c 0,27,28
 170 693 170 693 170 663 c 2,29,-1
 170 440 l 2,30,31
 170 400 170 400 188 400 c 0,32,33
 192 400 192 400 250 426 c 128,-1,34
 308 452 308 452 320 452 c 0,35,36
 344 452 344 452 362.5 413.5 c 128,-1,37
 381 375 381 375 381 315 c 2,38,-1
 381 102 l 2,39,40
 381 85 381 85 285 44 c 1,41,-1
 285 -56 l 1,42,-1
 229 -86 l 1,43,-1
 205 -86 l 1,44,-1
 205 12 l 1,45,46
 142 -10 142 -10 135 -10 c 128,-1,47
 128 -10 128 -10 119 7 c 128,-1,48
 110 24 110 24 95.5 55.5 c 128,-1,49
 81 87 81 87 69.5 108 c 128,-1,50
 58 129 58 129 38 129 c 1,51,-1
 38 149 l 1,52,53
 54 156 54 156 80 170 c 0,54,55
 144 205 144 205 149 205 c 0,56,57
 164 205 164 205 191.5 136 c 128,-1,58
 219 67 219 67 233 67 c 0,59,60
 243 67 243 67 252 75 c 128,-1,61
 261 83 261 83 261 97 c 2,62,-1
 261 322 l 2,63,64
 261 367 261 367 236 367 c 0,65,66
 228 367 228 367 173 343 c 128,-1,67
 118 319 118 319 111 319 c 0,0,1
EndSplineSet
EndChar

StartChar: percent
Encoding: 37 37 10
Width: 701
GlyphClass: 2
Flags: W
LayerCount: 2
Fore
SplineSet
235 3 m 1,0,-1
 157 -28 l 1,1,-1
 135 -25 l 1,2,-1
 460 678 l 1,3,-1
 536 710 l 1,4,-1
 561 707 l 1,5,-1
 235 3 l 1,0,-1
50 471 m 2,6,-1
 50 640 l 2,7,8
 50 645 50 645 123.5 673 c 128,-1,9
 197 701 197 701 209 701 c 128,-1,10
 221 701 221 701 243.5 674 c 128,-1,11
 266 647 266 647 266 626 c 2,12,-1
 266 436 l 2,13,14
 266 431 266 431 194.5 403.5 c 128,-1,15
 123 376 123 376 106.5 376 c 128,-1,16
 90 376 90 376 70 404 c 128,-1,17
 50 432 50 432 50 471 c 2,6,-1
161 436 m 0,18,19
 174 436 174 436 186 448 c 1,20,-1
 186 592 l 2,21,22
 186 640 186 640 154 640 c 0,23,24
 140 640 140 640 129 629 c 1,25,-1
 129 484 l 2,26,27
 129 436 129 436 161 436 c 0,18,19
435 96 m 2,28,-1
 435 265 l 2,29,30
 435 270 435 270 508.5 298 c 128,-1,31
 582 326 582 326 594 326 c 128,-1,32
 606 326 606 326 628.5 299 c 128,-1,33
 651 272 651 272 651 251 c 2,34,-1
 651 61 l 2,35,36
 651 56 651 56 579.5 28.5 c 128,-1,37
 508 1 508 1 491.5 1 c 128,-1,38
 475 1 475 1 455 29 c 128,-1,39
 435 57 435 57 435 96 c 2,28,-1
546 61 m 0,40,41
 559 61 559 61 571 73 c 1,42,-1
 571 217 l 2,43,44
 571 265 571 265 539 265 c 0,45,46
 523 265 523 265 514 254 c 1,47,-1
 514 109 l 2,48,49
 514 61 514 61 546 61 c 0,40,41
EndSplineSet
EndChar

StartChar: ampersand
Encoding: 38 38 11
Width: 430
GlyphClass: 2
Flags: W
LayerCount: 2
Fore
SplineSet
188 673 m 0,0,1
 178 673 178 673 170 663 c 1,2,-1
 170 399 l 1,3,-1
 234 399 l 1,4,5
 266 402 266 402 299.5 427.5 c 128,-1,6
 333 453 333 453 345 496 c 1,7,-1
 380 496 l 1,8,-1
 380 399 l 1,9,-1
 431 399 l 1,10,-1
 421 350 l 1,11,-1
 380 350 l 1,12,-1
 380 148 l 2,13,14
 380 87 380 87 421 79 c 1,15,-1
 421 57 l 1,16,-1
 320 0 l 1,17,18
 285 16 285 16 268 41 c 1,19,20
 166 0 166 0 140 0 c 128,-1,21
 114 0 114 0 82 44 c 128,-1,22
 50 88 50 88 50 146 c 2,23,-1
 50 678 l 2,24,25
 50 685 50 685 154.5 727.5 c 128,-1,26
 259 770 259 770 276 770 c 0,27,28
 286 770 286 770 313 709 c 128,-1,29
 340 648 340 648 351 629.5 c 128,-1,30
 362 611 362 611 394 611 c 1,31,-1
 394 591 l 1,32,33
 372 581 372 581 319.5 555.5 c 128,-1,34
 267 530 267 530 263 530 c 0,35,36
 248 530 248 530 225 601.5 c 128,-1,37
 202 673 202 673 188 673 c 0,0,1
221 92 m 128,-1,39
 234 92 234 92 260 105 c 1,40,-1
 260 350 l 1,41,-1
 170 350 l 1,42,-1
 170 190 l 2,43,44
 170 142 170 142 175 130 c 128,-1,45
 180 118 180 118 185.5 108.5 c 128,-1,46
 191 99 191 99 199.5 95.5 c 128,-1,38
 208 92 208 92 221 92 c 128,-1,39
EndSplineSet
EndChar

StartChar: quotesingle
Encoding: 39 39 12
Width: 151
GlyphClass: 2
Flags: W
LayerCount: 2
Fore
SplineSet
57 754.5 m 128,-1,1
 89 770 89 770 95 770 c 128,-1,2
 101 770 101 770 113.5 753 c 128,-1,3
 126 736 126 736 126 718 c 1,4,-1
 116 604 l 2,5,6
 116 600 116 600 96 585 c 128,-1,7
 76 570 76 570 67 570 c 128,-1,8
 58 570 58 570 48 587 c 128,-1,9
 38 604 38 604 35 634 c 2,10,-1
 25 736 l 2,11,0
 25 739 25 739 57 754.5 c 128,-1,1
EndSplineSet
EndChar

StartChar: parenleft
Encoding: 40 40 13
Width: 318
GlyphClass: 2
Flags: W
LayerCount: 2
Fore
SplineSet
298 19 m 1,0,-1
 298 -10 l 1,1,2
 209 -55 209 -55 188 -55 c 0,3,4
 154 -55 154 -55 108 -12.5 c 128,-1,5
 62 30 62 30 49 115 c 0,6,7
 30 232 30 232 30 356.5 c 128,-1,8
 30 481 30 481 49 599 c 0,9,10
 63 686 63 686 108.5 727.5 c 128,-1,11
 154 769 154 769 188 769 c 0,12,13
 201 769 201 769 228.5 758.5 c 128,-1,14
 256 748 256 748 276 737 c 2,15,-1
 297 726 l 1,16,-1
 297 695 l 1,17,18
 240 695 240 695 202.5 666.5 c 128,-1,19
 165 638 165 638 148.5 549.5 c 128,-1,20
 132 461 132 461 132 356.5 c 128,-1,21
 132 252 132 252 148 167 c 128,-1,22
 164 82 164 82 196 50.5 c 128,-1,23
 228 19 228 19 298 19 c 1,0,-1
EndSplineSet
EndChar

StartChar: parenright
Encoding: 41 41 14
Width: 318
GlyphClass: 2
Flags: W
LayerCount: 2
Fore
SplineSet
132 50.5 m 128,-1,1
 164 82 164 82 180 167 c 128,-1,2
 196 252 196 252 196 356.5 c 128,-1,3
 196 461 196 461 179.5 549.5 c 128,-1,4
 163 638 163 638 125.5 666.5 c 128,-1,5
 88 695 88 695 31 695 c 1,6,-1
 31 726 l 1,7,8
 110 769 110 769 142 769 c 128,-1,9
 174 769 174 769 219.5 727.5 c 128,-1,10
 265 686 265 686 279 599 c 0,11,12
 298 481 298 481 298 356.5 c 128,-1,13
 298 232 298 232 279 115 c 0,14,15
 266 30 266 30 220 -12.5 c 128,-1,16
 174 -55 174 -55 140 -55 c 0,17,18
 120 -55 120 -55 53 -22 c 1,19,-1
 30 -10 l 1,20,-1
 30 19 l 1,21,0
 100 19 100 19 132 50.5 c 128,-1,1
EndSplineSet
EndChar

StartChar: asterisk
Encoding: 42 42 15
Width: 345
GlyphClass: 2
Flags: W
LayerCount: 2
Fore
SplineSet
201 760 m 1,0,-1
 201 669 l 1,1,-1
 235 682 l 1,2,-1
 294 684 l 1,3,-1
 305 674 l 1,4,-1
 234 617 l 1,5,-1
 305 560 l 1,6,-1
 293 548 l 1,7,-1
 236 551 l 1,8,-1
 201 565 l 1,9,-1
 201 524 l 1,10,-1
 161 481 l 1,11,-1
 144 481 l 1,12,-1
 144 564 l 1,13,-1
 110 550 l 1,14,-1
 52 547 l 1,15,-1
 40 559 l 1,16,-1
 112 617 l 1,17,-1
 41 674 l 1,18,-1
 51 685 l 1,19,-1
 111 683 l 1,20,-1
 144 669 l 1,21,-1
 144 717 l 1,22,-1
 185 760 l 1,23,-1
 201 760 l 1,0,-1
EndSplineSet
EndChar

StartChar: plus
Encoding: 43 43 16
Width: 421
GlyphClass: 2
Flags: W
LayerCount: 2
Fore
SplineSet
250 480 m 1,0,-1
 250 340 l 1,1,-1
 391 340 l 1,2,-1
 391 316 l 1,3,-1
 331 261 l 1,4,-1
 250 261 l 1,5,-1
 250 179 l 1,6,-1
 195 119 l 1,7,-1
 171 119 l 1,8,-1
 171 261 l 1,9,-1
 30 261 l 1,10,-1
 30 283 l 1,11,-1
 90 340 l 1,12,-1
 171 340 l 1,13,-1
 171 420 l 1,14,-1
 228 480 l 1,15,-1
 250 480 l 1,0,-1
EndSplineSet
EndChar

StartChar: comma
Encoding: 44 44 17
Width: 222
GlyphClass: 2
Flags: W
LayerCount: 2
Fore
SplineSet
51 64 m 2,0,-1
 51 105 l 2,1,2
 51 108 51 108 92.5 123.5 c 128,-1,3
 134 139 134 139 140.5 139 c 128,-1,4
 147 139 147 139 159.5 122 c 128,-1,5
 172 105 172 105 172 87 c 2,6,-1
 172 34 l 2,7,8
 172 4 172 4 148 -56.5 c 128,-1,9
 124 -117 124 -117 84 -140 c 1,10,-1
 39 -98 l 1,11,12
 57 -91 57 -91 65 -60.5 c 128,-1,13
 73 -30 73 -30 73 -4 c 0,14,15
 73 0 73 0 62 19 c 128,-1,16
 51 38 51 38 51 64 c 2,0,-1
EndSplineSet
EndChar

StartChar: hyphen
Encoding: 45 45 18
Width: 381
GlyphClass: 2
Flags: W
LayerCount: 2
Fore
SplineSet
351 340 m 1,0,-1
 351 316 l 1,1,-1
 291 261 l 1,2,-1
 30 261 l 1,3,-1
 30 283 l 1,4,-1
 90 340 l 1,5,-1
 351 340 l 1,0,-1
EndSplineSet
EndChar

StartChar: period
Encoding: 46 46 19
Width: 221
GlyphClass: 2
Flags: W
LayerCount: 2
Fore
SplineSet
50 64 m 2,0,-1
 50 125 l 2,1,2
 50 128 50 128 91.5 143.5 c 128,-1,3
 133 159 133 159 139.5 159 c 128,-1,4
 146 159 146 159 158.5 142 c 128,-1,5
 171 125 171 125 171 107 c 2,6,-1
 171 34 l 2,7,8
 171 31 171 31 131 15.5 c 128,-1,9
 91 0 91 0 82 0 c 128,-1,10
 73 0 73 0 61.5 17.5 c 128,-1,11
 50 35 50 35 50 64 c 2,0,-1
EndSplineSet
EndChar

StartChar: slash
Encoding: 47 47 20
Width: 180
GlyphClass: 2
Flags: W
LayerCount: 2
Fore
SplineSet
31 0 m 1,0,-1
 -44 -38 l 1,1,-1
 -66 -38 l 1,2,-1
 183 690 l 1,3,-1
 256 729 l 1,4,-1
 281 729 l 1,5,-1
 31 0 l 1,0,-1
EndSplineSet
EndChar

StartChar: zero
Encoding: 48 48 21
Width: 431
GlyphClass: 2
Flags: W
LayerCount: 2
Fore
SplineSet
50 146 m 2,0,-1
 50 678 l 2,1,2
 50 685 50 685 164 727.5 c 128,-1,3
 278 770 278 770 295 770 c 128,-1,4
 312 770 312 770 346.5 729 c 128,-1,5
 381 688 381 688 381 655 c 2,6,-1
 381 93 l 2,7,8
 381 85 381 85 271.5 42.5 c 128,-1,9
 162 0 162 0 137.5 0 c 128,-1,10
 113 0 113 0 81.5 43 c 128,-1,11
 50 86 50 86 50 146 c 2,0,-1
221 92 m 0,12,13
 240 92 240 92 260 108 c 1,14,-1
 260 603 l 2,15,16
 260 677 260 677 209 677 c 0,17,18
 189 677 189 677 170 662 c 1,19,-1
 170 166 l 2,20,21
 170 92 170 92 221 92 c 0,12,13
193 329 m 2,22,-1
 193 410 l 2,23,24
 193 411 193 411 208 417 c 128,-1,25
 223 423 223 423 225.5 423 c 128,-1,26
 228 423 228 423 232.5 417 c 128,-1,27
 237 411 237 411 237 404 c 2,28,-1
 237 318 l 2,29,30
 237 317 237 317 222.5 311.5 c 128,-1,31
 208 306 208 306 204.5 306 c 128,-1,32
 201 306 201 306 197 312 c 128,-1,33
 193 318 193 318 193 329 c 2,22,-1
EndSplineSet
EndChar

StartChar: one
Encoding: 49 49 22
Width: 240
GlyphClass: 2
Flags: W
LayerCount: 2
Fore
SplineSet
180 702 m 2,0,-1
 180 167 l 2,1,2
 180 140 180 140 189 128.5 c 128,-1,3
 198 117 198 117 220 117 c 1,4,-1
 220 89 l 1,5,6
 17 0 17 0 16 0 c 2,7,-1
 0 32 l 1,8,9
 8 32 8 32 19.5 39 c 128,-1,10
 31 46 31 46 39 55 c 0,11,12
 60 79 60 79 60 128 c 2,13,-1
 60 622 l 2,14,15
 60 643 60 643 46 656.5 c 128,-1,16
 32 670 32 670 20 673.5 c 128,-1,17
 8 677 8 677 -11 681 c 1,18,-1
 -11 703 l 1,19,-1
 120 770 l 1,20,21
 142 761 142 761 161 740.5 c 128,-1,22
 180 720 180 720 180 702 c 2,0,-1
EndSplineSet
EndChar

StartChar: two
Encoding: 50 50 23
Width: 387
GlyphClass: 2
Flags: W
LayerCount: 2
Fore
SplineSet
218.5 667.5 m 128,-1,1
 210 685 210 685 190.5 685 c 128,-1,2
 171 685 171 685 155 665 c 1,3,-1
 155 573 l 2,4,5
 155 560 155 560 154 553.5 c 128,-1,6
 153 547 153 547 146.5 539 c 128,-1,7
 140 531 140 531 126 526 c 2,8,-1
 22 486 l 1,9,-1
 8 500 l 1,10,11
 35 530 35 530 35 564 c 2,12,-1
 35 678 l 2,13,14
 35 684 35 684 140.5 727 c 128,-1,15
 246 770 246 770 264.5 770 c 128,-1,16
 283 770 283 770 315 725.5 c 128,-1,17
 347 681 347 681 347 657 c 2,18,-1
 347 520 l 2,19,20
 347 467 347 467 288.5 361 c 128,-1,21
 230 255 230 255 172 176 c 2,22,-1
 114 96 l 1,23,24
 225 98 225 98 243 98 c 0,25,26
 298 98 298 98 310 131 c 1,27,28
 321 130 321 130 326 130 c 2,29,-1
 332 130 l 1,30,-1
 388 49 l 1,31,32
 385 44 385 44 379.5 35.5 c 128,-1,33
 374 27 374 27 354.5 13.5 c 128,-1,34
 335 0 335 0 312 0 c 2,35,-1
 31 0 l 1,36,37
 10 54 10 54 10 93 c 0,38,39
 10 106 10 106 64 187.5 c 128,-1,40
 118 269 118 269 172.5 358.5 c 128,-1,41
 227 448 227 448 227 480 c 2,42,-1
 227 606 l 2,43,0
 227 650 227 650 218.5 667.5 c 128,-1,1
EndSplineSet
EndChar

StartChar: three
Encoding: 51 51 24
Width: 410
GlyphClass: 2
Flags: W
LayerCount: 2
Fore
SplineSet
241 144 m 1,0,-1
 240 214 l 1,1,-1
 240 256 l 2,2,3
 240 330 240 330 229 345 c 0,4,5
 217 362 217 362 197 362 c 0,6,7
 163 362 163 362 128 347 c 2,8,-1
 117 342 l 1,9,-1
 107 378 l 1,10,11
 188 421 188 421 240 444 c 1,12,-1
 240 612 l 2,13,14
 240 694 240 694 197 694 c 0,15,16
 180 694 180 694 167.5 680 c 128,-1,17
 155 666 155 666 155 646 c 2,18,-1
 155 591 l 2,19,20
 155 578 155 578 146.5 569.5 c 128,-1,21
 138 561 138 561 108 550 c 2,22,-1
 17 515 l 1,23,-1
 3 529 l 1,24,25
 29 556 29 556 29 595 c 2,26,-1
 29 671 l 2,27,28
 29 678 29 678 143.5 723.5 c 128,-1,29
 258 769 258 769 275 769 c 128,-1,30
 292 769 292 769 326.5 728 c 128,-1,31
 361 687 361 687 361 654 c 2,32,-1
 361 460 l 2,33,34
 361 445 361 445 308 418 c 1,35,36
 360 358 360 358 360 292 c 2,37,-1
 360 92 l 2,38,39
 360 70 360 70 240 30.5 c 128,-1,40
 120 -9 120 -9 86 -9 c 0,41,42
 74 -9 74 -9 67.5 12 c 128,-1,43
 61 33 61 33 55.5 62.5 c 128,-1,44
 50 92 50 92 45 100 c 0,45,46
 36 115 36 115 3 119 c 1,47,-1
 3 138 l 1,48,49
 122 197 122 197 147 197 c 0,50,51
 152 197 152 197 153 186.5 c 128,-1,52
 154 176 154 176 154 143 c 128,-1,53
 154 110 154 110 167 85.5 c 128,-1,54
 180 61 180 61 201 61 c 0,55,56
 241 61 241 61 241 123 c 2,57,-1
 241 144 l 1,0,-1
EndSplineSet
EndChar

StartChar: four
Encoding: 52 52 25
Width: 401
GlyphClass: 2
Flags: W
LayerCount: 2
Fore
SplineSet
230 128 m 2,0,-1
 230 278 l 1,1,-1
 24 278 l 2,2,3
 20 278 20 278 10.5 296 c 128,-1,4
 1 314 1 314 1 324.5 c 128,-1,5
 1 335 1 335 53 444.5 c 128,-1,6
 105 554 105 554 165.5 662 c 128,-1,7
 226 770 226 770 244 770 c 1,8,9
 311 753 311 753 340 724 c 0,10,11
 351 713 351 713 351 702 c 2,12,-1
 351 337 l 1,13,-1
 391 337 l 1,14,-1
 391 303 l 1,15,-1
 351 278 l 1,16,-1
 351 167 l 2,17,18
 351 140 351 140 360 128.5 c 128,-1,19
 369 117 369 117 391 117 c 1,20,-1
 391 89 l 1,21,22
 188 0 188 0 187 0 c 2,23,-1
 171 32 l 1,24,25
 178 32 178 32 190 39 c 128,-1,26
 202 46 202 46 210 55 c 0,27,28
 230 80 230 80 230 128 c 2,0,-1
231 337 m 1,29,-1
 231 605 l 1,30,-1
 96 335 l 1,31,32
 230 336 230 336 231 337 c 1,29,-1
EndSplineSet
EndChar

StartChar: five
Encoding: 53 53 26
Width: 431
GlyphClass: 2
Flags: W
LayerCount: 2
Fore
SplineSet
170 662 m 1,0,-1
 170 478 l 2,1,2
 170 438 170 438 188 438 c 0,3,4
 192 438 192 438 250 464 c 128,-1,5
 308 490 308 490 320 490 c 0,6,7
 344 490 344 490 362.5 447 c 128,-1,8
 381 404 381 404 381 343 c 2,9,-1
 381 102 l 2,10,11
 381 83 381 83 266.5 36.5 c 128,-1,12
 152 -10 152 -10 135 -10 c 0,13,14
 128 -10 128 -10 119 7 c 128,-1,15
 110 24 110 24 95.5 55.5 c 128,-1,16
 81 87 81 87 69.5 108 c 128,-1,17
 58 129 58 129 38 129 c 1,18,-1
 38 149 l 1,19,20
 54 156 54 156 80 170 c 0,21,22
 144 205 144 205 149 205 c 0,23,24
 164 205 164 205 191.5 146 c 128,-1,25
 219 87 219 87 233 87 c 0,26,27
 243 87 243 87 252 95 c 128,-1,28
 261 103 261 103 261 117 c 2,29,-1
 261 330 l 2,30,31
 261 375 261 375 236 375 c 0,32,33
 228 375 228 375 173 351 c 128,-1,34
 118 327 118 327 111 327 c 0,35,36
 86 327 86 327 68 365 c 128,-1,37
 50 403 50 403 50 458 c 2,38,-1
 50 741 l 2,39,40
 50 760 50 760 77 760 c 2,41,-1
 229 760 l 2,42,43
 292 760 292 760 302 792 c 1,44,-1
 325 793 l 1,45,-1
 380 711 l 1,46,47
 373 692 373 692 352 677 c 128,-1,48
 331 662 331 662 309 662 c 2,49,-1
 170 662 l 1,0,-1
EndSplineSet
EndChar

StartChar: six
Encoding: 54 54 27
Width: 431
GlyphClass: 2
Flags: W
LayerCount: 2
Fore
SplineSet
50 146 m 2,0,-1
 50 459 l 2,1,2
 50 521 50 521 85 597.5 c 128,-1,3
 120 674 120 674 156 722 c 128,-1,4
 192 770 192 770 204 770 c 0,5,6
 229 770 229 770 268.5 757.5 c 128,-1,7
 308 745 308 745 335 732 c 2,8,-1
 362 720 l 1,9,-1
 362 690 l 1,10,-1
 333 690 l 2,11,12
 282 690 282 690 231.5 625.5 c 128,-1,13
 181 561 181 561 171 481 c 1,14,15
 281 530 281 530 296.5 530 c 128,-1,16
 312 530 312 530 346.5 484 c 128,-1,17
 381 438 381 438 381 405 c 2,18,-1
 381 93 l 2,19,20
 381 85 381 85 271.5 42.5 c 128,-1,21
 162 0 162 0 137.5 0 c 128,-1,22
 113 0 113 0 81.5 43 c 128,-1,23
 50 86 50 86 50 146 c 2,0,-1
221 92 m 0,24,25
 240 92 240 92 260 108 c 1,26,-1
 260 360 l 2,27,28
 260 392 260 392 241.5 413 c 128,-1,29
 223 434 223 434 170 434 c 1,30,-1
 170 166 l 2,31,32
 170 92 170 92 221 92 c 0,24,25
EndSplineSet
EndChar

StartChar: seven
Encoding: 55 55 28
Width: 370
GlyphClass: 2
Flags: W
LayerCount: 2
Fore
SplineSet
158 662 m 2,0,1
 97 662 97 662 89 629 c 1,2,-1
 67 629 l 1,3,-1
 10 711 l 1,4,5
 22 730 22 730 41 745 c 128,-1,6
 60 760 60 760 78 760 c 2,7,-1
 212 760 l 2,8,9
 273 760 273 760 281 793 c 1,10,-1
 303 793 l 1,11,12
 317 774 317 774 338.5 723.5 c 128,-1,13
 360 673 360 673 360 663 c 1,14,-1
 143 0 l 1,15,-1
 95 0 l 1,16,17
 45 51 45 51 45 85 c 1,18,-1
 265 662 l 1,19,-1
 158 662 l 2,0,1
EndSplineSet
EndChar

StartChar: eight
Encoding: 56 56 29
Width: 431
GlyphClass: 2
Flags: W
LayerCount: 2
Fore
SplineSet
50 465 m 2,0,-1
 50 677 l 2,1,2
 50 684 50 684 164 726.5 c 128,-1,3
 278 769 278 769 295 769 c 128,-1,4
 312 769 312 769 346.5 728 c 128,-1,5
 381 687 381 687 381 654 c 2,6,-1
 381 467 l 2,7,8
 381 448 381 448 321 430 c 1,9,10
 344 420 344 420 362.5 394.5 c 128,-1,11
 381 369 381 369 381 350 c 2,12,-1
 381 93 l 2,13,14
 381 85 381 85 271.5 42.5 c 128,-1,15
 162 0 162 0 137.5 0 c 128,-1,16
 113 0 113 0 81.5 43 c 128,-1,17
 50 86 50 86 50 146 c 2,18,-1
 50 311 l 2,19,20
 50 329 50 329 108 352 c 1,21,22
 50 375 50 375 50 465 c 2,0,-1
221 92 m 0,23,24
 240 92 240 92 260 108 c 1,25,-1
 260 288 l 2,26,27
 260 362 260 362 209 362 c 0,28,29
 191 362 191 362 170 347 c 1,30,-1
 170 166 l 2,31,32
 170 92 170 92 221 92 c 0,23,24
221 441 m 0,33,34
 240 441 240 441 260 457 c 1,35,-1
 260 602 l 2,36,37
 260 676 260 676 209 676 c 0,38,39
 191 676 191 676 170 661 c 1,40,-1
 170 515 l 2,41,42
 170 441 170 441 221 441 c 0,33,34
EndSplineSet
EndChar

StartChar: nine
Encoding: 57 57 30
Width: 431
GlyphClass: 2
Flags: W
LayerCount: 2
Fore
SplineSet
381 624 m 2,0,-1
 381 341 l 2,1,2
 381 265 381 265 346 180.5 c 128,-1,3
 311 96 311 96 275 48 c 128,-1,4
 239 0 239 0 227 0 c 0,5,6
 202 0 202 0 162.5 12.5 c 128,-1,7
 123 25 123 25 96 38 c 2,8,-1
 69 50 l 1,9,-1
 69 80 l 1,10,-1
 98 80 l 2,11,12
 149 80 149 80 204.5 160 c 128,-1,13
 260 240 260 240 260 319 c 1,14,15
 150 270 150 270 134.5 270 c 128,-1,16
 119 270 119 270 84.5 316 c 128,-1,17
 50 362 50 362 50 395 c 2,18,-1
 50 677 l 2,19,20
 50 685 50 685 159.5 727.5 c 128,-1,21
 269 770 269 770 293.5 770 c 128,-1,22
 318 770 318 770 349.5 727 c 128,-1,23
 381 684 381 684 381 624 c 2,0,-1
210 678 m 0,24,25
 191 678 191 678 171 662 c 1,26,-1
 171 440 l 2,27,28
 171 408 171 408 189.5 387 c 128,-1,29
 208 366 208 366 261 366 c 1,30,-1
 261 604 l 2,31,32
 261 678 261 678 210 678 c 0,24,25
EndSplineSet
EndChar

StartChar: colon
Encoding: 58 58 31
Width: 221
GlyphClass: 2
Flags: W
LayerCount: 2
Fore
SplineSet
50 64 m 2,0,-1
 50 125 l 2,1,2
 50 128 50 128 91.5 143.5 c 128,-1,3
 133 159 133 159 139.5 159 c 128,-1,4
 146 159 146 159 158.5 142 c 128,-1,5
 171 125 171 125 171 107 c 2,6,-1
 171 34 l 2,7,8
 171 31 171 31 131 15.5 c 128,-1,9
 91 0 91 0 82 0 c 128,-1,10
 73 0 73 0 61.5 17.5 c 128,-1,11
 50 35 50 35 50 64 c 2,0,-1
50 342 m 2,12,-1
 50 403 l 2,13,14
 50 406 50 406 91.5 421.5 c 128,-1,15
 133 437 133 437 139.5 437 c 128,-1,16
 146 437 146 437 158.5 420 c 128,-1,17
 171 403 171 403 171 385 c 2,18,-1
 171 312 l 2,19,20
 171 309 171 309 131 293.5 c 128,-1,21
 91 278 91 278 82 278 c 128,-1,22
 73 278 73 278 61.5 295.5 c 128,-1,23
 50 313 50 313 50 342 c 2,12,-1
EndSplineSet
EndChar

StartChar: semicolon
Encoding: 59 59 32
Width: 220
GlyphClass: 2
Flags: W
LayerCount: 2
Fore
SplineSet
49 342 m 2,0,-1
 49 403 l 2,1,2
 49 406 49 406 90.5 421.5 c 128,-1,3
 132 437 132 437 138.5 437 c 128,-1,4
 145 437 145 437 157.5 420 c 128,-1,5
 170 403 170 403 170 385 c 2,6,-1
 170 312 l 2,7,8
 170 309 170 309 130 293.5 c 128,-1,9
 90 278 90 278 81 278 c 128,-1,10
 72 278 72 278 60.5 295.5 c 128,-1,11
 49 313 49 313 49 342 c 2,0,-1
51 64 m 2,12,-1
 51 105 l 2,13,14
 51 108 51 108 92.5 123.5 c 128,-1,15
 134 139 134 139 140.5 139 c 128,-1,16
 147 139 147 139 159.5 122 c 128,-1,17
 172 105 172 105 172 87 c 2,18,-1
 172 34 l 2,19,20
 172 4 172 4 148 -56.5 c 128,-1,21
 124 -117 124 -117 84 -140 c 1,22,-1
 39 -98 l 1,23,24
 57 -91 57 -91 65 -60.5 c 128,-1,25
 73 -30 73 -30 73 -4 c 0,26,27
 73 0 73 0 62 19 c 128,-1,28
 51 38 51 38 51 64 c 2,12,-1
EndSplineSet
EndChar

StartChar: less
Encoding: 60 60 33
Width: 361
GlyphClass: 2
Flags: W
LayerCount: 2
Fore
SplineSet
329 76 m 1,0,-1
 20 247 l 1,1,-1
 28 277 l 1,2,-1
 20 307 l 1,3,-1
 329 478 l 1,4,-1
 341 457 l 1,5,-1
 327 389 l 1,6,-1
 100 277 l 1,7,-1
 327 168 l 1,8,-1
 341 97 l 1,9,-1
 329 76 l 1,0,-1
EndSplineSet
EndChar

StartChar: equal
Encoding: 61 61 34
Width: 381
GlyphClass: 2
Flags: W
LayerCount: 2
Fore
SplineSet
351 418 m 1,0,-1
 351 394 l 1,1,-1
 291 339 l 1,2,-1
 30 339 l 1,3,-1
 30 361 l 1,4,-1
 90 418 l 1,5,-1
 351 418 l 1,0,-1
351 262 m 1,6,-1
 351 238 l 1,7,-1
 291 183 l 1,8,-1
 30 183 l 1,9,-1
 30 205 l 1,10,-1
 90 262 l 1,11,-1
 351 262 l 1,6,-1
EndSplineSet
EndChar

StartChar: greater
Encoding: 62 62 35
Width: 361
GlyphClass: 2
Flags: W
LayerCount: 2
Fore
SplineSet
341 247 m 1,0,-1
 32 76 l 1,1,-1
 20 97 l 1,2,-1
 34 168 l 1,3,-1
 261 277 l 1,4,-1
 34 389 l 1,5,-1
 20 457 l 1,6,-1
 32 478 l 1,7,-1
 341 307 l 1,8,-1
 333 277 l 1,9,-1
 341 247 l 1,0,-1
EndSplineSet
EndChar

StartChar: question
Encoding: 63 63 36
Width: 411
GlyphClass: 2
Flags: W
LayerCount: 2
Fore
SplineSet
232.5 667.5 m 128,-1,1
 224 685 224 685 204.5 685 c 128,-1,2
 185 685 185 685 169 665 c 1,3,-1
 169 583 l 2,4,5
 169 560 169 560 161 551 c 128,-1,6
 153 542 153 542 140 536 c 2,7,-1
 36 486 l 1,8,-1
 22 500 l 1,9,10
 49 530 49 530 49 564 c 2,11,-1
 49 678 l 2,12,13
 49 684 49 684 154.5 727 c 128,-1,14
 260 770 260 770 278.5 770 c 128,-1,15
 297 770 297 770 329 725.5 c 128,-1,16
 361 681 361 681 361 657 c 2,17,-1
 361 484 l 2,18,19
 361 458 361 458 312.5 414 c 128,-1,20
 264 370 264 370 216 339 c 2,21,-1
 168 308 l 1,22,-1
 168 280 l 2,23,24
 168 249 168 249 178.5 231.5 c 128,-1,25
 189 214 189 214 200 212 c 2,26,-1
 210 210 l 1,27,-1
 210 188 l 1,28,29
 113 131 113 131 106 131 c 128,-1,30
 99 131 99 131 74.5 153 c 128,-1,31
 50 175 50 175 50 196 c 2,32,-1
 50 331 l 2,33,34
 50 342 50 342 115.5 381.5 c 128,-1,35
 181 421 181 421 211 446.5 c 128,-1,36
 241 472 241 472 241 490 c 2,37,-1
 241 606 l 2,38,0
 241 650 241 650 232.5 667.5 c 128,-1,1
49 -16 m 2,39,-1
 49 45 l 2,40,41
 49 48 49 48 90.5 63.5 c 128,-1,42
 132 79 132 79 138.5 79 c 128,-1,43
 145 79 145 79 157.5 62 c 128,-1,44
 170 45 170 45 170 27 c 2,45,-1
 170 -46 l 2,46,47
 170 -49 170 -49 130 -64.5 c 128,-1,48
 90 -80 90 -80 81 -80 c 128,-1,49
 72 -80 72 -80 60.5 -62.5 c 128,-1,50
 49 -45 49 -45 49 -16 c 2,39,-1
EndSplineSet
EndChar

StartChar: at
Encoding: 64 64 37
Width: 540
GlyphClass: 2
Flags: W
LayerCount: 2
Fore
SplineSet
187 -3 m 1,0,1
 173 -32 173 -32 150 -68 c 1,2,3
 119 -68 119 -68 84.5 -20.5 c 128,-1,4
 50 27 50 27 50 94 c 2,5,-1
 50 515 l 2,6,7
 50 523 50 523 207 570 c 128,-1,8
 364 617 364 617 393 617 c 0,9,10
 413 617 413 617 451.5 571.5 c 128,-1,11
 490 526 490 526 490 489 c 2,12,-1
 490 116 l 1,13,-1
 339 86 l 1,14,15
 301 105 301 105 300 129 c 1,16,17
 235 86 235 86 218.5 86 c 128,-1,18
 202 86 202 86 181.5 114 c 128,-1,19
 161 142 161 142 161 182 c 2,20,-1
 161 401 l 2,21,22
 161 405 161 405 236 433 c 128,-1,23
 311 461 311 461 322 461 c 128,-1,24
 333 461 333 461 355 434 c 128,-1,25
 377 407 377 407 377 385 c 2,26,-1
 377 189 l 2,27,28
 377 147 377 147 411 142 c 1,29,-1
 433 142 l 1,30,-1
 433 432 l 2,31,32
 433 513 433 513 420.5 535.5 c 128,-1,33
 408 558 408 558 365.5 558 c 128,-1,34
 323 558 323 558 258 539.5 c 128,-1,35
 193 521 193 521 149 502 c 2,36,-1
 105 484 l 1,37,-1
 105 116 l 2,38,39
 105 39 105 39 122 18 c 128,-1,40
 139 -3 139 -3 187 -3 c 1,0,1
273 148 m 0,41,42
 287 148 287 148 300 159 c 1,43,-1
 300 352 l 2,44,45
 300 399 300 399 265 399 c 0,46,47
 252 399 252 399 240 391 c 1,48,-1
 240 196 l 2,49,50
 240 148 240 148 273 148 c 0,41,42
EndSplineSet
EndChar

StartChar: A
Encoding: 65 65 38
Width: 431
GlyphClass: 2
Flags: W
LayerCount: 2
Fore
SplineSet
50 102 m 2,0,-1
 50 676 l 2,1,2
 50 683 50 683 164 725.5 c 128,-1,3
 278 768 278 768 295 768 c 128,-1,4
 312 768 312 768 346.5 727 c 128,-1,5
 381 686 381 686 381 653 c 2,6,-1
 381 391 l 1,7,-1
 430 391 l 1,8,-1
 430 367 l 1,9,-1
 381 342 l 1,10,-1
 381 148 l 2,11,12
 381 93 381 93 429 83 c 1,13,-1
 429 61 l 1,14,-1
 320 0 l 1,15,16
 298 9 298 9 279 29.5 c 128,-1,17
 260 50 260 50 260 68 c 2,18,-1
 260 342 l 1,19,-1
 170 342 l 1,20,-1
 170 154 l 2,21,22
 170 117 170 117 178 101 c 128,-1,23
 186 85 186 85 211 85 c 1,24,-1
 211 54 l 1,25,-1
 6 -32 l 1,26,-1
 -10 0 l 1,27,28
 12 0 12 0 32 26 c 0,29,30
 50 51 50 51 50 102 c 2,0,-1
209 675 m 0,31,32
 189 675 189 675 170 660 c 1,33,-1
 170 365 l 1,34,-1
 229 391 l 1,35,-1
 260 391 l 1,36,-1
 260 601 l 2,37,38
 260 675 260 675 209 675 c 0,31,32
EndSplineSet
EndChar

StartChar: B
Encoding: 66 66 39
Width: 421
GlyphClass: 2
Flags: W
LayerCount: 2
Fore
SplineSet
170 700 m 1,0,1
 283 767 283 767 291.5 767 c 128,-1,2
 300 767 300 767 320 751.5 c 128,-1,3
 340 736 340 736 360 708.5 c 128,-1,4
 380 681 380 681 380 655 c 2,5,-1
 380 487 l 2,6,7
 380 464 380 464 298 429 c 1,8,9
 319 423 319 423 350 384.5 c 128,-1,10
 381 346 381 346 381 315 c 2,11,-1
 381 93 l 2,12,13
 381 85 381 85 271.5 42.5 c 128,-1,14
 162 0 162 0 137.5 0 c 128,-1,15
 113 0 113 0 81.5 43 c 128,-1,16
 50 86 50 86 50 146 c 2,17,-1
 50 626 l 2,18,19
 50 680 50 680 9 689 c 1,20,-1
 9 711 l 1,21,-1
 110 768 l 1,22,23
 132 759 132 759 151 738.5 c 128,-1,24
 170 718 170 718 170 700 c 1,0,1
221 92 m 0,25,26
 240 92 240 92 260 108 c 1,27,-1
 260 263 l 2,28,29
 260 337 260 337 209 337 c 0,30,31
 189 337 189 337 170 322 c 1,32,-1
 170 166 l 2,33,34
 170 92 170 92 221 92 c 0,25,26
248.5 646.5 m 128,-1,36
 237 666 237 666 215.5 666 c 128,-1,37
 194 666 194 666 170 636 c 1,38,-1
 170 429 l 1,39,40
 260 454 260 454 260 537 c 2,41,-1
 260 600 l 2,42,35
 260 627 260 627 248.5 646.5 c 128,-1,36
EndSplineSet
EndChar

StartChar: C
Encoding: 67 67 40
Width: 404
GlyphClass: 2
Flags: W
LayerCount: 2
Fore
SplineSet
188 673 m 0,0,1
 178 673 178 673 170 663 c 1,2,-1
 170 250 l 2,3,4
 170 208 170 208 175 182.5 c 128,-1,5
 180 157 180 157 197 132 c 0,6,7
 230 84 230 84 348 84 c 1,8,-1
 348 55 l 1,9,10
 343 55 343 55 274 27.5 c 128,-1,11
 205 0 205 0 190 0 c 0,12,13
 140 0 140 0 95 57.5 c 128,-1,14
 50 115 50 115 50 179 c 2,15,-1
 50 678 l 2,16,17
 50 685 50 685 164.5 727.5 c 128,-1,18
 279 770 279 770 296 770 c 0,19,20
 302 770 302 770 310 741 c 128,-1,21
 318 712 318 712 328.5 671 c 128,-1,22
 339 630 339 630 350.5 610.5 c 128,-1,23
 362 591 362 591 394 591 c 1,24,-1
 394 571 l 1,25,26
 372 561 372 561 319.5 535.5 c 128,-1,27
 267 510 267 510 263 510 c 0,28,29
 248 510 248 510 225 591.5 c 128,-1,30
 202 673 202 673 188 673 c 0,0,1
EndSplineSet
EndChar

StartChar: D
Encoding: 68 68 41
Width: 431
GlyphClass: 2
Flags: W
LayerCount: 2
Fore
SplineSet
381 655 m 2,0,-1
 381 93 l 2,1,2
 381 85 381 85 271.5 42.5 c 128,-1,3
 162 0 162 0 137.5 0 c 128,-1,4
 113 0 113 0 81.5 43 c 128,-1,5
 50 86 50 86 50 146 c 2,6,-1
 50 626 l 2,7,8
 50 680 50 680 9 689 c 1,9,-1
 9 711 l 1,10,-1
 110 768 l 1,11,12
 132 759 132 759 151 738.5 c 128,-1,13
 170 718 170 718 170 700 c 1,14,-1
 294 770 l 1,15,16
 312 770 312 770 346.5 729 c 128,-1,17
 381 688 381 688 381 655 c 2,0,-1
221 92 m 0,18,19
 240 92 240 92 260 108 c 1,20,-1
 260 580 l 2,21,22
 260 651 260 651 209 651 c 0,23,24
 189 651 189 651 170 636 c 1,25,-1
 170 166 l 2,26,27
 170 92 170 92 221 92 c 0,18,19
EndSplineSet
EndChar

StartChar: E
Encoding: 69 69 42
Width: 404
GlyphClass: 2
Flags: W
LayerCount: 2
Fore
SplineSet
188 673 m 0,0,1
 178 673 178 673 170 663 c 1,2,-1
 170 399 l 1,3,-1
 311 399 l 1,4,-1
 311 375 l 1,5,-1
 261 350 l 1,6,-1
 170 350 l 1,7,-1
 170 250 l 2,8,9
 170 139 170 139 192 120 c 0,10,11
 225 92 225 92 264 88 c 128,-1,12
 303 84 303 84 348 84 c 1,13,-1
 348 55 l 1,14,15
 343 55 343 55 274 27.5 c 128,-1,16
 205 0 205 0 190 0 c 0,17,18
 159 0 159 0 104.5 48 c 128,-1,19
 50 96 50 96 50 152 c 2,20,-1
 50 678 l 2,21,22
 50 685 50 685 164.5 727.5 c 128,-1,23
 279 770 279 770 296 770 c 0,24,25
 302 770 302 770 310 741 c 128,-1,26
 318 712 318 712 328.5 671 c 128,-1,27
 339 630 339 630 350.5 610.5 c 128,-1,28
 362 591 362 591 394 591 c 1,29,-1
 394 571 l 1,30,31
 372 561 372 561 319.5 535.5 c 128,-1,32
 267 510 267 510 263 510 c 0,33,34
 248 510 248 510 225 591.5 c 128,-1,35
 202 673 202 673 188 673 c 0,0,1
EndSplineSet
EndChar

StartChar: F
Encoding: 70 70 43
Width: 351
GlyphClass: 2
Flags: W
LayerCount: 2
Fore
SplineSet
188 673 m 0,0,1
 178 673 178 673 170 663 c 1,2,-1
 170 391 l 1,3,-1
 301 391 l 1,4,-1
 301 367 l 1,5,-1
 251 342 l 1,6,-1
 170 342 l 1,7,-1
 170 154 l 2,8,9
 170 117 170 117 178 101 c 128,-1,10
 186 85 186 85 211 85 c 1,11,-1
 211 54 l 1,12,-1
 6 -32 l 1,13,-1
 -10 0 l 1,14,15
 12 0 12 0 32 26 c 0,16,17
 50 51 50 51 50 102 c 2,18,-1
 50 678 l 2,19,20
 50 685 50 685 164.5 727.5 c 128,-1,21
 279 770 279 770 296 770 c 0,22,23
 302 770 302 770 310 741 c 128,-1,24
 318 712 318 712 328.5 671 c 128,-1,25
 339 630 339 630 350.5 610.5 c 128,-1,26
 362 591 362 591 394 591 c 1,27,-1
 394 571 l 1,28,29
 372 561 372 561 319.5 535.5 c 128,-1,30
 267 510 267 510 263 510 c 0,31,32
 248 510 248 510 225 591.5 c 128,-1,33
 202 673 202 673 188 673 c 0,0,1
EndSplineSet
EndChar

StartChar: G
Encoding: 71 71 44
Width: 421
GlyphClass: 2
Flags: W
LayerCount: 2
Fore
SplineSet
221 92 m 0,0,1
 240 92 240 92 260 108 c 1,2,-1
 260 237 l 2,3,4
 260 298 260 298 219 306 c 1,5,-1
 219 328 l 1,6,-1
 320 385 l 1,7,8
 341 376 341 376 361 355.5 c 128,-1,9
 381 335 381 335 381 317 c 2,10,-1
 381 93 l 2,11,12
 381 85 381 85 271.5 42.5 c 128,-1,13
 162 0 162 0 137.5 0 c 128,-1,14
 113 0 113 0 81.5 43 c 128,-1,15
 50 86 50 86 50 146 c 2,16,-1
 50 678 l 2,17,18
 50 685 50 685 164.5 727.5 c 128,-1,19
 279 770 279 770 296 770 c 0,20,21
 302 770 302 770 310 741 c 128,-1,22
 318 712 318 712 328.5 671 c 128,-1,23
 339 630 339 630 350.5 610.5 c 128,-1,24
 362 591 362 591 394 591 c 1,25,-1
 394 571 l 1,26,27
 372 561 372 561 319.5 535.5 c 128,-1,28
 267 510 267 510 263 510 c 0,29,30
 248 510 248 510 225 591.5 c 128,-1,31
 202 673 202 673 188 673 c 0,32,33
 178 673 178 673 170 663 c 1,34,-1
 170 166 l 2,35,36
 170 92 170 92 221 92 c 0,0,1
EndSplineSet
EndChar

StartChar: H
Encoding: 72 72 45
Width: 430
GlyphClass: 2
Flags: W
LayerCount: 2
Fore
SplineSet
260 409 m 1,0,-1
 260 585 l 2,1,2
 260 622 260 622 252 638 c 128,-1,3
 244 654 244 654 219 654 c 1,4,-1
 219 685 l 1,5,-1
 424 771 l 1,6,-1
 440 739 l 1,7,8
 418 739 418 739 398 713 c 0,9,10
 380 688 380 688 380 637 c 2,11,-1
 380 409 l 1,12,-1
 430 409 l 1,13,-1
 430 385 l 1,14,-1
 380 360 l 1,15,-1
 380 148 l 2,16,17
 380 87 380 87 421 79 c 1,18,-1
 421 57 l 1,19,-1
 320 0 l 1,20,21
 298 9 298 9 279 29.5 c 128,-1,22
 260 50 260 50 260 68 c 2,23,-1
 260 360 l 1,24,-1
 170 360 l 1,25,-1
 170 154 l 2,26,27
 170 117 170 117 178 101 c 128,-1,28
 186 85 186 85 211 85 c 1,29,-1
 211 54 l 1,30,-1
 6 -32 l 1,31,-1
 -10 0 l 1,32,33
 12 0 12 0 32 26 c 0,34,35
 50 51 50 51 50 102 c 2,36,-1
 50 622 l 2,37,38
 50 683 50 683 9 691 c 1,39,-1
 9 713 l 1,40,-1
 110 770 l 1,41,42
 132 761 132 761 151 740.5 c 128,-1,43
 170 720 170 720 170 702 c 2,44,-1
 170 382 l 1,45,-1
 220 409 l 1,46,-1
 260 409 l 1,0,-1
EndSplineSet
EndChar

StartChar: I
Encoding: 73 73 46
Width: 220
GlyphClass: 2
Flags: W
LayerCount: 2
Fore
SplineSet
50 128 m 2,0,-1
 50 585 l 2,1,2
 50 622 50 622 42 638 c 128,-1,3
 34 654 34 654 9 654 c 1,4,-1
 9 685 l 1,5,-1
 214 771 l 1,6,-1
 230 739 l 1,7,8
 208 739 208 739 188 713 c 0,9,10
 170 688 170 688 170 637 c 2,11,-1
 170 167 l 2,12,13
 170 140 170 140 179 128.5 c 128,-1,14
 188 117 188 117 210 117 c 1,15,-1
 210 89 l 1,16,17
 7 0 7 0 6 0 c 2,18,-1
 -10 32 l 1,19,20
 -2 32 -2 32 9.5 39 c 128,-1,21
 21 46 21 46 29 55 c 0,22,23
 50 79 50 79 50 128 c 2,0,-1
EndSplineSet
EndChar

StartChar: J
Encoding: 74 74 47
Width: 220
GlyphClass: 2
Flags: W
LayerCount: 2
Fore
SplineSet
50 113 m 2,0,-1
 50 574 l 2,1,2
 50 614 50 614 -38 614 c 1,3,-1
 -38 642 l 1,4,5
 92 710 92 710 194 770 c 1,6,-1
 210 738 l 1,7,8
 206 736 206 736 199 730.5 c 128,-1,9
 192 725 192 725 181 697.5 c 128,-1,10
 170 670 170 670 170 630 c 2,11,-1
 170 106 l 2,12,13
 170 28 170 28 161 -39.5 c 128,-1,14
 152 -107 152 -107 139 -143.5 c 128,-1,15
 126 -180 126 -180 112 -180 c 0,16,17
 87 -180 87 -180 47.5 -165 c 128,-1,18
 8 -150 8 -150 -19 -135 c 2,19,-1
 -46 -120 l 1,20,-1
 -46 -90 l 1,21,-1
 -12 -90 l 2,22,23
 23 -90 23 -90 36.5 -44 c 128,-1,24
 50 2 50 2 50 113 c 2,0,-1
EndSplineSet
EndChar

StartChar: K
Encoding: 75 75 48
Width: 426
GlyphClass: 2
Flags: W
LayerCount: 2
Fore
SplineSet
380 444 m 1,0,1
 382 437 382 437 272 393 c 1,2,3
 272 372 272 372 286 323.5 c 128,-1,4
 300 275 300 275 322.5 222 c 128,-1,5
 345 169 345 169 379 129 c 128,-1,6
 413 89 413 89 447 89 c 1,7,-1
 447 59 l 1,8,9
 354 0 354 0 329 0 c 0,10,11
 294 0 294 0 234.5 153 c 128,-1,12
 175 306 175 306 175 359 c 1,13,-1
 170 357 l 1,14,-1
 170 154 l 2,15,16
 170 117 170 117 178 101 c 128,-1,17
 186 85 186 85 211 85 c 1,18,-1
 211 54 l 1,19,-1
 6 -32 l 1,20,-1
 -10 0 l 1,21,22
 12 0 12 0 32 26 c 0,23,24
 50 51 50 51 50 102 c 2,25,-1
 50 620 l 2,26,27
 50 681 50 681 9 689 c 1,28,-1
 9 711 l 1,29,-1
 110 768 l 1,30,31
 132 759 132 759 151 738.5 c 128,-1,32
 170 718 170 718 170 701 c 2,33,-1
 170 404 l 1,34,35
 196 404 196 404 228 420.5 c 128,-1,36
 260 437 260 437 260 455 c 2,37,-1
 260 585 l 2,38,39
 260 622 260 622 252 638 c 128,-1,40
 244 654 244 654 219 654 c 1,41,-1
 219 685 l 1,42,-1
 424 771 l 1,43,-1
 440 739 l 1,44,45
 418 739 418 739 398 713 c 0,46,47
 380 688 380 688 380 637 c 2,48,-1
 380 444 l 1,0,1
EndSplineSet
EndChar

StartChar: L
Encoding: 76 76 49
Width: 368
GlyphClass: 2
Flags: W
LayerCount: 2
Fore
SplineSet
50 151 m 2,0,-1
 50 585 l 2,1,2
 50 622 50 622 42 638 c 128,-1,3
 34 654 34 654 9 654 c 1,4,-1
 9 685 l 1,5,-1
 214 771 l 1,6,-1
 230 739 l 1,7,8
 208 739 208 739 188 713 c 0,9,10
 170 688 170 688 170 637 c 2,11,-1
 170 228 l 2,12,13
 170 148 170 148 184 132 c 0,14,15
 208 102 208 102 231 96 c 0,16,17
 284 84 284 84 348 84 c 1,18,-1
 348 56 l 1,19,20
 215 0 215 0 196.5 0 c 128,-1,21
 178 0 178 0 146 16.5 c 128,-1,22
 114 33 114 33 82 70 c 128,-1,23
 50 107 50 107 50 151 c 2,0,-1
EndSplineSet
EndChar

StartChar: M
Encoding: 77 77 50
Width: 640
GlyphClass: 2
Flags: W
LayerCount: 2
Fore
SplineSet
50 102 m 2,0,-1
 50 607 l 2,1,2
 50 640 50 640 36 664 c 128,-1,3
 22 688 22 688 1 688 c 1,4,-1
 1 710 l 1,5,6
 8 711 8 711 110 771 c 1,7,8
 117 769 117 769 127 765.5 c 128,-1,9
 137 762 137 762 153.5 746 c 128,-1,10
 170 730 170 730 170 709 c 1,11,12
 176 712 176 712 204 728 c 0,13,14
 278 770 278 770 295.5 770 c 128,-1,15
 313 770 313 770 334.5 752 c 128,-1,16
 356 734 356 734 367 709 c 1,17,18
 369 710 369 710 408 730 c 0,19,20
 486 770 486 770 502 770 c 0,21,22
 534 770 534 770 562 728 c 128,-1,23
 590 686 590 686 590 651 c 2,24,-1
 590 148 l 2,25,26
 590 93 590 93 639 83 c 1,27,-1
 639 61 l 1,28,-1
 530 0 l 1,29,30
 508 9 508 9 489 29.5 c 128,-1,31
 470 50 470 50 470 68 c 2,32,-1
 470 558 l 2,33,34
 470 618 470 618 450.5 641.5 c 128,-1,35
 431 665 431 665 380 667 c 1,36,-1
 380 148 l 2,37,38
 380 93 380 93 429 83 c 1,39,-1
 429 61 l 1,40,-1
 320 0 l 1,41,42
 298 9 298 9 279 29.5 c 128,-1,43
 260 50 260 50 260 68 c 2,44,-1
 260 558 l 2,45,46
 260 621 260 621 241.5 644 c 128,-1,47
 223 667 223 667 170 667 c 1,48,-1
 170 154 l 2,49,50
 170 117 170 117 178 101 c 128,-1,51
 186 85 186 85 211 85 c 1,52,-1
 211 54 l 1,53,-1
 6 -32 l 1,54,-1
 -10 0 l 1,55,56
 12 0 12 0 32 26 c 0,57,58
 50 51 50 51 50 102 c 2,0,-1
EndSplineSet
EndChar

StartChar: N
Encoding: 78 78 51
Width: 430
GlyphClass: 2
Flags: W
LayerCount: 2
Fore
SplineSet
50 114 m 2,0,-1
 50 607 l 2,1,2
 50 640 50 640 36 664 c 128,-1,3
 22 688 22 688 1 688 c 1,4,-1
 1 710 l 1,5,6
 8 711 8 711 110 771 c 1,7,8
 117 769 117 769 127 765.5 c 128,-1,9
 137 762 137 762 153.5 746 c 128,-1,10
 170 730 170 730 170 709 c 1,11,12
 176 712 176 712 204 728 c 0,13,14
 278 770 278 770 292 770 c 0,15,16
 324 770 324 770 352 728 c 128,-1,17
 380 686 380 686 380 651 c 2,18,-1
 380 148 l 2,19,20
 380 93 380 93 429 83 c 1,21,-1
 429 61 l 1,22,-1
 320 0 l 1,23,24
 298 9 298 9 279 29.5 c 128,-1,25
 260 50 260 50 260 68 c 2,26,-1
 260 558 l 2,27,28
 260 621 260 621 241.5 644 c 128,-1,29
 223 667 223 667 170 667 c 1,30,-1
 170 154 l 2,31,32
 170 114 170 114 180 99.5 c 128,-1,33
 190 85 190 85 211 85 c 1,34,-1
 211 54 l 1,35,-1
 6 -32 l 1,36,-1
 -10 0 l 1,37,38
 10 0 10 0 29 24 c 0,39,40
 50 52 50 52 50 114 c 2,0,-1
EndSplineSet
EndChar

StartChar: O
Encoding: 79 79 52
Width: 431
GlyphClass: 2
Flags: W
LayerCount: 2
Fore
SplineSet
50 146 m 2,0,-1
 50 678 l 2,1,2
 50 685 50 685 164 727.5 c 128,-1,3
 278 770 278 770 295 770 c 128,-1,4
 312 770 312 770 346.5 729 c 128,-1,5
 381 688 381 688 381 655 c 2,6,-1
 381 93 l 2,7,8
 381 85 381 85 271.5 42.5 c 128,-1,9
 162 0 162 0 137.5 0 c 128,-1,10
 113 0 113 0 81.5 43 c 128,-1,11
 50 86 50 86 50 146 c 2,0,-1
221 92 m 0,12,13
 240 92 240 92 260 108 c 1,14,-1
 260 603 l 2,15,16
 260 677 260 677 209 677 c 0,17,18
 189 677 189 677 170 662 c 1,19,-1
 170 166 l 2,20,21
 170 92 170 92 221 92 c 0,12,13
EndSplineSet
EndChar

StartChar: P
Encoding: 80 80 53
Width: 421
GlyphClass: 2
Flags: W
LayerCount: 2
Fore
SplineSet
170 701 m 1,0,1
 280 768 280 768 296 768 c 128,-1,2
 312 768 312 768 346.5 727 c 128,-1,3
 381 686 381 686 381 653 c 2,4,-1
 381 342 l 2,5,6
 381 335 381 335 301.5 303 c 128,-1,7
 222 271 222 271 170 255 c 1,8,-1
 170 154 l 2,9,10
 170 117 170 117 178 101 c 128,-1,11
 186 85 186 85 211 85 c 1,12,-1
 211 54 l 1,13,-1
 6 -32 l 1,14,-1
 -10 0 l 1,15,16
 12 0 12 0 32 26 c 0,17,18
 50 51 50 51 50 102 c 2,19,-1
 50 620 l 2,20,21
 50 681 50 681 9 689 c 1,22,-1
 9 711 l 1,23,-1
 110 768 l 1,24,25
 130 760 130 760 150 739 c 128,-1,26
 170 718 170 718 170 701 c 1,0,1
209 672 m 0,27,28
 191 672 191 672 170 657 c 1,29,-1
 170 302 l 1,30,31
 196 302 196 302 228 318.5 c 128,-1,32
 260 335 260 335 260 353 c 2,33,-1
 260 598 l 2,34,35
 260 672 260 672 209 672 c 0,27,28
EndSplineSet
EndChar

StartChar: Q
Encoding: 81 81 54
Width: 431
GlyphClass: 2
Flags: W
LayerCount: 2
Fore
SplineSet
50 146 m 2,0,-1
 50 678 l 2,1,2
 50 685 50 685 164 727.5 c 128,-1,3
 278 770 278 770 295 770 c 128,-1,4
 312 770 312 770 346.5 729 c 128,-1,5
 381 688 381 688 381 655 c 2,6,-1
 381 93 l 2,7,8
 381 85 381 85 300 53 c 1,9,10
 363 -81 363 -81 437 -81 c 1,11,-1
 437 -110 l 1,12,13
 348 -170 348 -170 319 -170 c 0,14,15
 279 -170 279 -170 199 16 c 1,16,17
 154 0 154 0 140 0 c 0,18,19
 113 0 113 0 81.5 43 c 128,-1,20
 50 86 50 86 50 146 c 2,0,-1
221 92 m 0,21,22
 240 92 240 92 260 108 c 1,23,-1
 260 603 l 2,24,25
 260 677 260 677 209 677 c 0,26,27
 189 677 189 677 170 662 c 1,28,-1
 170 166 l 2,29,30
 170 92 170 92 221 92 c 0,21,22
EndSplineSet
EndChar

StartChar: R
Encoding: 82 82 55
Width: 432
GlyphClass: 2
Flags: W
LayerCount: 2
Fore
SplineSet
209 672 m 0,0,1
 191 672 191 672 170 657 c 1,2,-1
 170 332 l 1,3,4
 196 332 196 332 228 348.5 c 128,-1,5
 260 365 260 365 260 383 c 2,6,-1
 260 598 l 2,7,8
 260 672 260 672 209 672 c 0,0,1
50 102 m 2,9,-1
 50 620 l 2,10,11
 50 681 50 681 9 689 c 1,12,-1
 9 711 l 1,13,-1
 110 768 l 1,14,15
 130 760 130 760 150 739 c 128,-1,16
 170 718 170 718 170 701 c 1,17,18
 280 768 280 768 296 768 c 128,-1,19
 312 768 312 768 346.5 727 c 128,-1,20
 381 686 381 686 381 653 c 2,21,-1
 381 372 l 2,22,23
 381 364 381 364 272 321 c 1,24,25
 318 166 318 166 380 112 c 1,26,27
 408 89 408 89 437 89 c 1,28,-1
 437 59 l 1,29,30
 344 0 344 0 319 0 c 0,31,32
 286 0 286 0 235.5 124 c 128,-1,33
 185 248 185 248 181 288 c 1,34,-1
 170 285 l 1,35,-1
 170 154 l 2,36,37
 170 117 170 117 178 101 c 128,-1,38
 186 85 186 85 211 85 c 1,39,-1
 211 54 l 1,40,-1
 6 -32 l 1,41,-1
 -10 0 l 1,42,43
 12 0 12 0 32 26 c 0,44,45
 50 51 50 51 50 102 c 2,9,-1
EndSplineSet
EndChar

StartChar: S
Encoding: 83 83 56
Width: 425
GlyphClass: 2
Flags: W
LayerCount: 2
Fore
SplineSet
111 319 m 0,0,1
 86 319 86 319 68 357 c 128,-1,2
 50 395 50 395 50 450 c 2,3,-1
 50 658 l 2,4,5
 50 677 50 677 155 723.5 c 128,-1,6
 260 770 260 770 276 770 c 0,7,8
 288 770 288 770 310 730 c 0,9,10
 315 720 315 720 324.5 703 c 128,-1,11
 334 686 334 686 340 675 c 0,12,13
 353 651 353 651 373 651 c 1,14,-1
 373 631 l 1,15,16
 357 624 357 624 330 610 c 0,17,18
 267 575 267 575 262 575 c 0,19,20
 247 575 247 575 224.5 634 c 128,-1,21
 202 693 202 693 188 693 c 0,22,23
 170 693 170 693 170 663 c 2,24,-1
 170 440 l 2,25,26
 170 400 170 400 188 400 c 0,27,28
 192 400 192 400 250 426 c 128,-1,29
 308 452 308 452 320 452 c 0,30,31
 344 452 344 452 362.5 413.5 c 128,-1,32
 381 375 381 375 381 315 c 2,33,-1
 381 102 l 2,34,35
 381 83 381 83 266.5 36.5 c 128,-1,36
 152 -10 152 -10 135 -10 c 0,37,38
 128 -10 128 -10 119 7 c 128,-1,39
 110 24 110 24 95.5 55.5 c 128,-1,40
 81 87 81 87 69.5 108 c 128,-1,41
 58 129 58 129 38 129 c 1,42,-1
 38 149 l 1,43,44
 54 156 54 156 80 170 c 0,45,46
 144 205 144 205 149 205 c 0,47,48
 164 205 164 205 191.5 136 c 128,-1,49
 219 67 219 67 233 67 c 0,50,51
 243 67 243 67 252 75 c 128,-1,52
 261 83 261 83 261 97 c 2,53,-1
 261 322 l 2,54,55
 261 367 261 367 236 367 c 0,56,57
 228 367 228 367 173 343 c 128,-1,58
 118 319 118 319 111 319 c 0,0,1
EndSplineSet
EndChar

StartChar: T
Encoding: 84 84 57
Width: 365
GlyphClass: 2
Flags: W
LayerCount: 2
Fore
SplineSet
122 102 m 2,0,-1
 122 632 l 1,1,-1
 153 662 l 1,2,-1
 90 662 l 2,3,4
 29 662 29 662 21 629 c 1,5,-1
 -1 629 l 1,6,-1
 -58 711 l 1,7,8
 -46 730 -46 730 -27 745 c 128,-1,9
 -8 760 -8 760 10 760 c 2,10,-1
 274 760 l 2,11,12
 335 760 335 760 343 793 c 1,13,-1
 365 793 l 1,14,-1
 422 711 l 1,15,16
 410 692 410 692 391 677 c 128,-1,17
 372 662 372 662 354 662 c 2,18,-1
 242 662 l 1,19,-1
 242 154 l 2,20,21
 242 117 242 117 250 101 c 128,-1,22
 258 85 258 85 283 85 c 1,23,-1
 283 54 l 1,24,-1
 78 -32 l 1,25,-1
 62 0 l 1,26,27
 84 0 84 0 104 26 c 0,28,29
 122 51 122 51 122 102 c 2,0,-1
EndSplineSet
EndChar

StartChar: U
Encoding: 85 85 58
Width: 430
GlyphClass: 2
Flags: W
LayerCount: 2
Fore
SplineSet
260 104 m 1,0,-1
 260 585 l 2,1,2
 260 622 260 622 252 638 c 128,-1,3
 244 654 244 654 219 654 c 1,4,-1
 219 685 l 1,5,-1
 424 771 l 1,6,-1
 440 739 l 1,7,8
 418 739 418 739 398 713 c 0,9,10
 380 688 380 688 380 637 c 2,11,-1
 380 164 l 2,12,13
 380 131 380 131 394 107 c 128,-1,14
 408 83 408 83 429 83 c 1,15,-1
 429 61 l 1,16,17
 422 60 422 60 320 0 c 1,18,19
 313 2 313 2 303 5.5 c 128,-1,20
 293 9 293 9 276.5 25 c 128,-1,21
 260 41 260 41 260 62 c 1,22,23
 254 59 254 59 226 43 c 0,24,25
 152 1 152 1 138 1 c 0,26,27
 106 1 106 1 78 42.5 c 128,-1,28
 50 84 50 84 50 120 c 2,29,-1
 50 623 l 2,30,31
 50 678 50 678 1 688 c 1,32,-1
 1 710 l 1,33,-1
 110 771 l 1,34,35
 132 762 132 762 151 741.5 c 128,-1,36
 170 721 170 721 170 703 c 2,37,-1
 170 213 l 2,38,39
 170 150 170 150 188.5 127 c 128,-1,40
 207 104 207 104 260 104 c 1,0,-1
EndSplineSet
EndChar

StartChar: V
Encoding: 86 86 59
Width: 431
GlyphClass: 2
Flags: W
LayerCount: 2
Fore
SplineSet
184 92 m 128,-1,1
 198 75 198 75 214 75 c 128,-1,2
 230 75 230 75 260 90 c 1,3,-1
 260 585 l 2,4,5
 260 622 260 622 252.5 638 c 128,-1,6
 245 654 245 654 220 654 c 1,7,-1
 220 685 l 1,8,-1
 425 771 l 1,9,-1
 441 739 l 1,10,11
 419 739 419 739 400 713 c 0,12,13
 381 688 381 688 381 637 c 2,14,-1
 381 93 l 2,15,16
 381 84 381 84 274 42 c 128,-1,17
 167 0 167 0 136 0 c 128,-1,18
 105 0 105 0 77.5 47 c 128,-1,19
 50 94 50 94 50 130 c 2,20,-1
 50 623 l 2,21,22
 50 678 50 678 1 688 c 1,23,-1
 1 710 l 1,24,-1
 110 771 l 1,25,26
 132 762 132 762 151 741.5 c 128,-1,27
 170 721 170 721 170 703 c 2,28,-1
 170 134 l 2,29,0
 170 109 170 109 184 92 c 128,-1,1
EndSplineSet
EndChar

StartChar: W
Encoding: 87 87 60
Width: 641
GlyphClass: 2
Flags: W
LayerCount: 2
Fore
SplineSet
260 623 m 2,0,1
 260 678 260 678 211 688 c 1,2,-1
 211 710 l 1,3,4
 319 770 319 770 320 770 c 0,5,6
 329 770 329 770 352 750.5 c 128,-1,7
 375 731 375 731 380 709 c 1,8,9
 382 711 382 711 441 740.5 c 128,-1,10
 500 770 500 770 501 770 c 0,11,12
 521 770 521 770 545 746 c 0,13,14
 591 700 591 700 591 623 c 2,15,-1
 591 93 l 2,16,17
 591 84 591 84 484 42 c 128,-1,18
 377 0 377 0 351 0 c 0,19,20
 304 0 304 0 273 62 c 1,21,22
 163 0 163 0 134 0 c 128,-1,23
 105 0 105 0 77.5 42.5 c 128,-1,24
 50 85 50 85 50 121 c 2,25,-1
 50 623 l 2,26,27
 50 678 50 678 1 688 c 1,28,-1
 1 710 l 1,29,-1
 110 771 l 1,30,31
 132 762 132 762 151 741.5 c 128,-1,32
 170 721 170 721 170 704 c 2,33,-1
 170 195 l 2,34,35
 170 100 170 100 229 100 c 0,36,37
 244 100 244 100 260 106 c 1,38,-1
 260 623 l 2,0,1
393.5 125.5 m 128,-1,40
 406 98 406 98 428 98 c 128,-1,41
 450 98 450 98 470 107 c 1,42,-1
 470 587 l 2,43,44
 470 639 470 639 449 656.5 c 128,-1,45
 428 674 428 674 381 675 c 1,46,-1
 381 185 l 2,47,39
 381 153 381 153 393.5 125.5 c 128,-1,40
EndSplineSet
EndChar

StartChar: X
Encoding: 88 88 61
Width: 456
GlyphClass: 2
Flags: W
LayerCount: 2
Fore
SplineSet
22 688 m 1,0,-1
 22 709 l 1,1,-1
 126 770 l 1,2,-1
 165 770 l 1,3,-1
 274 446 l 1,4,-1
 296 456 l 1,5,-1
 296 625 l 2,6,7
 296 654 296 654 286 670.5 c 128,-1,8
 276 687 276 687 266 690 c 1,9,-1
 255 692 l 1,10,-1
 255 714 l 1,11,-1
 351 771 l 1,12,13
 359 771 359 771 385 748.5 c 128,-1,14
 411 726 411 726 411 706 c 2,15,-1
 411 460 l 2,16,17
 411 443 411 443 289 399 c 1,18,-1
 387 104 l 2,19,20
 392 90 392 90 406.5 86.5 c 128,-1,21
 421 83 421 83 450 83 c 1,22,-1
 450 61 l 1,23,-1
 341 0 l 1,24,-1
 297 0 l 1,25,-1
 181 350 l 1,26,-1
 160 340 l 1,27,-1
 160 146 l 2,28,29
 160 117 160 117 170 100.5 c 128,-1,30
 180 84 180 84 190 82 c 2,31,-1
 201 79 l 1,32,-1
 201 57 l 1,33,-1
 105 0 l 1,34,35
 97 0 97 0 71 22.5 c 128,-1,36
 45 45 45 45 45 65 c 2,37,-1
 45 336 l 2,38,39
 45 344 45 344 86 363.5 c 128,-1,40
 127 383 127 383 165 397 c 1,41,-1
 79 656 l 2,42,43
 74 671 74 671 64 678.5 c 128,-1,44
 54 686 54 686 46 687 c 128,-1,45
 38 688 38 688 22 688 c 1,0,-1
EndSplineSet
EndChar

StartChar: Y
Encoding: 89 89 62
Width: 396
GlyphClass: 2
Flags: W
LayerCount: 2
Fore
SplineSet
-38 688 m 1,0,-1
 -38 709 l 1,1,-1
 66 770 l 1,2,-1
 105 770 l 1,3,-1
 220 409 l 1,4,-1
 236 416 l 1,5,-1
 236 625 l 2,6,7
 236 654 236 654 226 670.5 c 128,-1,8
 216 687 216 687 206 690 c 1,9,-1
 195 692 l 1,10,-1
 195 714 l 1,11,-1
 291 771 l 1,12,13
 299 771 299 771 325 748.5 c 128,-1,14
 351 726 351 726 351 706 c 2,15,-1
 351 420 l 2,16,17
 351 403 351 403 239 363 c 1,18,-1
 239 175 l 2,19,20
 239 142 239 142 246.5 129.5 c 128,-1,21
 254 117 254 117 279 117 c 1,22,-1
 279 89 l 1,23,-1
 75 0 l 1,24,-1
 59 32 l 1,25,26
 102 42 102 42 112 80 c 0,27,28
 119 107 119 107 119 145 c 2,29,-1
 119 356 l 1,30,-1
 19 656 l 2,31,32
 14 671 14 671 4 678.5 c 128,-1,33
 -6 686 -6 686 -14 687 c 128,-1,34
 -22 688 -22 688 -38 688 c 1,0,-1
EndSplineSet
EndChar

StartChar: Z
Encoding: 90 90 63
Width: 370
GlyphClass: 2
Flags: W
LayerCount: 2
Fore
SplineSet
212 98 m 2,0,1
 273 98 273 98 281 131 c 1,2,-1
 303 131 l 1,3,-1
 360 49 l 1,4,5
 348 30 348 30 329 15 c 128,-1,6
 310 0 310 0 292 0 c 2,7,-1
 30 0 l 1,8,9
 10 61 10 61 10 95 c 1,10,-1
 250 662 l 1,11,-1
 158 662 l 2,12,13
 97 662 97 662 89 629 c 1,14,-1
 67 629 l 1,15,-1
 10 711 l 1,16,17
 22 730 22 730 41 745 c 128,-1,18
 60 760 60 760 78 760 c 2,19,-1
 212 760 l 2,20,21
 273 760 273 760 281 793 c 1,22,-1
 303 793 l 1,23,24
 317 774 317 774 338.5 723.5 c 128,-1,25
 360 673 360 673 360 663 c 1,26,-1
 133 98 l 1,27,-1
 212 98 l 2,0,1
EndSplineSet
EndChar

StartChar: bracketleft
Encoding: 91 91 64
Width: 221
GlyphClass: 2
Flags: W
LayerCount: 2
Fore
SplineSet
50 21 m 2,0,-1
 50 702 l 2,1,2
 50 720 50 720 65 737 c 128,-1,3
 80 754 80 754 95 762 c 2,4,-1
 110 770 l 1,5,-1
 221 723 l 1,6,-1
 221 701 l 1,7,8
 198 696 198 696 174 674 c 128,-1,9
 150 652 150 652 150 622 c 2,10,-1
 150 101 l 2,11,12
 150 71 150 71 174 49 c 128,-1,13
 198 27 198 27 221 22 c 1,14,-1
 221 0 l 1,15,-1
 110 -47 l 1,16,17
 88 -38 88 -38 69 -17.5 c 128,-1,18
 50 3 50 3 50 21 c 2,0,-1
EndSplineSet
EndChar

StartChar: backslash
Encoding: 92 92 65
Width: 180
GlyphClass: 2
Flags: W
LayerCount: 2
Fore
SplineSet
225 -38 m 1,0,-1
 150 0 l 1,1,-1
 -100 729 l 1,2,-1
 -75 729 l 1,3,-1
 -2 690 l 1,4,-1
 247 -38 l 1,5,-1
 225 -38 l 1,0,-1
EndSplineSet
EndChar

StartChar: bracketright
Encoding: 93 93 66
Width: 221
GlyphClass: 2
Flags: W
LayerCount: 2
Fore
SplineSet
172 702 m 2,0,-1
 172 21 l 2,1,2
 172 3 172 3 157 -14 c 128,-1,3
 142 -31 142 -31 127 -39 c 2,4,-1
 112 -47 l 1,5,-1
 1 0 l 1,6,-1
 1 22 l 1,7,8
 24 27 24 27 48 49 c 128,-1,9
 72 71 72 71 72 101 c 2,10,-1
 72 622 l 2,11,12
 72 652 72 652 48 674 c 128,-1,13
 24 696 24 696 1 701 c 1,14,-1
 1 723 l 1,15,-1
 112 770 l 1,16,17
 134 761 134 761 153 740.5 c 128,-1,18
 172 720 172 720 172 702 c 2,0,-1
EndSplineSet
EndChar

StartChar: asciicircum
Encoding: 94 94 67
Width: 376
GlyphClass: 2
Flags: W
LayerCount: 2
Fore
SplineSet
315 724.5 m 128,-1,1
 356 684 356 684 356 673.5 c 128,-1,2
 356 663 356 663 353 652 c 0,3,4
 347 631 347 631 340 631 c 0,5,6
 328 631 328 631 281.5 661.5 c 128,-1,7
 235 692 235 692 188 730 c 1,8,9
 141 692 141 692 94.5 661.5 c 128,-1,10
 48 631 48 631 36 631 c 0,11,12
 29 631 29 631 24.5 647 c 128,-1,13
 20 663 20 663 20 670.5 c 128,-1,14
 20 678 20 678 28.5 688 c 128,-1,15
 37 698 37 698 51 712.5 c 128,-1,16
 65 727 65 727 79 740 c 0,17,18
 121 779 121 779 134.5 792.5 c 128,-1,19
 148 806 148 806 185.5 806 c 128,-1,20
 223 806 223 806 243 791 c 1,21,0
 274 765 274 765 315 724.5 c 128,-1,1
EndSplineSet
EndChar

StartChar: underscore
Encoding: 95 95 68
Width: 390
GlyphClass: 2
Flags: W
LayerCount: 2
Fore
SplineSet
360 1 m 1,0,-1
 360 -23 l 1,1,-1
 300 -78 l 1,2,-1
 30 -78 l 1,3,-1
 30 -56 l 1,4,-1
 90 1 l 1,5,-1
 360 1 l 1,0,-1
EndSplineSet
EndChar

StartChar: grave
Encoding: 96 96 69
Width: 181
GlyphClass: 2
Flags: W
LayerCount: 2
Fore
SplineSet
145 731 m 128,-1,1
 161 693 161 693 161 678 c 128,-1,2
 161 663 161 663 158 652 c 0,3,4
 152 631 152 631 145 631 c 0,5,6
 120 631 120 631 110 643 c 0,7,8
 20 759 20 759 20 787 c 0,9,10
 20 806 20 806 63 806 c 128,-1,11
 106 806 106 806 112 796 c 0,12,0
 129 769 129 769 145 731 c 128,-1,1
EndSplineSet
EndChar

StartChar: a
Encoding: 97 97 70
Width: 410
GlyphClass: 2
Flags: W
LayerCount: 2
Fore
SplineSet
360 438 m 2,0,-1
 360 155 l 2,1,2
 360 118 360 118 372 103.5 c 128,-1,3
 384 89 384 89 409 83 c 1,4,-1
 409 61 l 1,5,-1
 300 0 l 1,6,7
 278 9 278 9 259 29.5 c 128,-1,8
 240 50 240 50 240 67 c 1,9,-1
 115 0 l 1,10,11
 112 2 112 2 106 5.5 c 128,-1,12
 100 9 100 9 85.5 20.5 c 128,-1,13
 71 32 71 32 60 45 c 0,14,15
 30 78 30 78 30 120 c 2,16,-1
 30 284 l 2,17,18
 30 300 30 300 82 325 c 128,-1,19
 134 350 134 350 186 366 c 2,20,-1
 239 383 l 1,21,22
 239 440 239 440 209 462.5 c 128,-1,23
 179 485 179 485 93 485 c 1,24,-1
 93 515 l 1,25,26
 248 570 248 570 267 570 c 0,27,28
 300 570 300 570 330 527 c 128,-1,29
 360 484 360 484 360 438 c 2,0,-1
165.5 113.5 m 128,-1,31
 181 97 181 97 200 97 c 128,-1,32
 219 97 219 97 240 112 c 1,33,-1
 240 338 l 1,34,35
 215 329 215 329 202.5 323 c 128,-1,36
 190 317 190 317 176 304 c 0,37,38
 150 280 150 280 150 221 c 2,39,-1
 150 156 l 2,40,30
 150 130 150 130 165.5 113.5 c 128,-1,31
EndSplineSet
EndChar

StartChar: b
Encoding: 98 98 71
Width: 430
GlyphClass: 2
Flags: W
LayerCount: 2
Fore
SplineSet
170 180 m 2,0,1
 170 92 170 92 216 92 c 0,2,3
 240 92 240 92 260 108 c 1,4,-1
 260 358 l 2,5,6
 260 456 260 456 224 469 c 0,7,8
 207 475 207 475 170 475 c 1,9,-1
 170 180 l 2,0,1
270.5 41.5 m 128,-1,11
 160 0 160 0 135 0 c 128,-1,12
 110 0 110 0 80 45.5 c 128,-1,13
 50 91 50 91 50 146 c 2,14,-1
 50 563 l 2,15,16
 50 590 50 590 41 601.5 c 128,-1,17
 32 613 32 613 10 613 c 1,18,-1
 10 641 l 1,19,20
 140 709 140 709 242 769 c 1,21,-1
 258 737 l 1,22,23
 248 732 248 732 230 717.5 c 128,-1,24
 212 703 212 703 200 688 c 0,25,26
 170 650 170 650 170 602 c 2,27,-1
 170 517 l 1,28,29
 273 570 273 570 290 570 c 0,30,31
 316 570 316 570 348.5 529 c 128,-1,32
 381 488 381 488 381 442 c 2,33,-1
 381 93 l 2,34,10
 381 83 381 83 270.5 41.5 c 128,-1,11
EndSplineSet
EndChar

StartChar: c
Encoding: 99 99 72
Width: 404
GlyphClass: 2
Flags: W
LayerCount: 2
Fore
SplineSet
188 473 m 0,0,1
 178 473 178 473 170 463 c 1,2,-1
 170 187 l 2,3,4
 170 110 170 110 236 92 c 1,5,6
 270 84 270 84 317 84 c 1,7,-1
 317 55 l 1,8,9
 153 0 153 0 142 0 c 0,10,11
 112 0 112 0 81 42.5 c 128,-1,12
 50 85 50 85 50 142 c 2,13,-1
 50 478 l 2,14,15
 50 485 50 485 164.5 527.5 c 128,-1,16
 279 570 279 570 296 570 c 0,17,18
 302 570 302 570 310 541 c 128,-1,19
 318 512 318 512 328.5 471 c 128,-1,20
 339 430 339 430 350.5 410.5 c 128,-1,21
 362 391 362 391 394 391 c 1,22,-1
 394 371 l 1,23,24
 372 361 372 361 319.5 335.5 c 128,-1,25
 267 310 267 310 263 310 c 0,26,27
 248 310 248 310 225 391.5 c 128,-1,28
 202 473 202 473 188 473 c 0,0,1
EndSplineSet
EndChar

StartChar: d
Encoding: 100 100 73
Width: 430
GlyphClass: 2
Flags: W
LayerCount: 2
Fore
SplineSet
238 770 m 0,0,1
 265 770 265 770 323 639 c 128,-1,2
 381 508 381 508 381 458 c 2,3,-1
 381 153 l 2,4,5
 381 130 381 130 393.5 108 c 128,-1,6
 406 86 406 86 429 83 c 1,7,-1
 429 61 l 1,8,9
 422 60 422 60 320 0 c 1,10,11
 297 10 297 10 278.5 29.5 c 128,-1,12
 260 49 260 49 260 66 c 1,13,14
 153 0 153 0 135 0 c 0,15,16
 128 0 128 0 108.5 15.5 c 128,-1,17
 89 31 89 31 69.5 60.5 c 128,-1,18
 50 90 50 90 50 121 c 2,19,-1
 50 478 l 2,20,21
 50 488 50 488 219 547 c 1,22,23
 183 626 183 626 161 658 c 128,-1,24
 139 690 139 690 118 690 c 2,25,-1
 85 690 l 1,26,-1
 85 720 l 1,27,28
 196 770 196 770 238 770 c 0,0,1
221 92 m 0,29,30
 240 92 240 92 260 108 c 1,31,-1
 260 456 l 2,32,33
 260 462 260 462 251.5 481.5 c 128,-1,34
 243 501 243 501 239 501 c 0,35,36
 210 501 210 501 180 483 c 2,37,-1
 170 477 l 1,38,-1
 170 166 l 2,39,40
 170 92 170 92 221 92 c 0,29,30
EndSplineSet
EndChar

StartChar: e
Encoding: 101 101 74
Width: 425
GlyphClass: 2
Flags: W
LayerCount: 2
Fore
SplineSet
295 570 m 0,0,1
 300 570 300 570 320 554.5 c 128,-1,2
 340 539 340 539 360 511.5 c 128,-1,3
 380 484 380 484 380 458 c 2,4,-1
 380 290 l 2,5,6
 380 272 380 272 327 246 c 128,-1,7
 274 220 274 220 224.5 203.5 c 128,-1,8
 175 187 175 187 171 187 c 1,9,10
 171 110 171 110 238 92 c 0,11,12
 271 84 271 84 317 84 c 1,13,-1
 317 55 l 1,14,15
 153 0 153 0 142 0 c 0,16,17
 112 0 112 0 81 42.5 c 128,-1,18
 50 85 50 85 50 142 c 2,19,-1
 50 478 l 2,20,21
 50 485 50 485 164 527.5 c 128,-1,22
 278 570 278 570 295 570 c 0,0,1
247 458.5 m 128,-1,24
 234 478 234 478 214 478 c 128,-1,25
 194 478 194 478 170 463 c 1,26,-1
 170 232 l 1,27,28
 260 257 260 257 260 340 c 2,29,-1
 260 411 l 2,30,23
 260 439 260 439 247 458.5 c 128,-1,24
EndSplineSet
EndChar

StartChar: f
Encoding: 102 102 75
Width: 320
GlyphClass: 2
Flags: W
LayerCount: 2
Fore
SplineSet
50 657 m 2,0,1
 50 676 50 676 152 722.5 c 128,-1,2
 254 769 254 769 276 769 c 0,3,4
 284 769 284 769 289 761.5 c 128,-1,5
 294 754 294 754 297 748 c 2,6,-1
 306 729 l 2,7,8
 313 716 313 716 320 704 c 0,9,10
 333 680 333 680 353 680 c 1,11,-1
 353 660 l 1,12,13
 337 653 337 653 310 638 c 0,14,15
 247 604 247 604 242 604 c 0,16,17
 227 604 227 604 214.5 648 c 128,-1,18
 202 692 202 692 188 692 c 0,19,20
 170 692 170 692 170 662 c 2,21,-1
 170 515 l 1,22,-1
 272 515 l 1,23,-1
 272 491 l 1,24,-1
 222 466 l 1,25,-1
 170 466 l 1,26,-1
 170 148 l 2,27,28
 170 87 170 87 211 79 c 1,29,-1
 211 57 l 1,30,-1
 110 0 l 1,31,32
 88 9 88 9 69 29.5 c 128,-1,33
 50 50 50 50 50 68 c 2,34,-1
 50 466 l 1,35,-1
 -11 466 l 1,36,-1
 -11 488 l 1,37,-1
 50 515 l 1,38,-1
 50 657 l 2,0,1
EndSplineSet
EndChar

StartChar: g
Encoding: 103 103 76
Width: 431
GlyphClass: 2
Flags: W
LayerCount: 2
Fore
SplineSet
160.5 528.5 m 128,-1,1
 271 570 271 570 296 570 c 128,-1,2
 321 570 321 570 351 524.5 c 128,-1,3
 381 479 381 479 381 424 c 2,4,-1
 381 106 l 2,5,6
 381 68 381 68 347 -2.5 c 128,-1,7
 313 -73 313 -73 275 -126.5 c 128,-1,8
 237 -180 237 -180 223 -180 c 0,9,10
 198 -180 198 -180 156 -165 c 128,-1,11
 114 -150 114 -150 84 -135 c 2,12,-1
 55 -120 l 1,13,-1
 55 -90 l 1,14,-1
 89 -90 l 2,15,16
 128 -90 128 -90 178 -45.5 c 128,-1,17
 228 -1 228 -1 261 73 c 1,18,19
 148 20 148 20 131 20 c 0,20,21
 100 20 100 20 75 59.5 c 128,-1,22
 50 99 50 99 50 148 c 2,23,-1
 50 477 l 2,24,0
 50 487 50 487 160.5 528.5 c 128,-1,1
261 390 m 2,25,26
 261 478 261 478 215 478 c 0,27,28
 191 478 191 478 171 462 c 1,29,-1
 171 232 l 2,30,31
 171 162 171 162 193 138.5 c 128,-1,32
 215 115 215 115 261 115 c 1,33,-1
 261 390 l 2,25,26
EndSplineSet
EndChar

StartChar: h
Encoding: 104 104 77
Width: 430
GlyphClass: 2
Flags: W
LayerCount: 2
Fore
SplineSet
50 68 m 2,0,-1
 50 563 l 2,1,2
 50 590 50 590 41 601.5 c 128,-1,3
 32 613 32 613 10 613 c 1,4,-1
 10 641 l 1,5,6
 140 709 140 709 242 769 c 1,7,-1
 258 737 l 1,8,9
 248 732 248 732 230 717.5 c 128,-1,10
 212 703 212 703 200 688 c 0,11,12
 170 650 170 650 170 602 c 2,13,-1
 170 517 l 1,14,15
 273 570 273 570 290 570 c 0,16,17
 322 570 322 570 351 530 c 128,-1,18
 380 490 380 490 380 442 c 2,19,-1
 380 148 l 2,20,21
 380 93 380 93 429 83 c 1,22,-1
 429 61 l 1,23,-1
 320 0 l 1,24,25
 298 9 298 9 279 29.5 c 128,-1,26
 260 50 260 50 260 68 c 2,27,-1
 260 358 l 2,28,29
 260 456 260 456 224 469 c 0,30,31
 207 475 207 475 170 475 c 1,32,-1
 170 148 l 2,33,34
 170 87 170 87 211 79 c 1,35,-1
 211 57 l 1,36,-1
 110 0 l 1,37,38
 88 9 88 9 69 29.5 c 128,-1,39
 50 50 50 50 50 68 c 2,0,-1
EndSplineSet
EndChar

StartChar: i
Encoding: 105 105 78
Width: 220
GlyphClass: 2
Flags: W
LayerCount: 2
Fore
SplineSet
170 502 m 2,0,-1
 170 148 l 2,1,2
 170 87 170 87 211 79 c 1,3,-1
 211 57 l 1,4,-1
 110 0 l 1,5,6
 88 9 88 9 69 29.5 c 128,-1,7
 50 50 50 50 50 68 c 2,8,-1
 50 422 l 2,9,10
 50 483 50 483 9 491 c 1,11,-1
 9 513 l 1,12,-1
 110 570 l 1,13,14
 132 561 132 561 151 540.5 c 128,-1,15
 170 520 170 520 170 502 c 2,0,-1
35 695 m 2,16,-1
 35 756 l 2,17,18
 35 759 35 759 76.5 774.5 c 128,-1,19
 118 790 118 790 124.5 790 c 128,-1,20
 131 790 131 790 143.5 773 c 128,-1,21
 156 756 156 756 156 738 c 2,22,-1
 156 665 l 2,23,24
 156 662 156 662 116 646.5 c 128,-1,25
 76 631 76 631 67 631 c 128,-1,26
 58 631 58 631 46.5 648.5 c 128,-1,27
 35 666 35 666 35 695 c 2,16,-1
EndSplineSet
EndChar

StartChar: j
Encoding: 106 106 79
Width: 220
GlyphClass: 2
Flags: W
LayerCount: 2
Fore
SplineSet
50 113 m 2,0,-1
 50 422 l 2,1,2
 50 483 50 483 9 491 c 1,3,-1
 9 513 l 1,4,-1
 110 570 l 1,5,6
 132 561 132 561 151 540.5 c 128,-1,7
 170 520 170 520 170 502 c 2,8,-1
 170 106 l 2,9,10
 170 28 170 28 161 -39.5 c 128,-1,11
 152 -107 152 -107 139 -143.5 c 128,-1,12
 126 -180 126 -180 112 -180 c 0,13,14
 87 -180 87 -180 47.5 -165 c 128,-1,15
 8 -150 8 -150 -19 -135 c 2,16,-1
 -46 -120 l 1,17,-1
 -46 -90 l 1,18,-1
 -12 -90 l 2,19,20
 23 -90 23 -90 36.5 -44 c 128,-1,21
 50 2 50 2 50 113 c 2,0,-1
35 673 m 2,22,-1
 35 734 l 2,23,24
 35 737 35 737 76.5 752.5 c 128,-1,25
 118 768 118 768 124.5 768 c 128,-1,26
 131 768 131 768 143.5 751 c 128,-1,27
 156 734 156 734 156 716 c 2,28,-1
 156 643 l 2,29,30
 156 640 156 640 116 624.5 c 128,-1,31
 76 609 76 609 67 609 c 128,-1,32
 58 609 58 609 46.5 626.5 c 128,-1,33
 35 644 35 644 35 673 c 2,22,-1
EndSplineSet
EndChar

StartChar: k
Encoding: 107 107 80
Width: 430
GlyphClass: 2
Flags: W
LayerCount: 2
Fore
SplineSet
170 148 m 2,0,1
 170 87 170 87 211 79 c 1,2,-1
 211 57 l 1,3,-1
 110 0 l 1,4,5
 88 9 88 9 69 29.5 c 128,-1,6
 50 50 50 50 50 68 c 2,7,-1
 50 563 l 2,8,9
 50 590 50 590 41 601.5 c 128,-1,10
 32 613 32 613 10 613 c 1,11,-1
 10 641 l 1,12,13
 140 709 140 709 242 769 c 1,14,-1
 258 737 l 1,15,16
 248 732 248 732 230 717.5 c 128,-1,17
 212 703 212 703 200 688 c 0,18,19
 170 650 170 650 170 602 c 2,20,-1
 170 510 l 1,21,22
 263 570 263 570 280 570 c 0,23,24
 308 570 308 570 342 533.5 c 128,-1,25
 376 497 376 497 376 452 c 2,26,-1
 376 343 l 2,27,28
 376 332 376 332 272 292 c 1,29,30
 335 125 335 125 395 100 c 1,31,32
 414 91 414 91 437 89 c 1,33,-1
 437 60 l 1,34,35
 344 0 344 0 320 0 c 0,36,37
 288 0 288 0 238.5 97.5 c 128,-1,38
 189 195 189 195 170 260 c 1,39,-1
 170 148 l 2,0,1
170 309 m 1,40,41
 190 309 190 309 242 334 c 2,42,-1
 260 343 l 1,43,-1
 260 388 l 2,44,45
 260 473 260 473 202 473 c 1,46,-1
 170 468 l 1,47,-1
 170 309 l 1,40,41
EndSplineSet
EndChar

StartChar: l
Encoding: 108 108 81
Width: 220
GlyphClass: 2
Flags: W
LayerCount: 2
Fore
SplineSet
170 701 m 2,0,-1
 170 148 l 2,1,2
 170 87 170 87 211 79 c 1,3,-1
 211 57 l 1,4,-1
 110 0 l 1,5,6
 88 9 88 9 69 29.5 c 128,-1,7
 50 50 50 50 50 68 c 2,8,-1
 50 621 l 2,9,10
 50 682 50 682 9 690 c 1,11,-1
 9 712 l 1,12,-1
 110 769 l 1,13,14
 132 760 132 760 151 739.5 c 128,-1,15
 170 719 170 719 170 701 c 2,0,-1
EndSplineSet
EndChar

StartChar: m
Encoding: 109 109 82
Width: 640
GlyphClass: 2
Flags: W
LayerCount: 2
Fore
SplineSet
50 68 m 2,0,-1
 50 407 l 2,1,2
 50 440 50 440 36 464 c 128,-1,3
 22 488 22 488 1 488 c 1,4,-1
 1 510 l 1,5,6
 8 511 8 511 110 571 c 1,7,8
 117 569 117 569 127 565.5 c 128,-1,9
 137 562 137 562 153.5 546 c 128,-1,10
 170 530 170 530 170 509 c 1,11,12
 176 512 176 512 204 528 c 0,13,14
 278 570 278 570 295.5 570 c 128,-1,15
 313 570 313 570 334.5 552 c 128,-1,16
 356 534 356 534 367 509 c 1,17,18
 369 510 369 510 408 530 c 0,19,20
 486 570 486 570 502 570 c 0,21,22
 534 570 534 570 562 528 c 128,-1,23
 590 486 590 486 590 451 c 2,24,-1
 590 148 l 2,25,26
 590 93 590 93 639 83 c 1,27,-1
 639 61 l 1,28,-1
 530 0 l 1,29,30
 508 9 508 9 489 29.5 c 128,-1,31
 470 50 470 50 470 68 c 2,32,-1
 470 363 l 2,33,34
 470 428 470 428 453 449.5 c 128,-1,35
 436 471 436 471 409 471 c 1,36,-1
 380 465 l 1,37,-1
 380 148 l 2,38,39
 380 93 380 93 429 83 c 1,40,-1
 429 61 l 1,41,-1
 320 0 l 1,42,43
 298 9 298 9 279 29.5 c 128,-1,44
 260 50 260 50 260 68 c 2,45,-1
 260 358 l 2,46,47
 260 473 260 473 205 473 c 1,48,-1
 170 467 l 1,49,-1
 170 148 l 2,50,51
 170 87 170 87 211 79 c 1,52,-1
 211 57 l 1,53,-1
 110 0 l 1,54,55
 88 9 88 9 69 29.5 c 128,-1,56
 50 50 50 50 50 68 c 2,0,-1
EndSplineSet
EndChar

StartChar: n
Encoding: 110 110 83
Width: 430
GlyphClass: 2
Flags: W
LayerCount: 2
Fore
SplineSet
50 68 m 2,0,-1
 50 407 l 2,1,2
 50 440 50 440 36 464 c 128,-1,3
 22 488 22 488 1 488 c 1,4,-1
 1 510 l 1,5,6
 8 511 8 511 110 571 c 1,7,8
 117 569 117 569 127 565.5 c 128,-1,9
 137 562 137 562 153.5 546 c 128,-1,10
 170 530 170 530 170 509 c 1,11,12
 176 512 176 512 204 528 c 0,13,14
 278 570 278 570 292 570 c 0,15,16
 324 570 324 570 352 528 c 128,-1,17
 380 486 380 486 380 451 c 2,18,-1
 380 148 l 2,19,20
 380 93 380 93 429 83 c 1,21,-1
 429 61 l 1,22,-1
 320 0 l 1,23,24
 298 9 298 9 279 29.5 c 128,-1,25
 260 50 260 50 260 68 c 2,26,-1
 260 358 l 2,27,28
 260 414 260 414 247.5 443.5 c 128,-1,29
 235 473 235 473 203 473 c 1,30,-1
 170 467 l 1,31,-1
 170 148 l 2,32,33
 170 87 170 87 211 79 c 1,34,-1
 211 57 l 1,35,-1
 110 0 l 1,36,37
 88 9 88 9 69 29.5 c 128,-1,38
 50 50 50 50 50 68 c 2,0,-1
EndSplineSet
EndChar

StartChar: o
Encoding: 111 111 84
Width: 431
GlyphClass: 2
Flags: W
LayerCount: 2
Fore
SplineSet
50 146 m 2,0,-1
 50 478 l 2,1,2
 50 485 50 485 164 527.5 c 128,-1,3
 278 570 278 570 295 570 c 128,-1,4
 312 570 312 570 346.5 529 c 128,-1,5
 381 488 381 488 381 455 c 2,6,-1
 381 93 l 2,7,8
 381 85 381 85 271.5 42.5 c 128,-1,9
 162 0 162 0 137.5 0 c 128,-1,10
 113 0 113 0 81.5 43 c 128,-1,11
 50 86 50 86 50 146 c 2,0,-1
221 92 m 0,12,13
 240 92 240 92 260 108 c 1,14,-1
 260 403 l 2,15,16
 260 477 260 477 209 477 c 0,17,18
 189 477 189 477 170 462 c 1,19,-1
 170 166 l 2,20,21
 170 92 170 92 221 92 c 0,12,13
EndSplineSet
EndChar

StartChar: p
Encoding: 112 112 85
Width: 430
GlyphClass: 2
Flags: W
LayerCount: 2
Fore
SplineSet
210 477 m 0,0,1
 191 477 191 477 171 461 c 1,2,-1
 171 64 l 1,3,4
 197 64 197 64 229 81 c 128,-1,5
 261 98 261 98 261 117 c 2,6,-1
 261 403 l 2,7,8
 261 477 261 477 210 477 c 0,0,1
50 -110 m 2,9,-1
 50 416 l 2,10,11
 50 439 50 439 37.5 461 c 128,-1,12
 25 483 25 483 2 486 c 1,13,-1
 2 508 l 1,14,15
 9 509 9 509 111 569 c 1,16,17
 134 559 134 559 152.5 539.5 c 128,-1,18
 171 520 171 520 171 503 c 1,19,20
 278 569 278 569 296 569 c 0,21,22
 303 569 303 569 322.5 553.5 c 128,-1,23
 342 538 342 538 361.5 508.5 c 128,-1,24
 381 479 381 479 381 448 c 2,25,-1
 381 92 l 2,26,27
 381 85 381 85 292.5 50.5 c 128,-1,28
 204 16 204 16 170 7 c 1,29,-1
 170 -30 l 2,30,31
 170 -91 170 -91 211 -99 c 1,32,-1
 211 -121 l 1,33,-1
 110 -178 l 1,34,35
 88 -169 88 -169 69 -148.5 c 128,-1,36
 50 -128 50 -128 50 -110 c 2,9,-1
EndSplineSet
EndChar

StartChar: q
Encoding: 113 113 86
Width: 431
GlyphClass: 2
Flags: W
LayerCount: 2
Fore
SplineSet
261 390 m 2,0,1
 261 478 261 478 215 478 c 0,2,3
 191 478 191 478 171 462 c 1,4,-1
 171 232 l 2,5,6
 171 162 171 162 193 138.5 c 128,-1,7
 215 115 215 115 261 115 c 1,8,-1
 261 390 l 2,0,1
160.5 528.5 m 128,-1,10
 271 570 271 570 296 570 c 128,-1,11
 321 570 321 570 351 524.5 c 128,-1,12
 381 479 381 479 381 424 c 2,13,-1
 381 -13 l 2,14,15
 381 -40 381 -40 390 -51.5 c 128,-1,16
 399 -63 399 -63 421 -63 c 1,17,-1
 421 -91 l 1,18,19
 218 -180 218 -180 217 -180 c 2,20,-1
 201 -148 l 1,21,22
 209 -148 209 -148 220.5 -141 c 128,-1,23
 232 -134 232 -134 240 -125 c 0,24,25
 261 -101 261 -101 261 -52 c 2,26,-1
 261 73 l 1,27,28
 148 20 148 20 131 20 c 0,29,30
 100 20 100 20 75 59.5 c 128,-1,31
 50 99 50 99 50 148 c 2,32,-1
 50 477 l 2,33,9
 50 487 50 487 160.5 528.5 c 128,-1,10
EndSplineSet
EndChar

StartChar: r
Encoding: 114 114 87
Width: 380
GlyphClass: 2
Flags: W
LayerCount: 2
Fore
SplineSet
1 510 m 1,0,-1
 111 570 l 1,1,2
 118 568 118 568 127.5 564.5 c 128,-1,3
 137 561 137 561 153.5 545 c 128,-1,4
 170 529 170 529 170 509 c 1,5,6
 175 511 175 511 217.5 540.5 c 128,-1,7
 260 570 260 570 272 570 c 0,8,9
 304 570 304 570 332 528 c 128,-1,10
 360 486 360 486 360 451 c 2,11,-1
 360 402 l 1,12,-1
 257 344 l 1,13,-1
 240 358 l 1,14,15
 240 442 240 442 224 454 c 0,16,17
 206 467 206 467 170 467 c 1,18,-1
 170 148 l 2,19,20
 170 87 170 87 211 79 c 1,21,-1
 211 57 l 1,22,-1
 110 0 l 1,23,24
 88 9 88 9 69 29.5 c 128,-1,25
 50 50 50 50 50 68 c 2,26,-1
 50 400 l 2,27,28
 50 444 50 444 34.5 466 c 128,-1,29
 19 488 19 488 1 488 c 1,30,-1
 1 510 l 1,0,-1
EndSplineSet
EndChar

StartChar: s
Encoding: 115 115 88
Width: 405
GlyphClass: 2
Flags: W
LayerCount: 2
Fore
SplineSet
96 219 m 0,0,1
 71 219 71 219 53 257 c 128,-1,2
 35 295 35 295 35 350 c 2,3,-1
 35 458 l 2,4,5
 35 477 35 477 140 523.5 c 128,-1,6
 245 570 245 570 261 570 c 0,7,8
 270 570 270 570 277 559.5 c 128,-1,9
 284 549 284 549 288 542.5 c 128,-1,10
 292 536 292 536 300.5 520.5 c 128,-1,11
 309 505 309 505 315 495 c 0,12,13
 328 471 328 471 348 471 c 1,14,-1
 348 451 l 1,15,16
 332 444 332 444 306 430 c 0,17,18
 242 395 242 395 237 395 c 0,19,20
 222 395 222 395 204.5 444 c 128,-1,21
 187 493 187 493 173 493 c 0,22,23
 155 493 155 493 155 463 c 2,24,-1
 155 340 l 2,25,26
 155 300 155 300 173 300 c 0,27,28
 177 300 177 300 235 326 c 128,-1,29
 293 352 293 352 305 352 c 0,30,31
 329 352 329 352 347.5 313.5 c 128,-1,32
 366 275 366 275 366 215 c 2,33,-1
 366 102 l 2,34,35
 366 83 366 83 251.5 36.5 c 128,-1,36
 137 -10 137 -10 120 -10 c 0,37,38
 113 -10 113 -10 106.5 2.5 c 128,-1,39
 100 15 100 15 88.5 41 c 128,-1,40
 77 67 77 67 66 85 c 1,41,42
 53 109 53 109 33 109 c 1,43,-1
 33 129 l 1,44,45
 49 136 49 136 76 150 c 0,46,47
 139 185 139 185 144 185 c 0,48,49
 159 185 159 185 181.5 126 c 128,-1,50
 204 67 204 67 218 67 c 0,51,52
 228 67 228 67 237 75 c 128,-1,53
 246 83 246 83 246 97 c 2,54,-1
 246 222 l 2,55,56
 246 267 246 267 221 267 c 0,57,58
 213 267 213 267 158 243 c 128,-1,59
 103 219 103 219 96 219 c 0,0,1
EndSplineSet
EndChar

StartChar: t
Encoding: 116 116 89
Width: 220
GlyphClass: 2
Flags: W
LayerCount: 2
Fore
SplineSet
170 674 m 1,0,-1
 170 555 l 1,1,-1
 221 555 l 1,2,-1
 211 506 l 1,3,-1
 170 506 l 1,4,-1
 170 148 l 2,5,6
 170 87 170 87 211 79 c 1,7,-1
 211 57 l 1,8,-1
 110 0 l 1,9,10
 88 9 88 9 69 29.5 c 128,-1,11
 50 50 50 50 50 68 c 2,12,-1
 50 505 l 1,13,-1
 9 505 l 1,14,-1
 19 547 l 1,15,16
 49 547 49 547 91.5 587.5 c 128,-1,17
 134 628 134 628 142 674 c 1,18,-1
 170 674 l 1,0,-1
EndSplineSet
EndChar

StartChar: u
Encoding: 117 117 90
Width: 430
GlyphClass: 2
Flags: W
LayerCount: 2
Fore
SplineSet
185.5 113.5 m 128,-1,1
 201 97 201 97 220 97 c 128,-1,2
 239 97 239 97 260 112 c 1,3,-1
 260 423 l 2,4,5
 260 484 260 484 219 492 c 1,6,-1
 219 514 l 1,7,-1
 320 571 l 1,8,9
 342 562 342 562 361 541.5 c 128,-1,10
 380 521 380 521 380 503 c 2,11,-1
 380 164 l 2,12,13
 380 131 380 131 394 107 c 128,-1,14
 408 83 408 83 429 83 c 1,15,-1
 429 61 l 1,16,17
 422 60 422 60 320 0 c 1,18,19
 297 10 297 10 278.5 29.5 c 128,-1,20
 260 49 260 49 260 67 c 1,21,-1
 135 0 l 1,22,23
 132 2 132 2 126 5.5 c 128,-1,24
 120 9 120 9 105.5 20.5 c 128,-1,25
 91 32 91 32 80 45 c 0,26,27
 50 78 50 78 50 120 c 2,28,-1
 50 423 l 2,29,30
 50 478 50 478 1 488 c 1,31,-1
 1 510 l 1,32,-1
 110 571 l 1,33,34
 132 562 132 562 151 541.5 c 128,-1,35
 170 521 170 521 170 503 c 2,36,-1
 170 156 l 2,37,0
 170 130 170 130 185.5 113.5 c 128,-1,1
EndSplineSet
EndChar

StartChar: v
Encoding: 118 118 91
Width: 430
GlyphClass: 2
Flags: W
LayerCount: 2
Fore
SplineSet
381 433 m 2,0,-1
 381 93 l 2,1,2
 381 84 381 84 274 42 c 128,-1,3
 167 0 167 0 136 0 c 128,-1,4
 105 0 105 0 77.5 47 c 128,-1,5
 50 94 50 94 50 130 c 2,6,-1
 50 423 l 2,7,8
 50 478 50 478 1 488 c 1,9,-1
 1 510 l 1,10,-1
 110 571 l 1,11,12
 132 562 132 562 149.5 543 c 128,-1,13
 167 524 167 524 170 509 c 1,14,-1
 292 570 l 1,15,16
 322 570 322 570 351.5 527 c 128,-1,17
 381 484 381 484 381 433 c 2,0,-1
184 92 m 128,-1,19
 198 75 198 75 214 75 c 128,-1,20
 230 75 230 75 260 90 c 1,21,-1
 260 373 l 2,22,23
 260 437 260 437 241 456 c 128,-1,24
 222 475 222 475 170 475 c 1,25,-1
 170 134 l 2,26,18
 170 109 170 109 184 92 c 128,-1,19
EndSplineSet
EndChar

StartChar: w
Encoding: 119 119 92
Width: 641
GlyphClass: 2
Flags: W
LayerCount: 2
Fore
SplineSet
260 423 m 2,0,1
 260 478 260 478 211 488 c 1,2,-1
 211 510 l 1,3,4
 319 570 319 570 320 570 c 0,5,6
 329 570 329 570 352 550.5 c 128,-1,7
 375 531 375 531 380 509 c 1,8,9
 382 511 382 511 441 540.5 c 128,-1,10
 500 570 500 570 501 570 c 0,11,12
 521 570 521 570 545 546 c 0,13,14
 591 500 591 500 591 423 c 2,15,-1
 591 93 l 2,16,17
 591 84 591 84 484 42 c 128,-1,18
 377 0 377 0 351 0 c 0,19,20
 304 0 304 0 273 62 c 1,21,22
 163 0 163 0 134 0 c 128,-1,23
 105 0 105 0 77.5 42.5 c 128,-1,24
 50 85 50 85 50 121 c 2,25,-1
 50 423 l 2,26,27
 50 478 50 478 1 488 c 1,28,-1
 1 510 l 1,29,-1
 110 571 l 1,30,31
 132 562 132 562 151 541.5 c 128,-1,32
 170 521 170 521 170 504 c 2,33,-1
 170 195 l 2,34,35
 170 100 170 100 229 100 c 0,36,37
 244 100 244 100 260 106 c 1,38,-1
 260 423 l 2,0,1
393.5 125.5 m 128,-1,40
 406 98 406 98 428 98 c 128,-1,41
 450 98 450 98 470 107 c 1,42,-1
 470 387 l 2,43,44
 470 439 470 439 449 456.5 c 128,-1,45
 428 474 428 474 381 475 c 1,46,-1
 381 185 l 2,47,39
 381 153 381 153 393.5 125.5 c 128,-1,40
EndSplineSet
EndChar

StartChar: x
Encoding: 120 120 93
Width: 436
GlyphClass: 2
Flags: W
LayerCount: 2
Fore
SplineSet
12 488 m 1,0,-1
 12 509 l 1,1,-1
 116 570 l 1,2,-1
 144 570 l 1,3,-1
 261 334 l 1,4,-1
 286 346 l 1,5,-1
 286 425 l 2,6,7
 286 454 286 454 276 470.5 c 128,-1,8
 266 487 266 487 256 490 c 1,9,-1
 245 492 l 1,10,-1
 245 514 l 1,11,-1
 341 571 l 1,12,13
 349 571 349 571 375 548.5 c 128,-1,14
 401 526 401 526 401 506 c 2,15,-1
 401 350 l 2,16,17
 401 334 401 334 285 292 c 1,18,-1
 386 104 l 1,19,20
 399 83 399 83 440 83 c 1,21,-1
 440 61 l 1,22,-1
 331 0 l 1,23,-1
 303 0 l 1,24,-1
 177 253 l 1,25,-1
 150 240 l 1,26,-1
 150 146 l 2,27,28
 150 117 150 117 160 100.5 c 128,-1,29
 170 84 170 84 180 82 c 2,30,-1
 191 79 l 1,31,-1
 191 57 l 1,32,-1
 95 0 l 1,33,34
 87 0 87 0 61 22.5 c 128,-1,35
 35 45 35 45 35 65 c 2,36,-1
 35 236 l 2,37,38
 35 252 35 252 154 296 c 1,39,-1
 76 455 l 2,40,41
 69 470 69 470 57.5 478 c 128,-1,42
 46 486 46 486 37 487 c 128,-1,43
 28 488 28 488 12 488 c 1,0,-1
EndSplineSet
EndChar

StartChar: y
Encoding: 121 121 94
Width: 431
GlyphClass: 2
Flags: W
LayerCount: 2
Fore
SplineSet
381 503 m 2,0,-1
 381 106 l 2,1,2
 381 68 381 68 347 -2.5 c 128,-1,3
 313 -73 313 -73 275 -126.5 c 128,-1,4
 237 -180 237 -180 223 -180 c 0,5,6
 198 -180 198 -180 156 -165 c 128,-1,7
 114 -150 114 -150 84 -135 c 2,8,-1
 55 -120 l 1,9,-1
 55 -90 l 1,10,-1
 89 -90 l 2,11,12
 128 -90 128 -90 178 -45.5 c 128,-1,13
 228 -1 228 -1 261 73 c 1,14,15
 148 20 148 20 131 20 c 0,16,17
 100 20 100 20 75.5 59.5 c 128,-1,18
 51 99 51 99 51 148 c 2,19,-1
 51 423 l 2,20,21
 51 478 51 478 2 488 c 1,22,-1
 2 510 l 1,23,-1
 111 571 l 1,24,25
 133 562 133 562 152 541.5 c 128,-1,26
 171 521 171 521 171 503 c 2,27,-1
 171 232 l 2,28,29
 171 162 171 162 193 138.5 c 128,-1,30
 215 115 215 115 261 115 c 1,31,-1
 261 423 l 2,32,33
 261 484 261 484 220 492 c 1,34,-1
 220 514 l 1,35,-1
 321 571 l 1,36,37
 343 562 343 562 362 541.5 c 128,-1,38
 381 521 381 521 381 503 c 2,0,-1
EndSplineSet
EndChar

StartChar: z
Encoding: 122 122 95
Width: 370
GlyphClass: 2
Flags: W
LayerCount: 2
Fore
SplineSet
212 98 m 2,0,1
 273 98 273 98 281 131 c 1,2,-1
 303 131 l 1,3,-1
 360 49 l 1,4,5
 348 30 348 30 329 15 c 128,-1,6
 310 0 310 0 292 0 c 2,7,-1
 30 0 l 1,8,9
 10 61 10 61 10 95 c 1,10,-1
 245 463 l 1,11,-1
 158 463 l 2,12,13
 97 463 97 463 89 430 c 1,14,-1
 67 430 l 1,15,-1
 10 512 l 1,16,17
 22 531 22 531 41 546 c 128,-1,18
 60 561 60 561 78 561 c 2,19,-1
 212 561 l 2,20,21
 273 561 273 561 281 594 c 1,22,-1
 303 594 l 1,23,24
 317 575 317 575 338.5 524.5 c 128,-1,25
 360 474 360 474 360 464 c 1,26,-1
 133 98 l 1,27,-1
 212 98 l 2,0,1
EndSplineSet
EndChar

StartChar: braceleft
Encoding: 123 123 96
Width: 221
GlyphClass: 2
Flags: W
LayerCount: 2
Fore
SplineSet
150 300 m 2,0,-1
 150 103 l 2,1,2
 150 73 150 73 174 51 c 128,-1,3
 198 29 198 29 221 24 c 1,4,-1
 221 2 l 1,5,-1
 110 -45 l 1,6,7
 88 -36 88 -36 69 -15.5 c 128,-1,8
 50 5 50 5 50 23 c 2,9,-1
 50 266 l 2,10,11
 50 296 50 296 26 318 c 128,-1,12
 2 340 2 340 -21 345 c 1,13,-1
 -21 367 l 1,14,15
 2 372 2 372 26 394 c 128,-1,16
 50 416 50 416 50 446 c 2,17,-1
 50 702 l 2,18,19
 50 720 50 720 65 737 c 128,-1,20
 80 754 80 754 95 762 c 2,21,-1
 110 770 l 1,22,-1
 221 723 l 1,23,-1
 221 701 l 1,24,25
 198 696 198 696 174 674 c 128,-1,26
 150 652 150 652 150 622 c 2,27,-1
 150 413 l 2,28,29
 150 384 150 384 110 356 c 1,30,31
 150 328 150 328 150 300 c 2,0,-1
EndSplineSet
EndChar

StartChar: bar
Encoding: 124 124 97
Width: 180
GlyphClass: 2
Flags: W
LayerCount: 2
Fore
SplineSet
50 -169 m 1,0,-1
 50 699 l 1,1,-1
 106 759 l 1,2,-1
 130 759 l 1,3,-1
 130 -109 l 1,4,-1
 72 -169 l 1,5,-1
 50 -169 l 1,0,-1
EndSplineSet
EndChar

StartChar: braceright
Encoding: 125 125 98
Width: 221
GlyphClass: 2
Flags: W
LayerCount: 2
Fore
SplineSet
70 103 m 2,0,-1
 70 300 l 2,1,2
 70 328 70 328 110 356 c 1,3,4
 70 384 70 384 70 413 c 2,5,-1
 70 622 l 2,6,7
 70 652 70 652 46 674 c 128,-1,8
 22 696 22 696 -1 701 c 1,9,-1
 -1 723 l 1,10,-1
 110 770 l 1,11,12
 132 761 132 761 151 740.5 c 128,-1,13
 170 720 170 720 170 702 c 2,14,-1
 170 446 l 2,15,16
 170 416 170 416 194 394 c 128,-1,17
 218 372 218 372 241 367 c 1,18,-1
 241 345 l 1,19,20
 218 340 218 340 194 318 c 128,-1,21
 170 296 170 296 170 266 c 2,22,-1
 170 23 l 2,23,24
 170 5 170 5 155 -12 c 128,-1,25
 140 -29 140 -29 125 -37 c 2,26,-1
 110 -45 l 1,27,-1
 -1 2 l 1,28,-1
 -1 24 l 1,29,30
 22 29 22 29 46 51 c 128,-1,31
 70 73 70 73 70 103 c 2,0,-1
EndSplineSet
EndChar

StartChar: asciitilde
Encoding: 126 126 99
Width: 370
GlyphClass: 2
Flags: W
LayerCount: 2
Fore
SplineSet
282 630 m 0,0,1
 257 630 257 630 211.5 644.5 c 128,-1,2
 166 659 166 659 142 659 c 128,-1,3
 118 659 118 659 101 651 c 128,-1,4
 84 643 84 643 79 632 c 1,5,-1
 58 632 l 1,6,-1
 20 705 l 1,7,8
 51 745 51 745 83 745 c 128,-1,9
 115 745 115 745 165 731.5 c 128,-1,10
 215 718 215 718 231 718 c 0,11,12
 281 718 281 718 291 743 c 1,13,-1
 311 743 l 1,14,-1
 350 670 l 1,15,16
 319 630 319 630 282 630 c 0,0,1
EndSplineSet
EndChar

StartChar: exclamdown
Encoding: 161 161 101
Width: 220
GlyphClass: 2
Flags: W
LayerCount: 2
Fore
SplineSet
170 391 m 2,0,-1
 170 -31 l 2,1,2
 170 -92 170 -92 211 -100 c 1,3,-1
 211 -122 l 1,4,-1
 110 -179 l 1,5,6
 88 -170 88 -170 69 -149.5 c 128,-1,7
 50 -129 50 -129 50 -111 c 2,8,-1
 50 311 l 2,9,10
 50 372 50 372 9 380 c 1,11,-1
 9 402 l 1,12,-1
 110 459 l 1,13,14
 132 450 132 450 151 429.5 c 128,-1,15
 170 409 170 409 170 391 c 2,0,-1
35 574 m 2,16,-1
 35 635 l 2,17,18
 35 638 35 638 76.5 653.5 c 128,-1,19
 118 669 118 669 124.5 669 c 128,-1,20
 131 669 131 669 143.5 652 c 128,-1,21
 156 635 156 635 156 617 c 2,22,-1
 156 544 l 2,23,24
 156 541 156 541 116 525.5 c 128,-1,25
 76 510 76 510 67 510 c 128,-1,26
 58 510 58 510 46.5 527.5 c 128,-1,27
 35 545 35 545 35 574 c 2,16,-1
EndSplineSet
EndChar

StartChar: cent
Encoding: 162 162 102
Width: 404
GlyphClass: 2
Flags: W
LayerCount: 2
Fore
SplineSet
188 473 m 0,0,1
 178 473 178 473 170 463 c 1,2,-1
 170 187 l 2,3,4
 170 110 170 110 236 92 c 1,5,6
 270 84 270 84 317 84 c 1,7,-1
 317 55 l 1,8,9
 289 45 289 45 255 34 c 1,10,-1
 255 -59 l 1,11,-1
 197 -119 l 1,12,-1
 175 -119 l 1,13,-1
 175 9 l 1,14,15
 148 0 148 0 142 0 c 0,16,17
 112 0 112 0 81 42.5 c 128,-1,18
 50 85 50 85 50 142 c 2,19,-1
 50 478 l 2,20,21
 50 483 50 483 148 521 c 1,22,-1
 148 618 l 1,23,-1
 204 678 l 1,24,-1
 228 678 l 1,25,-1
 228 550 l 1,26,27
 283 570 283 570 296 570 c 0,28,29
 302 570 302 570 310 541 c 128,-1,30
 318 512 318 512 328.5 471 c 128,-1,31
 339 430 339 430 350.5 410.5 c 128,-1,32
 362 391 362 391 394 391 c 1,33,-1
 394 371 l 1,34,35
 372 361 372 361 319.5 335.5 c 128,-1,36
 267 310 267 310 263 310 c 0,37,38
 248 310 248 310 225 391.5 c 128,-1,39
 202 473 202 473 188 473 c 0,0,1
EndSplineSet
EndChar

StartChar: sterling
Encoding: 163 163 103
Width: 404
GlyphClass: 2
Flags: W
LayerCount: 2
Fore
SplineSet
188 673 m 0,0,1
 178 673 178 673 170 663 c 1,2,-1
 170 399 l 1,3,-1
 311 399 l 1,4,-1
 311 375 l 1,5,-1
 261 350 l 1,6,-1
 170 350 l 1,7,-1
 170 250 l 2,8,9
 170 139 170 139 192 120 c 0,10,11
 225 92 225 92 264 88 c 128,-1,12
 303 84 303 84 348 84 c 1,13,-1
 348 55 l 1,14,15
 343 55 343 55 274 27.5 c 128,-1,16
 205 0 205 0 190.5 0 c 128,-1,17
 176 0 176 0 148 15.5 c 128,-1,18
 120 31 120 31 96 56 c 1,19,20
 -39 0 -39 0 -57 0 c 0,21,22
 -66 0 -66 0 -71 9.5 c 128,-1,23
 -76 19 -76 19 -79 25 c 0,24,25
 -87 41 -87 41 -94.5 56 c 128,-1,26
 -102 71 -102 71 -111.5 79 c 128,-1,27
 -121 87 -121 87 -133 89 c 1,28,-1
 -133 109 l 1,29,30
 -115 117 -115 117 -88 132 c 0,31,32
 -27 165 -27 165 -20 165 c 0,33,34
 -8 165 -8 165 5.5 121 c 128,-1,35
 19 77 19 77 31 77 c 0,36,37
 50 77 50 77 50 106 c 2,38,-1
 50 349 l 1,39,-1
 -31 349 l 1,40,-1
 -31 374 l 1,41,-1
 19 399 l 1,42,-1
 50 399 l 1,43,-1
 50 678 l 2,44,45
 50 685 50 685 164.5 727.5 c 128,-1,46
 279 770 279 770 296 770 c 0,47,48
 302 770 302 770 310 741 c 128,-1,49
 318 712 318 712 328.5 671 c 128,-1,50
 339 630 339 630 350.5 610.5 c 128,-1,51
 362 591 362 591 394 591 c 1,52,-1
 394 571 l 1,53,54
 372 561 372 561 319.5 535.5 c 128,-1,55
 267 510 267 510 263 510 c 0,56,57
 248 510 248 510 225 591.5 c 128,-1,58
 202 673 202 673 188 673 c 0,0,1
EndSplineSet
EndChar

StartChar: currency
Encoding: 164 164 104
Width: 431
GlyphClass: 2
Flags: W
LayerCount: 2
Fore
SplineSet
345 94 m 1,0,-1
 304 134 l 1,1,2
 171 79 171 79 140 79 c 0,3,4
 124 79 124 79 105 96 c 1,5,-1
 73 64 l 1,6,-1
 -8 64 l 1,7,-1
 -8 95 l 1,8,-1
 60 163 l 1,9,10
 50 189 50 189 50 225 c 2,11,-1
 50 388 l 1,12,-1
 -1 440 l 1,13,-1
 -1 474 l 1,14,-1
 78 474 l 1,15,-1
 128 424 l 1,16,17
 270 480 270 480 294 480 c 0,18,19
 303 480 303 480 321 465 c 1,20,-1
 350 494 l 1,21,-1
 429 494 l 1,22,-1
 429 460 l 1,23,-1
 371 402 l 1,24,25
 381 380 381 380 381 365 c 2,26,-1
 381 172 l 2,27,28
 381 170 381 170 426 125 c 1,29,-1
 426 94 l 1,30,-1
 345 94 l 1,0,-1
221 171 m 0,31,32
 240 171 240 171 260 187 c 1,33,-1
 260 313 l 2,34,35
 260 387 260 387 209 387 c 0,36,37
 189 387 189 387 170 372 c 1,38,-1
 170 245 l 2,39,40
 170 171 170 171 221 171 c 0,31,32
EndSplineSet
EndChar

StartChar: yen
Encoding: 165 165 105
Width: 431
GlyphClass: 2
Flags: W
LayerCount: 2
Fore
SplineSet
51 455 m 1,0,-1
 51 623 l 2,1,2
 51 678 51 678 2 688 c 1,3,-1
 2 710 l 1,4,-1
 111 771 l 1,5,6
 133 762 133 762 152 741.5 c 128,-1,7
 171 721 171 721 171 703 c 2,8,-1
 171 432 l 2,9,10
 171 362 171 362 193 338.5 c 128,-1,11
 215 315 215 315 261 315 c 1,12,-1
 261 600 l 2,13,14
 261 654 261 654 221 654 c 1,15,-1
 221 685 l 1,16,-1
 426 770 l 1,17,-1
 442 739 l 1,18,19
 421 739 421 739 402 716 c 0,20,21
 381 692 381 692 381 637 c 2,22,-1
 381 455 l 1,23,-1
 461 455 l 1,24,-1
 461 431 l 1,25,-1
 401 376 l 1,26,-1
 381 376 l 1,27,-1
 381 299 l 1,28,-1
 461 299 l 1,29,-1
 461 275 l 1,30,-1
 401 220 l 1,31,-1
 381 220 l 1,32,-1
 381 145 l 2,33,34
 381 90 381 90 324.5 45 c 128,-1,35
 268 0 268 0 238 0 c 0,36,37
 213 0 213 0 116 42 c 2,38,-1
 83 56 l 1,39,-1
 83 84 l 1,40,41
 179 84 179 84 208 102 c 0,42,43
 221 110 221 110 230.5 116 c 128,-1,44
 240 122 240 122 245.5 137 c 128,-1,45
 251 152 251 152 254.5 161 c 128,-1,46
 258 170 258 170 259 192 c 0,47,48
 261 238 261 238 261 273 c 1,49,50
 148 220 148 220 131 220 c 2,51,-1
 -34 220 l 1,52,-1
 -34 242 l 1,53,-1
 26 299 l 1,54,-1
 58 299 l 1,55,56
 51 320 51 320 51 348 c 2,57,-1
 51 376 l 1,58,-1
 -29 376 l 1,59,-1
 -29 398 l 1,60,-1
 31 455 l 1,61,-1
 51 455 l 1,0,-1
EndSplineSet
EndChar

StartChar: brokenbar
Encoding: 166 166 106
Width: 180
GlyphClass: 2
Flags: W
LayerCount: 2
Fore
SplineSet
50 325 m 1,0,-1
 50 699 l 1,1,-1
 106 759 l 1,2,-1
 130 759 l 1,3,-1
 130 385 l 1,4,-1
 72 325 l 1,5,-1
 50 325 l 1,0,-1
50 -170 m 1,6,-1
 50 204 l 1,7,-1
 106 264 l 1,8,-1
 130 264 l 1,9,-1
 130 -110 l 1,10,-1
 72 -170 l 1,11,-1
 50 -170 l 1,6,-1
EndSplineSet
EndChar

StartChar: section
Encoding: 167 167 107
Width: 433
GlyphClass: 2
Flags: W
LayerCount: 2
Fore
SplineSet
188 693 m 0,0,1
 174 693 174 693 172 665 c 1,2,-1
 172 560 l 2,3,4
 172 520 172 520 190 520 c 0,5,6
 195 520 195 520 251 546 c 128,-1,7
 307 572 307 572 323 572 c 0,8,9
 349 572 349 572 364 535 c 128,-1,10
 379 498 379 498 381 461 c 2,11,-1
 383 424 l 1,12,-1
 383 354 l 2,13,14
 383 345 383 345 355 328 c 0,15,16
 346 322 346 322 345 322 c 1,17,18
 362 306 362 306 371.5 278 c 128,-1,19
 381 250 381 250 382 230 c 2,20,-1
 383 209 l 1,21,-1
 383 112 l 2,22,23
 383 96 383 96 268.5 48 c 128,-1,24
 154 0 154 0 137 0 c 0,25,26
 124 0 124 0 105 41 c 128,-1,27
 86 82 86 82 82 89 c 128,-1,28
 78 96 78 96 69.5 102 c 128,-1,29
 61 108 61 108 50 110 c 1,30,-1
 50 130 l 1,31,32
 68 137 68 137 94 152 c 0,33,34
 156 186 156 186 162 186 c 0,35,36
 174 186 174 186 198 132 c 128,-1,37
 222 78 222 78 234 78 c 128,-1,38
 246 78 246 78 253 85 c 128,-1,39
 260 92 260 92 263 105 c 1,40,-1
 263 210 l 2,41,42
 263 258 263 258 237 258 c 0,43,44
 232 258 232 258 176 234 c 128,-1,45
 120 210 120 210 112 210 c 0,46,47
 88 210 88 210 73 237.5 c 128,-1,48
 58 265 58 265 55 292 c 2,49,-1
 52 320 l 1,50,-1
 52 416 l 2,51,52
 52 428 52 428 78 444 c 0,53,54
 84 447 84 447 92 452 c 1,55,56
 52 482 52 482 52 575 c 2,57,-1
 52 659 l 2,58,59
 52 677 52 677 156 723.5 c 128,-1,60
 260 770 260 770 278 770 c 0,61,62
 288 770 288 770 296.5 756.5 c 128,-1,63
 305 743 305 743 309 737 c 128,-1,64
 313 731 313 731 320 717 c 128,-1,65
 327 703 327 703 331.5 695 c 128,-1,66
 336 687 336 687 345 680 c 128,-1,67
 354 673 354 673 365 671 c 1,68,-1
 365 651 l 1,69,70
 263 595 263 595 253 595 c 0,71,72
 236 595 236 595 216 659 c 0,73,74
 205 693 205 693 188 693 c 0,0,1
223 297 m 0,75,76
 242 297 242 297 262 313 c 1,77,-1
 262 400 l 2,78,79
 262 474 262 474 211 474 c 0,80,81
 193 474 193 474 172 459 c 1,82,-1
 172 371 l 2,83,84
 172 297 172 297 223 297 c 0,75,76
EndSplineSet
EndChar

StartChar: dieresis
Encoding: 168 168 108
Width: 388
GlyphClass: 2
Flags: W
LayerCount: 2
Fore
SplineSet
36 688 m 2,0,-1
 36 742 l 2,1,2
 36 745 36 745 73.5 759 c 128,-1,3
 111 773 111 773 117 773 c 128,-1,4
 123 773 123 773 134 758 c 128,-1,5
 145 743 145 743 145 726 c 2,6,-1
 145 661 l 2,7,8
 145 658 145 658 109.5 644 c 128,-1,9
 74 630 74 630 65.5 630 c 128,-1,10
 57 630 57 630 46.5 646 c 128,-1,11
 36 662 36 662 36 688 c 2,0,-1
243 688 m 2,12,-1
 243 742 l 2,13,14
 243 745 243 745 280.5 759 c 128,-1,15
 318 773 318 773 324 773 c 128,-1,16
 330 773 330 773 341 758 c 128,-1,17
 352 743 352 743 352 726 c 2,18,-1
 352 661 l 2,19,20
 352 658 352 658 316.5 644 c 128,-1,21
 281 630 281 630 272.5 630 c 128,-1,22
 264 630 264 630 253.5 646 c 128,-1,23
 243 662 243 662 243 688 c 2,12,-1
EndSplineSet
EndChar

StartChar: copyright
Encoding: 169 169 109
Width: 560
GlyphClass: 2
Flags: W
LayerCount: 2
Fore
SplineSet
287 346.5 m 128,-1,1
 270 406 270 406 261 406 c 128,-1,2
 252 406 252 406 247 399 c 1,3,-1
 247 277 l 2,4,5
 247 244 247 244 265 226 c 128,-1,6
 283 208 283 208 303 204.5 c 128,-1,7
 323 201 323 201 354 201 c 1,8,-1
 354 180 l 1,9,10
 234 140 234 140 226 140 c 0,11,12
 204 140 204 140 181.5 171.5 c 128,-1,13
 159 203 159 203 159 244 c 2,14,-1
 159 410 l 2,15,16
 159 415 159 415 237.5 446 c 128,-1,17
 316 477 316 477 329 477 c 0,18,19
 334 477 334 477 340 456 c 0,20,21
 360 376 360 376 369 360 c 0,22,23
 378 346 378 346 401 346 c 1,24,-1
 401 331 l 1,25,26
 384 325 384 325 351 306 c 128,-1,27
 318 287 318 287 315 287 c 0,28,0
 304 287 304 287 287 346.5 c 128,-1,1
49 146 m 2,29,-1
 49 525 l 2,30,31
 49 532 49 532 223 574.5 c 128,-1,32
 397 617 397 617 419 617 c 128,-1,33
 441 617 441 617 475.5 576 c 128,-1,34
 510 535 510 535 510 502 c 2,35,-1
 510 93 l 2,36,37
 510 85 510 85 341 42.5 c 128,-1,38
 172 0 172 0 142 0 c 128,-1,39
 112 0 112 0 80.5 43 c 128,-1,40
 49 86 49 86 49 146 c 2,29,-1
459 450 m 2,41,42
 459 523 459 523 447.5 543.5 c 128,-1,43
 436 564 436 564 398 564 c 0,44,45
 326 564 326 564 155 514 c 1,46,-1
 99 497 l 1,47,-1
 99 166 l 2,48,49
 99 96 99 96 114 77 c 128,-1,50
 129 58 129 58 176.5 58 c 128,-1,51
 224 58 224 58 296 73.5 c 128,-1,52
 368 89 368 89 414 105 c 2,53,-1
 459 121 l 1,54,-1
 459 450 l 2,41,42
EndSplineSet
EndChar

StartChar: ordfeminine
Encoding: 170 170 110
Width: 331
GlyphClass: 2
Flags: W
LayerCount: 2
Fore
SplineSet
272 691 m 2,0,-1
 272 549 l 2,1,2
 272 524 272 524 280.5 515 c 128,-1,3
 289 506 289 506 306 502 c 1,4,-1
 306 487 l 1,5,-1
 232 445 l 1,6,7
 192 464 192 464 192 491 c 1,8,-1
 108 445 l 1,9,10
 86 456 86 456 68 479.5 c 128,-1,11
 50 503 50 503 50 525 c 2,12,-1
 50 588 l 2,13,14
 50 598 50 598 85.5 614.5 c 128,-1,15
 121 631 121 631 156 642 c 2,16,-1
 192 654 l 1,17,18
 192 712 192 712 93 712 c 1,19,-1
 93 733 l 1,20,21
 197 770 197 770 215 770 c 128,-1,22
 233 770 233 770 252.5 745.5 c 128,-1,23
 272 721 272 721 272 691 c 2,0,-1
141.5 521 m 128,-1,25
 152 510 152 510 164.5 510 c 128,-1,26
 177 510 177 510 192 521 c 1,27,-1
 192 623 l 1,28,29
 143 606 143 606 135 582 c 0,30,31
 131 571 131 571 131 554 c 2,32,-1
 131 550 l 2,33,24
 131 532 131 532 141.5 521 c 128,-1,25
EndSplineSet
EndChar

StartChar: guillemotleft
Encoding: 171 171 111
Width: 601
GlyphClass: 2
Flags: W
LayerCount: 2
Fore
SplineSet
269 96 m 1,0,-1
 20 247 l 1,1,-1
 28 277 l 1,2,-1
 20 307 l 1,3,-1
 269 458 l 1,4,-1
 281 437 l 1,5,-1
 267 369 l 1,6,-1
 100 277 l 1,7,-1
 267 188 l 1,8,-1
 281 117 l 1,9,-1
 269 96 l 1,0,-1
549 96 m 1,10,-1
 300 247 l 1,11,-1
 308 277 l 1,12,-1
 300 307 l 1,13,-1
 549 458 l 1,14,-1
 561 437 l 1,15,-1
 547 369 l 1,16,-1
 380 277 l 1,17,-1
 547 188 l 1,18,-1
 561 117 l 1,19,-1
 549 96 l 1,10,-1
EndSplineSet
EndChar

StartChar: logicalnot
Encoding: 172 172 112
Width: 381
GlyphClass: 2
Flags: W
LayerCount: 2
Fore
SplineSet
271 146 m 1,0,-1
 271 261 l 1,1,-1
 30 261 l 1,2,-1
 30 283 l 1,3,-1
 90 340 l 1,4,-1
 326 340 l 2,5,6
 344 340 344 340 347.5 337 c 128,-1,7
 351 334 351 334 351 316 c 2,8,-1
 351 206 l 1,9,-1
 293 146 l 1,10,-1
 271 146 l 1,0,-1
EndSplineSet
EndChar

StartChar: uni00AD
Encoding: 173 173 113
Width: 381
GlyphClass: 2
Flags: W
LayerCount: 2
Fore
SplineSet
271 146 m 1,0,-1
 271 261 l 1,1,-1
 30 261 l 1,2,-1
 30 283 l 1,3,-1
 90 340 l 1,4,-1
 326 340 l 2,5,6
 344 340 344 340 347.5 337 c 128,-1,7
 351 334 351 334 351 316 c 2,8,-1
 351 206 l 1,9,-1
 293 146 l 1,10,-1
 271 146 l 1,0,-1
EndSplineSet
EndChar

StartChar: registered
Encoding: 174 174 114
Width: 560
GlyphClass: 2
Flags: W
LayerCount: 2
Fore
SplineSet
49 146 m 2,0,-1
 49 525 l 2,1,2
 49 532 49 532 223 574.5 c 128,-1,3
 397 617 397 617 419 617 c 128,-1,4
 441 617 441 617 475.5 576 c 128,-1,5
 510 535 510 535 510 502 c 2,6,-1
 510 93 l 2,7,8
 510 85 510 85 341 42.5 c 128,-1,9
 172 0 172 0 142 0 c 128,-1,10
 112 0 112 0 80.5 43 c 128,-1,11
 49 86 49 86 49 146 c 2,0,-1
459 450 m 2,12,13
 459 523 459 523 447.5 543.5 c 128,-1,14
 436 564 436 564 398 564 c 0,15,16
 326 564 326 564 155 514 c 1,17,-1
 99 497 l 1,18,-1
 99 166 l 2,19,20
 99 96 99 96 114 77 c 128,-1,21
 129 58 129 58 176.5 58 c 128,-1,22
 224 58 224 58 296 73.5 c 128,-1,23
 368 89 368 89 414 105 c 2,24,-1
 459 121 l 1,25,-1
 459 450 l 2,12,13
279 410 m 0,26,27
 264 410 264 410 252 400 c 1,28,-1
 252 297 l 1,29,30
 269 297 269 297 291.5 308.5 c 128,-1,31
 314 320 314 320 314 333 c 2,32,-1
 314 359 l 2,33,34
 314 410 314 410 279 410 c 0,26,27
168 214 m 2,35,-1
 168 373 l 2,36,37
 168 414 168 414 141 421 c 1,38,-1
 141 437 l 1,39,-1
 210 477 l 1,40,41
 251 456 251 456 252 430 c 1,42,43
 326 477 326 477 338 477 c 128,-1,44
 350 477 350 477 374 448 c 128,-1,45
 398 419 398 419 398 397 c 2,46,-1
 398 325 l 2,47,48
 398 320 398 320 323 290 c 1,49,50
 346 205 346 205 437 205 c 1,51,-1
 437 184 l 1,52,53
 372 143 372 143 352 143 c 128,-1,54
 332 143 332 143 297 194.5 c 128,-1,55
 262 246 262 246 260 267 c 1,56,-1
 252 265 l 1,57,-1
 252 250 l 2,58,59
 252 224 252 224 257.5 213 c 128,-1,60
 263 202 263 202 280 202 c 1,61,-1
 280 180 l 1,62,-1
 138 121 l 1,63,-1
 127 143 l 1,64,65
 142 143 142 143 155 161 c 128,-1,66
 168 179 168 179 168 214 c 2,35,-1
EndSplineSet
EndChar

StartChar: macron
Encoding: 175 175 115
Width: 370
GlyphClass: 2
Flags: W
LayerCount: 2
Fore
SplineSet
350 699 m 1,0,-1
 350 675 l 1,1,-1
 300 630 l 1,2,-1
 29 630 l 1,3,-1
 29 652 l 1,4,-1
 79 699 l 1,5,-1
 350 699 l 1,0,-1
EndSplineSet
EndChar

StartChar: degree
Encoding: 176 176 116
Width: 316
GlyphClass: 2
Flags: W
LayerCount: 2
Fore
SplineSet
50 607 m 2,0,-1
 50 709 l 2,1,2
 50 714 50 714 123.5 742 c 128,-1,3
 197 770 197 770 209 770 c 128,-1,4
 221 770 221 770 243.5 743 c 128,-1,5
 266 716 266 716 266 695 c 2,6,-1
 266 572 l 2,7,8
 266 567 266 567 194.5 539.5 c 128,-1,9
 123 512 123 512 106.5 512 c 128,-1,10
 90 512 90 512 70 540 c 128,-1,11
 50 568 50 568 50 607 c 2,0,-1
161 572 m 0,12,13
 174 572 174 572 186 584 c 1,14,-1
 186 661 l 2,15,16
 186 709 186 709 154 709 c 0,17,18
 138 709 138 709 129 698 c 1,19,-1
 129 620 l 2,20,21
 129 572 129 572 161 572 c 0,12,13
EndSplineSet
EndChar

StartChar: plusminus
Encoding: 177 177 117
Width: 421
GlyphClass: 2
Flags: W
LayerCount: 2
Fore
SplineSet
391 163 m 1,0,-1
 391 139 l 1,1,-1
 331 84 l 1,2,-1
 30 84 l 1,3,-1
 30 106 l 1,4,-1
 90 163 l 1,5,-1
 391 163 l 1,0,-1
250 571 m 1,6,-1
 250 431 l 1,7,-1
 391 431 l 1,8,-1
 391 407 l 1,9,-1
 331 352 l 1,10,-1
 250 352 l 1,11,-1
 250 270 l 1,12,-1
 195 210 l 1,13,-1
 171 210 l 1,14,-1
 171 352 l 1,15,-1
 30 352 l 1,16,-1
 30 374 l 1,17,-1
 90 431 l 1,18,-1
 171 431 l 1,19,-1
 171 511 l 1,20,-1
 228 571 l 1,21,-1
 250 571 l 1,6,-1
EndSplineSet
EndChar

StartChar: twosuperior
Encoding: 178 178 118
Width: 310
GlyphClass: 2
Flags: W
LayerCount: 2
Fore
SplineSet
149 716 m 0,0,1
 139 716 139 716 123 702 c 1,2,-1
 123 668 l 2,3,4
 123 651 123 651 117.5 645 c 128,-1,5
 112 639 112 639 102 635 c 2,6,-1
 41 607 l 1,7,-1
 31 617 l 1,8,9
 50 638 50 638 50 660 c 2,10,-1
 50 708 l 2,11,12
 50 712 50 712 121 741 c 128,-1,13
 192 770 192 770 204.5 770 c 128,-1,14
 217 770 217 770 238.5 740 c 128,-1,15
 260 710 260 710 260 693 c 2,16,-1
 260 627 l 2,17,18
 260 608 260 608 228 577 c 128,-1,19
 196 546 196 546 164 525 c 2,20,-1
 132 504 l 1,21,-1
 191 504 l 2,22,23
 201 504 201 504 216.5 513.5 c 128,-1,24
 232 523 232 523 238 537 c 1,25,26
 244 536 244 536 247 536 c 2,27,-1
 250 536 l 1,28,-1
 289 482 l 1,29,30
 272 449 272 449 238 449 c 2,31,-1
 47 449 l 1,32,33
 33 486 33 486 33 512 c 0,34,35
 33 524 33 524 106.5 573 c 128,-1,36
 180 622 180 622 180 632 c 2,37,-1
 180 658 l 2,38,39
 180 716 180 716 149 716 c 0,0,1
EndSplineSet
EndChar

StartChar: threesuperior
Encoding: 179 179 119
Width: 310
GlyphClass: 2
Flags: W
LayerCount: 2
Fore
SplineSet
147 595 m 0,0,1
 129 595 129 595 99 581 c 1,2,-1
 92 606 l 1,3,4
 145 634 145 634 180 649 c 1,5,-1
 180 677 l 2,6,7
 180 698 180 698 171.5 709 c 128,-1,8
 163 720 163 720 151.5 720 c 128,-1,9
 140 720 140 720 131.5 711 c 128,-1,10
 123 702 123 702 123 689 c 2,11,-1
 123 672 l 2,12,13
 123 664 123 664 118 660 c 128,-1,14
 113 656 113 656 92 646 c 2,15,-1
 43 622 l 1,16,-1
 33 631 l 1,17,18
 50 650 50 650 50 675 c 2,19,-1
 50 706 l 2,20,21
 50 710 50 710 121 740 c 128,-1,22
 192 770 192 770 203.5 770 c 128,-1,23
 215 770 215 770 237.5 748 c 128,-1,24
 260 726 260 726 260 705 c 2,25,-1
 260 660 l 2,26,27
 260 650 260 650 225 632 c 1,28,29
 259 603 259 603 259 579 c 2,30,-1
 259 512 l 2,31,32
 259 498 259 498 184.5 471.5 c 128,-1,33
 110 445 110 445 88 445 c 0,34,35
 80 445 80 445 75.5 454 c 128,-1,36
 71 463 71 463 67 477.5 c 128,-1,37
 63 492 63 492 60 499 c 1,38,39
 55 506 55 506 33 510 c 1,40,-1
 33 523 l 1,41,42
 101 552 101 552 119 552 c 0,43,44
 122 552 122 552 122 520 c 0,45,46
 122 492 122 492 154 492 c 0,47,48
 180 492 180 492 180 533 c 2,49,-1
 180 545 l 2,50,51
 180 595 180 595 147 595 c 0,0,1
EndSplineSet
EndChar

StartChar: acute
Encoding: 180 180 120
Width: 181
GlyphClass: 2
Flags: W
LayerCount: 2
Fore
SplineSet
69 796 m 0,0,1
 75 806 75 806 118 806 c 128,-1,2
 161 806 161 806 161 787 c 0,3,4
 161 759 161 759 71 643 c 0,5,6
 61 631 61 631 36 631 c 0,7,8
 29 631 29 631 24.5 647 c 128,-1,9
 20 663 20 663 20 678 c 128,-1,10
 20 693 20 693 36 731 c 128,-1,11
 52 769 52 769 69 796 c 0,0,1
EndSplineSet
EndChar

StartChar: mu
Encoding: 181 181 121
Width: 430
GlyphClass: 2
Flags: W
LayerCount: 2
Fore
SplineSet
185.5 113.5 m 128,-1,1
 201 97 201 97 220 97 c 128,-1,2
 239 97 239 97 260 112 c 1,3,-1
 260 423 l 2,4,5
 260 484 260 484 219 492 c 1,6,-1
 219 514 l 1,7,-1
 320 571 l 1,8,9
 342 562 342 562 361 541.5 c 128,-1,10
 380 521 380 521 380 503 c 2,11,-1
 380 164 l 2,12,13
 380 131 380 131 394 107 c 128,-1,14
 408 83 408 83 429 83 c 1,15,-1
 429 61 l 1,16,17
 422 60 422 60 320 0 c 1,18,19
 297 10 297 10 278.5 29.5 c 128,-1,20
 260 49 260 49 260 67 c 1,21,-1
 170 19 l 1,22,-1
 170 -12 l 2,23,24
 170 -39 170 -39 179 -50.5 c 128,-1,25
 188 -62 188 -62 210 -62 c 1,26,-1
 210 -90 l 1,27,28
 7 -179 7 -179 6 -179 c 2,29,-1
 -10 -147 l 1,30,31
 -2 -147 -2 -147 9.5 -140 c 128,-1,32
 21 -133 21 -133 29 -124 c 0,33,34
 50 -100 50 -100 50 -51 c 2,35,-1
 50 423 l 2,36,37
 50 478 50 478 1 488 c 1,38,-1
 1 510 l 1,39,-1
 110 571 l 1,40,41
 132 562 132 562 151 541.5 c 128,-1,42
 170 521 170 521 170 503 c 2,43,-1
 170 156 l 2,44,0
 170 130 170 130 185.5 113.5 c 128,-1,1
EndSplineSet
EndChar

StartChar: paragraph
Encoding: 182 182 122
Width: 431
GlyphClass: 2
Flags: W
LayerCount: 2
Fore
SplineSet
216 136 m 2,0,-1
 216 222 l 1,1,2
 153 199 153 199 140 199 c 0,3,4
 113 199 113 199 81.5 242 c 128,-1,5
 50 285 50 285 50 345 c 2,6,-1
 50 659 l 2,7,8
 50 689 50 689 278 752 c 1,9,-1
 278 -7 l 1,10,-1
 176 -50 l 1,11,-1
 160 -18 l 1,12,13
 193 -18 193 -18 204.5 23.5 c 128,-1,14
 216 65 216 65 216 136 c 2,0,-1
319 763 m 1,15,16
 343 770 343 770 352.5 770 c 128,-1,17
 362 770 362 770 368.5 763.5 c 128,-1,18
 375 757 375 757 378 742 c 0,19,20
 381 720 381 720 381 675 c 2,21,-1
 381 154 l 2,22,23
 381 114 381 114 388 104 c 0,24,25
 400 85 400 85 422 85 c 1,26,-1
 422 54 l 1,27,-1
 319 11 l 1,28,-1
 319 763 l 1,15,16
EndSplineSet
EndChar

StartChar: periodcentered
Encoding: 183 183 123
Width: 221
GlyphClass: 2
Flags: W
LayerCount: 2
Fore
SplineSet
50 261 m 2,0,-1
 50 322 l 2,1,2
 50 325 50 325 91.5 340.5 c 128,-1,3
 133 356 133 356 139.5 356 c 128,-1,4
 146 356 146 356 158.5 339 c 128,-1,5
 171 322 171 322 171 304 c 2,6,-1
 171 231 l 2,7,8
 171 228 171 228 131 212.5 c 128,-1,9
 91 197 91 197 82 197 c 128,-1,10
 73 197 73 197 61.5 214.5 c 128,-1,11
 50 232 50 232 50 261 c 2,0,-1
EndSplineSet
EndChar

StartChar: cedilla
Encoding: 184 184 124
Width: 198
GlyphClass: 2
Flags: W
LayerCount: 2
Fore
SplineSet
102 -83 m 1,0,-1
 44 -101 l 1,1,2
 35 -101 35 -101 27.5 -82.5 c 128,-1,3
 20 -64 20 -64 20 -46 c 0,4,5
 20 -10 20 -10 36 21 c 1,6,-1
 41 32 l 1,7,-1
 107 32 l 1,8,9
 93 -20 93 -20 93 -31.5 c 128,-1,10
 93 -43 93 -43 100 -43 c 1,11,-1
 154 -27 l 1,12,13
 164 -27 164 -27 171 -44 c 128,-1,14
 178 -61 178 -61 178 -85 c 2,15,-1
 178 -126 l 2,16,17
 178 -133 178 -133 119.5 -151 c 128,-1,18
 61 -169 61 -169 53 -169 c 0,19,20
 38 -169 38 -169 38 -148 c 0,21,22
 38 -144 38 -144 101 -123 c 0,23,24
 112 -119 112 -119 112 -111 c 2,25,-1
 112 -100 l 2,26,27
 112 -83 112 -83 102 -83 c 1,0,-1
EndSplineSet
EndChar

StartChar: onesuperior
Encoding: 185 185 125
Width: 180
GlyphClass: 2
Flags: W
LayerCount: 2
Fore
SplineSet
130 725 m 2,0,-1
 130 560 l 2,1,2
 130 526 130 526 156 526 c 1,3,-1
 156 508 l 1,4,5
 22 449 22 449 21 449 c 2,6,-1
 10 470 l 1,7,8
 25 470 25 470 37.5 488.5 c 128,-1,9
 50 507 50 507 50 534 c 2,10,-1
 50 672 l 2,11,12
 50 703 50 703 3 711 c 1,13,-1
 3 726 l 1,14,-1
 90 770 l 1,15,16
 130 751 130 751 130 725 c 2,0,-1
EndSplineSet
EndChar

StartChar: ordmasculine
Encoding: 186 186 126
Width: 316
GlyphClass: 2
Flags: W
LayerCount: 2
Fore
SplineSet
50 540 m 2,0,-1
 50 709 l 2,1,2
 50 714 50 714 123.5 742 c 128,-1,3
 197 770 197 770 209 770 c 128,-1,4
 221 770 221 770 243.5 743 c 128,-1,5
 266 716 266 716 266 695 c 2,6,-1
 266 505 l 2,7,8
 266 500 266 500 194.5 472.5 c 128,-1,9
 123 445 123 445 106.5 445 c 128,-1,10
 90 445 90 445 70 473 c 128,-1,11
 50 501 50 501 50 540 c 2,0,-1
161 505 m 0,12,13
 174 505 174 505 186 517 c 1,14,-1
 186 661 l 2,15,16
 186 709 186 709 154 709 c 0,17,18
 138 709 138 709 129 698 c 1,19,-1
 129 553 l 2,20,21
 129 505 129 505 161 505 c 0,12,13
EndSplineSet
EndChar

StartChar: guillemotright
Encoding: 187 187 127
Width: 601
GlyphClass: 2
Flags: W
LayerCount: 2
Fore
SplineSet
581 247 m 1,0,-1
 332 96 l 1,1,-1
 320 117 l 1,2,-1
 334 188 l 1,3,-1
 501 277 l 1,4,-1
 334 369 l 1,5,-1
 320 437 l 1,6,-1
 332 458 l 1,7,-1
 581 307 l 1,8,-1
 573 277 l 1,9,-1
 581 247 l 1,0,-1
301 247 m 1,10,-1
 52 96 l 1,11,-1
 40 117 l 1,12,-1
 54 188 l 1,13,-1
 221 277 l 1,14,-1
 54 369 l 1,15,-1
 40 437 l 1,16,-1
 52 458 l 1,17,-1
 301 307 l 1,18,-1
 293 277 l 1,19,-1
 301 247 l 1,10,-1
EndSplineSet
EndChar

StartChar: onehalf
Encoding: 189 189 128
Width: 645
GlyphClass: 2
Flags: W
LayerCount: 2
Fore
SplineSet
196 0 m 1,0,-1
 121 -38 l 1,1,-1
 99 -38 l 1,2,-1
 348 690 l 1,3,-1
 421 729 l 1,4,-1
 446 729 l 1,5,-1
 196 0 l 1,0,-1
555 88 m 2,6,7
 556 88 556 88 557 88 c 2,8,-1
 596 34 l 1,9,10
 586 17 586 17 573 9 c 128,-1,11
 560 1 560 1 545 1 c 2,12,-1
 354 1 l 1,13,-1
 350 11 l 1,14,15
 340 41 340 41 340 64 c 0,16,17
 340 76 340 76 413.5 125 c 128,-1,18
 487 174 487 174 487 184 c 2,19,-1
 487 210 l 2,20,21
 487 268 487 268 456 268 c 0,22,23
 444 268 444 268 430 254 c 1,24,-1
 430 220 l 2,25,26
 430 211 430 211 430 206 c 0,27,28
 428 195 428 195 409 187 c 2,29,-1
 348 159 l 1,30,-1
 338 169 l 1,31,32
 357 192 357 192 357 212 c 2,33,-1
 357 260 l 2,34,35
 357 264 357 264 428 293 c 128,-1,36
 499 322 499 322 511.5 322 c 128,-1,37
 524 322 524 322 545.5 292 c 128,-1,38
 567 262 567 262 567 245 c 2,39,-1
 567 179 l 2,40,41
 567 160 567 160 531.5 127 c 128,-1,42
 496 94 496 94 474.5 79.5 c 128,-1,43
 453 65 453 65 439 56 c 1,44,45
 439 56 439 56 498 56 c 0,46,47
 508 56 508 56 523.5 65.5 c 128,-1,48
 539 75 539 75 545 89 c 1,49,-1
 546 89 l 1,50,-1
 555 88 l 2,6,7
177 695 m 2,51,-1
 177 530 l 2,52,53
 177 496 177 496 203 496 c 1,54,-1
 203 478 l 1,55,56
 69 419 69 419 68 419 c 2,57,-1
 57 440 l 1,58,59
 72 440 72 440 84.5 458.5 c 128,-1,60
 97 477 97 477 97 504 c 2,61,-1
 97 642 l 2,62,63
 97 673 97 673 50 681 c 1,64,-1
 50 696 l 1,65,-1
 137 740 l 1,66,67
 177 721 177 721 177 695 c 2,51,-1
EndSplineSet
EndChar

StartChar: questiondown
Encoding: 191 191 129
Width: 411
GlyphClass: 2
Flags: W
LayerCount: 2
Fore
SplineSet
178.5 -77.5 m 128,-1,1
 187 -95 187 -95 206.5 -95 c 128,-1,2
 226 -95 226 -95 242 -75 c 1,3,-1
 242 7 l 2,4,5
 242 30 242 30 250 39 c 128,-1,6
 258 48 258 48 271 54 c 2,7,-1
 375 104 l 1,8,-1
 389 90 l 1,9,10
 362 60 362 60 362 26 c 2,11,-1
 362 -88 l 2,12,13
 362 -94 362 -94 256.5 -137 c 128,-1,14
 151 -180 151 -180 132.5 -180 c 128,-1,15
 114 -180 114 -180 82 -135.5 c 128,-1,16
 50 -91 50 -91 50 -67 c 2,17,-1
 50 106 l 2,18,19
 50 132 50 132 98 176 c 128,-1,20
 146 220 146 220 194 251 c 2,21,-1
 243 282 l 1,22,-1
 243 310 l 2,23,24
 243 341 243 341 232.5 358.5 c 128,-1,25
 222 376 222 376 212 378 c 2,26,-1
 201 380 l 1,27,-1
 201 402 l 1,28,29
 298 459 298 459 305 459 c 128,-1,30
 312 459 312 459 336.5 437 c 128,-1,31
 361 415 361 415 361 394 c 2,32,-1
 361 259 l 2,33,34
 361 248 361 248 295.5 208.5 c 128,-1,35
 230 169 230 169 200 143.5 c 128,-1,36
 170 118 170 118 170 100 c 2,37,-1
 170 -16 l 2,38,0
 170 -60 170 -60 178.5 -77.5 c 128,-1,1
362 606 m 2,39,-1
 362 545 l 2,40,41
 362 542 362 542 320.5 526.5 c 128,-1,42
 279 511 279 511 272.5 511 c 128,-1,43
 266 511 266 511 253.5 528 c 128,-1,44
 241 545 241 545 241 563 c 2,45,-1
 241 636 l 2,46,47
 241 639 241 639 281 654.5 c 128,-1,48
 321 670 321 670 330 670 c 128,-1,49
 339 670 339 670 350.5 652.5 c 128,-1,50
 362 635 362 635 362 606 c 2,39,-1
EndSplineSet
EndChar

StartChar: Agrave
Encoding: 192 192 130
Width: 431
GlyphClass: 2
Flags: W
LayerCount: 2
Fore
SplineSet
50 102 m 2,0,-1
 50 676 l 2,1,2
 50 683 50 683 164 725.5 c 128,-1,3
 278 768 278 768 295 768 c 128,-1,4
 312 768 312 768 346.5 727 c 128,-1,5
 381 686 381 686 381 653 c 2,6,-1
 381 391 l 1,7,-1
 430 391 l 1,8,-1
 430 367 l 1,9,-1
 381 342 l 1,10,-1
 381 148 l 2,11,12
 381 93 381 93 429 83 c 1,13,-1
 429 61 l 1,14,-1
 320 0 l 1,15,16
 298 9 298 9 279 29.5 c 128,-1,17
 260 50 260 50 260 68 c 2,18,-1
 260 342 l 1,19,-1
 170 342 l 1,20,-1
 170 154 l 2,21,22
 170 117 170 117 178 101 c 128,-1,23
 186 85 186 85 211 85 c 1,24,-1
 211 54 l 1,25,-1
 6 -32 l 1,26,-1
 -10 0 l 1,27,28
 12 0 12 0 32 26 c 0,29,30
 50 51 50 51 50 102 c 2,0,-1
209 675 m 0,31,32
 189 675 189 675 170 660 c 1,33,-1
 170 365 l 1,34,-1
 229 391 l 1,35,-1
 260 391 l 1,36,-1
 260 601 l 2,37,38
 260 675 260 675 209 675 c 0,31,32
210 911 m 128,-1,40
 226 873 226 873 226 858 c 128,-1,41
 226 843 226 843 223 832 c 0,42,43
 217 811 217 811 210 811 c 0,44,45
 185 811 185 811 175 823 c 0,46,47
 85 939 85 939 85 967 c 0,48,49
 85 986 85 986 128 986 c 128,-1,50
 171 986 171 986 177 976 c 0,51,39
 194 949 194 949 210 911 c 128,-1,40
EndSplineSet
EndChar

StartChar: Aacute
Encoding: 193 193 131
Width: 431
GlyphClass: 2
Flags: W
LayerCount: 2
Fore
SplineSet
50 102 m 2,0,-1
 50 676 l 2,1,2
 50 683 50 683 164 725.5 c 128,-1,3
 278 768 278 768 295 768 c 128,-1,4
 312 768 312 768 346.5 727 c 128,-1,5
 381 686 381 686 381 653 c 2,6,-1
 381 391 l 1,7,-1
 430 391 l 1,8,-1
 430 367 l 1,9,-1
 381 342 l 1,10,-1
 381 148 l 2,11,12
 381 93 381 93 429 83 c 1,13,-1
 429 61 l 1,14,-1
 320 0 l 1,15,16
 298 9 298 9 279 29.5 c 128,-1,17
 260 50 260 50 260 68 c 2,18,-1
 260 342 l 1,19,-1
 170 342 l 1,20,-1
 170 154 l 2,21,22
 170 117 170 117 178 101 c 128,-1,23
 186 85 186 85 211 85 c 1,24,-1
 211 54 l 1,25,-1
 6 -32 l 1,26,-1
 -10 0 l 1,27,28
 12 0 12 0 32 26 c 0,29,30
 50 51 50 51 50 102 c 2,0,-1
209 675 m 0,31,32
 189 675 189 675 170 660 c 1,33,-1
 170 365 l 1,34,-1
 229 391 l 1,35,-1
 260 391 l 1,36,-1
 260 601 l 2,37,38
 260 675 260 675 209 675 c 0,31,32
224 975 m 0,39,40
 230 985 230 985 273 985 c 128,-1,41
 316 985 316 985 316 966 c 0,42,43
 316 938 316 938 226 822 c 0,44,45
 216 810 216 810 191 810 c 0,46,47
 184 810 184 810 179.5 826 c 128,-1,48
 175 842 175 842 175 857 c 128,-1,49
 175 872 175 872 191 910 c 128,-1,50
 207 948 207 948 224 975 c 0,39,40
EndSplineSet
EndChar

StartChar: Acircumflex
Encoding: 194 194 132
Width: 431
GlyphClass: 2
Flags: W
LayerCount: 2
Fore
SplineSet
50 102 m 2,0,-1
 50 676 l 2,1,2
 50 683 50 683 164 725.5 c 128,-1,3
 278 768 278 768 295 768 c 128,-1,4
 312 768 312 768 346.5 727 c 128,-1,5
 381 686 381 686 381 653 c 2,6,-1
 381 391 l 1,7,-1
 430 391 l 1,8,-1
 430 367 l 1,9,-1
 381 342 l 1,10,-1
 381 148 l 2,11,12
 381 93 381 93 429 83 c 1,13,-1
 429 61 l 1,14,-1
 320 0 l 1,15,16
 298 9 298 9 279 29.5 c 128,-1,17
 260 50 260 50 260 68 c 2,18,-1
 260 342 l 1,19,-1
 170 342 l 1,20,-1
 170 154 l 2,21,22
 170 117 170 117 178 101 c 128,-1,23
 186 85 186 85 211 85 c 1,24,-1
 211 54 l 1,25,-1
 6 -32 l 1,26,-1
 -10 0 l 1,27,28
 12 0 12 0 32 26 c 0,29,30
 50 51 50 51 50 102 c 2,0,-1
209 675 m 0,31,32
 189 675 189 675 170 660 c 1,33,-1
 170 365 l 1,34,-1
 229 391 l 1,35,-1
 260 391 l 1,36,-1
 260 601 l 2,37,38
 260 675 260 675 209 675 c 0,31,32
342 904.5 m 128,-1,40
 383 864 383 864 383 853.5 c 128,-1,41
 383 843 383 843 380 832 c 0,42,43
 374 811 374 811 367 811 c 0,44,45
 355 811 355 811 308.5 841.5 c 128,-1,46
 262 872 262 872 215 910 c 1,47,48
 168 872 168 872 121.5 841.5 c 128,-1,49
 75 811 75 811 63 811 c 0,50,51
 56 811 56 811 51.5 827 c 128,-1,52
 47 843 47 843 47 850.5 c 128,-1,53
 47 858 47 858 55.5 868 c 128,-1,54
 64 878 64 878 78 892.5 c 128,-1,55
 92 907 92 907 106 920 c 0,56,57
 148 959 148 959 161.5 972.5 c 128,-1,58
 175 986 175 986 212.5 986 c 128,-1,59
 250 986 250 986 270 971 c 1,60,39
 301 945 301 945 342 904.5 c 128,-1,40
EndSplineSet
EndChar

StartChar: Atilde
Encoding: 195 195 133
Width: 431
GlyphClass: 2
Flags: W
LayerCount: 2
Fore
SplineSet
50 102 m 2,0,-1
 50 676 l 2,1,2
 50 683 50 683 164 725.5 c 128,-1,3
 278 768 278 768 295 768 c 128,-1,4
 312 768 312 768 346.5 727 c 128,-1,5
 381 686 381 686 381 653 c 2,6,-1
 381 391 l 1,7,-1
 430 391 l 1,8,-1
 430 367 l 1,9,-1
 381 342 l 1,10,-1
 381 148 l 2,11,12
 381 93 381 93 429 83 c 1,13,-1
 429 61 l 1,14,-1
 320 0 l 1,15,16
 298 9 298 9 279 29.5 c 128,-1,17
 260 50 260 50 260 68 c 2,18,-1
 260 342 l 1,19,-1
 170 342 l 1,20,-1
 170 154 l 2,21,22
 170 117 170 117 178 101 c 128,-1,23
 186 85 186 85 211 85 c 1,24,-1
 211 54 l 1,25,-1
 6 -32 l 1,26,-1
 -10 0 l 1,27,28
 12 0 12 0 32 26 c 0,29,30
 50 51 50 51 50 102 c 2,0,-1
209 675 m 0,31,32
 189 675 189 675 170 660 c 1,33,-1
 170 365 l 1,34,-1
 229 391 l 1,35,-1
 260 391 l 1,36,-1
 260 601 l 2,37,38
 260 675 260 675 209 675 c 0,31,32
312 810 m 0,39,40
 287 810 287 810 241.5 824.5 c 128,-1,41
 196 839 196 839 172 839 c 128,-1,42
 148 839 148 839 131 831 c 128,-1,43
 114 823 114 823 109 812 c 1,44,-1
 88 812 l 1,45,-1
 50 885 l 1,46,47
 81 925 81 925 113 925 c 128,-1,48
 145 925 145 925 195 911.5 c 128,-1,49
 245 898 245 898 261 898 c 0,50,51
 311 898 311 898 321 923 c 1,52,-1
 341 923 l 1,53,-1
 380 850 l 1,54,55
 349 810 349 810 312 810 c 0,39,40
EndSplineSet
EndChar

StartChar: Adieresis
Encoding: 196 196 134
Width: 431
GlyphClass: 2
Flags: W
LayerCount: 2
Fore
SplineSet
50 102 m 2,0,-1
 50 676 l 2,1,2
 50 683 50 683 164 725.5 c 128,-1,3
 278 768 278 768 295 768 c 128,-1,4
 312 768 312 768 346.5 727 c 128,-1,5
 381 686 381 686 381 653 c 2,6,-1
 381 391 l 1,7,-1
 430 391 l 1,8,-1
 430 367 l 1,9,-1
 381 342 l 1,10,-1
 381 148 l 2,11,12
 381 93 381 93 429 83 c 1,13,-1
 429 61 l 1,14,-1
 320 0 l 1,15,16
 298 9 298 9 279 29.5 c 128,-1,17
 260 50 260 50 260 68 c 2,18,-1
 260 342 l 1,19,-1
 170 342 l 1,20,-1
 170 154 l 2,21,22
 170 117 170 117 178 101 c 128,-1,23
 186 85 186 85 211 85 c 1,24,-1
 211 54 l 1,25,-1
 6 -32 l 1,26,-1
 -10 0 l 1,27,28
 12 0 12 0 32 26 c 0,29,30
 50 51 50 51 50 102 c 2,0,-1
209 675 m 0,31,32
 189 675 189 675 170 660 c 1,33,-1
 170 365 l 1,34,-1
 229 391 l 1,35,-1
 260 391 l 1,36,-1
 260 601 l 2,37,38
 260 675 260 675 209 675 c 0,31,32
57 868 m 2,39,-1
 57 922 l 2,40,41
 57 925 57 925 94.5 939 c 128,-1,42
 132 953 132 953 138 953 c 128,-1,43
 144 953 144 953 155 938 c 128,-1,44
 166 923 166 923 166 906 c 2,45,-1
 166 841 l 2,46,47
 166 838 166 838 130.5 824 c 128,-1,48
 95 810 95 810 86.5 810 c 128,-1,49
 78 810 78 810 67.5 826 c 128,-1,50
 57 842 57 842 57 868 c 2,39,-1
264 868 m 2,51,-1
 264 922 l 2,52,53
 264 925 264 925 301.5 939 c 128,-1,54
 339 953 339 953 345 953 c 128,-1,55
 351 953 351 953 362 938 c 128,-1,56
 373 923 373 923 373 906 c 2,57,-1
 373 841 l 2,58,59
 373 838 373 838 337.5 824 c 128,-1,60
 302 810 302 810 293.5 810 c 128,-1,61
 285 810 285 810 274.5 826 c 128,-1,62
 264 842 264 842 264 868 c 2,51,-1
EndSplineSet
EndChar

StartChar: Aring
Encoding: 197 197 135
Width: 431
GlyphClass: 2
Flags: W
LayerCount: 2
Fore
SplineSet
50 102 m 2,0,-1
 50 676 l 2,1,2
 50 683 50 683 164 725.5 c 128,-1,3
 278 768 278 768 295 768 c 128,-1,4
 312 768 312 768 346.5 727 c 128,-1,5
 381 686 381 686 381 653 c 2,6,-1
 381 391 l 1,7,-1
 430 391 l 1,8,-1
 430 367 l 1,9,-1
 381 342 l 1,10,-1
 381 148 l 2,11,12
 381 93 381 93 429 83 c 1,13,-1
 429 61 l 1,14,-1
 320 0 l 1,15,16
 298 9 298 9 279 29.5 c 128,-1,17
 260 50 260 50 260 68 c 2,18,-1
 260 342 l 1,19,-1
 170 342 l 1,20,-1
 170 154 l 2,21,22
 170 117 170 117 178 101 c 128,-1,23
 186 85 186 85 211 85 c 1,24,-1
 211 54 l 1,25,-1
 6 -32 l 1,26,-1
 -10 0 l 1,27,28
 12 0 12 0 32 26 c 0,29,30
 50 51 50 51 50 102 c 2,0,-1
209 675 m 0,31,32
 189 675 189 675 170 660 c 1,33,-1
 170 365 l 1,34,-1
 229 391 l 1,35,-1
 260 391 l 1,36,-1
 260 601 l 2,37,38
 260 675 260 675 209 675 c 0,31,32
141 872 m 2,39,-1
 141 934 l 2,40,41
 141 937 141 937 194 955 c 128,-1,42
 247 973 247 973 254 973 c 128,-1,43
 261 973 261 973 275.5 955.5 c 128,-1,44
 290 938 290 938 290 925 c 2,45,-1
 290 850 l 2,46,47
 290 847 290 847 239 829 c 128,-1,48
 188 811 188 811 177.5 811 c 128,-1,49
 167 811 167 811 154 828.5 c 128,-1,50
 141 846 141 846 141 872 c 2,39,-1
218 850 m 0,51,52
 227 850 227 850 229 856 c 1,53,-1
 229 903 l 2,54,55
 229 934 229 934 213 934 c 0,56,57
 205 934 205 934 201 928 c 1,58,-1
 201 881 l 2,59,60
 201 850 201 850 218 850 c 0,51,52
EndSplineSet
EndChar

StartChar: AE
Encoding: 198 198 136
Width: 606
GlyphClass: 2
Flags: W
LayerCount: 2
Fore
SplineSet
50 102 m 2,0,-1
 50 676 l 2,1,2
 50 683 50 683 164 725.5 c 128,-1,3
 278 768 278 768 296.5 768 c 128,-1,4
 315 768 315 768 353 719 c 1,5,6
 489 770 489 770 507 770 c 0,7,8
 513 770 513 770 521 741 c 128,-1,9
 529 712 529 712 539.5 671 c 128,-1,10
 550 630 550 630 561.5 610.5 c 128,-1,11
 573 591 573 591 605 591 c 1,12,-1
 605 571 l 1,13,14
 583 561 583 561 530.5 535.5 c 128,-1,15
 478 510 478 510 474 510 c 0,16,17
 459 510 459 510 436 591.5 c 128,-1,18
 413 673 413 673 399 673 c 0,19,20
 381 673 381 673 381 653 c 2,21,-1
 381 391 l 1,22,-1
 522 391 l 1,23,-1
 522 367 l 1,24,-1
 472 342 l 1,25,-1
 381 342 l 1,26,-1
 381 250 l 2,27,28
 381 139 381 139 404 120 c 0,29,30
 436 92 436 92 475 88 c 128,-1,31
 514 84 514 84 559 84 c 1,32,-1
 559 55 l 1,33,34
 554 55 554 55 485 27.5 c 128,-1,35
 416 0 416 0 401 0 c 0,36,37
 370 0 370 0 315.5 48 c 128,-1,38
 261 96 261 96 261 152 c 2,39,-1
 261 342 l 1,40,-1
 170 342 l 1,41,-1
 170 154 l 2,42,43
 170 117 170 117 178 101 c 128,-1,44
 186 85 186 85 211 85 c 1,45,-1
 211 54 l 1,46,-1
 6 -32 l 1,47,-1
 -10 0 l 1,48,49
 12 0 12 0 32 26 c 0,50,51
 50 51 50 51 50 102 c 2,0,-1
209 675 m 0,52,53
 189 675 189 675 170 660 c 1,54,-1
 170 365 l 1,55,-1
 229 391 l 1,56,-1
 261 391 l 1,57,-1
 261 601 l 2,58,59
 261 675 261 675 209 675 c 0,52,53
EndSplineSet
EndChar

StartChar: Ccedilla
Encoding: 199 199 137
Width: 404
GlyphClass: 2
Flags: W
LayerCount: 2
Fore
SplineSet
188 673 m 0,0,1
 202 673 202 673 225 591.5 c 128,-1,2
 248 510 248 510 263 510 c 0,3,4
 267 510 267 510 319.5 535.5 c 128,-1,5
 372 561 372 561 394 571 c 1,6,-1
 394 591 l 1,7,8
 362 591 362 591 350.5 610.5 c 128,-1,9
 339 630 339 630 328.5 671 c 128,-1,10
 318 712 318 712 310 741 c 128,-1,11
 302 770 302 770 296 770 c 0,12,13
 279 770 279 770 164.5 727.5 c 128,-1,14
 50 685 50 685 50 678 c 2,15,-1
 50 179 l 2,16,17
 50 115 50 115 95 57.5 c 128,-1,18
 140 0 140 0 190 0 c 0,19,20
 205 0 205 0 274 27.5 c 128,-1,21
 343 55 343 55 348 55 c 1,22,-1
 348 84 l 1,23,24
 230 84 230 84 197 132 c 0,25,26
 180 157 180 157 175 182.5 c 128,-1,27
 170 208 170 208 170 250 c 2,28,-1
 170 663 l 1,29,30
 178 673 178 673 188 673 c 0,0,1
228 -83 m 1,31,-1
 170 -101 l 1,32,33
 161 -101 161 -101 153.5 -82.5 c 128,-1,34
 146 -64 146 -64 146 -46 c 0,35,36
 146 -10 146 -10 162 21 c 1,37,-1
 167 32 l 1,38,-1
 233 32 l 1,39,40
 219 -20 219 -20 219 -31.5 c 128,-1,41
 219 -43 219 -43 226 -43 c 1,42,-1
 280 -27 l 1,43,44
 290 -27 290 -27 297 -44 c 128,-1,45
 304 -61 304 -61 304 -85 c 2,46,-1
 304 -126 l 2,47,48
 304 -133 304 -133 245.5 -151 c 128,-1,49
 187 -169 187 -169 179 -169 c 0,50,51
 164 -169 164 -169 164 -148 c 0,52,53
 164 -144 164 -144 227 -123 c 0,54,55
 238 -119 238 -119 238 -111 c 2,56,-1
 238 -100 l 2,57,58
 238 -83 238 -83 228 -83 c 1,31,-1
EndSplineSet
EndChar

StartChar: Egrave
Encoding: 200 200 138
Width: 404
GlyphClass: 2
Flags: W
LayerCount: 2
Fore
SplineSet
188 673 m 0,0,1
 178 673 178 673 170 663 c 1,2,-1
 170 399 l 1,3,-1
 311 399 l 1,4,-1
 311 375 l 1,5,-1
 261 350 l 1,6,-1
 170 350 l 1,7,-1
 170 250 l 2,8,9
 170 139 170 139 192 120 c 0,10,11
 225 92 225 92 264 88 c 128,-1,12
 303 84 303 84 348 84 c 1,13,-1
 348 55 l 1,14,15
 343 55 343 55 274 27.5 c 128,-1,16
 205 0 205 0 190 0 c 0,17,18
 159 0 159 0 104.5 48 c 128,-1,19
 50 96 50 96 50 152 c 2,20,-1
 50 678 l 2,21,22
 50 685 50 685 164.5 727.5 c 128,-1,23
 279 770 279 770 296 770 c 0,24,25
 302 770 302 770 310 741 c 128,-1,26
 318 712 318 712 328.5 671 c 128,-1,27
 339 630 339 630 350.5 610.5 c 128,-1,28
 362 591 362 591 394 591 c 1,29,-1
 394 571 l 1,30,31
 372 561 372 561 319.5 535.5 c 128,-1,32
 267 510 267 510 263 510 c 0,33,34
 248 510 248 510 225 591.5 c 128,-1,35
 202 673 202 673 188 673 c 0,0,1
234 910 m 128,-1,37
 250 872 250 872 250 857 c 128,-1,38
 250 842 250 842 247 832 c 0,39,40
 241 810 241 810 234 810 c 0,41,42
 209 810 209 810 199 822 c 0,43,44
 109 938 109 938 109 966 c 0,45,46
 109 985 109 985 152 985 c 128,-1,47
 195 985 195 985 201 975 c 0,48,36
 218 948 218 948 234 910 c 128,-1,37
EndSplineSet
EndChar

StartChar: Eacute
Encoding: 201 201 139
Width: 404
GlyphClass: 2
Flags: W
LayerCount: 2
Fore
SplineSet
188 673 m 0,0,1
 178 673 178 673 170 663 c 1,2,-1
 170 399 l 1,3,-1
 311 399 l 1,4,-1
 311 375 l 1,5,-1
 261 350 l 1,6,-1
 170 350 l 1,7,-1
 170 250 l 2,8,9
 170 139 170 139 192 120 c 0,10,11
 225 92 225 92 264 88 c 128,-1,12
 303 84 303 84 348 84 c 1,13,-1
 348 55 l 1,14,15
 343 55 343 55 274 27.5 c 128,-1,16
 205 0 205 0 190 0 c 0,17,18
 159 0 159 0 104.5 48 c 128,-1,19
 50 96 50 96 50 152 c 2,20,-1
 50 678 l 2,21,22
 50 685 50 685 164.5 727.5 c 128,-1,23
 279 770 279 770 296 770 c 0,24,25
 302 770 302 770 310 741 c 128,-1,26
 318 712 318 712 328.5 671 c 128,-1,27
 339 630 339 630 350.5 610.5 c 128,-1,28
 362 591 362 591 394 591 c 1,29,-1
 394 571 l 1,30,31
 372 561 372 561 319.5 535.5 c 128,-1,32
 267 510 267 510 263 510 c 0,33,34
 248 510 248 510 225 591.5 c 128,-1,35
 202 673 202 673 188 673 c 0,0,1
161 975 m 0,36,37
 167 985 167 985 210 985 c 128,-1,38
 253 985 253 985 253 966 c 0,39,40
 253 938 253 938 163 822 c 0,41,42
 153 810 153 810 128 810 c 0,43,44
 121 810 121 810 116.5 826 c 128,-1,45
 112 842 112 842 112 857 c 128,-1,46
 112 872 112 872 128 910 c 128,-1,47
 144 948 144 948 161 975 c 0,36,37
EndSplineSet
EndChar

StartChar: Ecircumflex
Encoding: 202 202 140
Width: 404
GlyphClass: 2
Flags: W
LayerCount: 2
Fore
SplineSet
188 673 m 0,0,1
 178 673 178 673 170 663 c 1,2,-1
 170 399 l 1,3,-1
 311 399 l 1,4,-1
 311 375 l 1,5,-1
 261 350 l 1,6,-1
 170 350 l 1,7,-1
 170 250 l 2,8,9
 170 139 170 139 192 120 c 0,10,11
 225 92 225 92 264 88 c 128,-1,12
 303 84 303 84 348 84 c 1,13,-1
 348 55 l 1,14,15
 343 55 343 55 274 27.5 c 128,-1,16
 205 0 205 0 190 0 c 0,17,18
 159 0 159 0 104.5 48 c 128,-1,19
 50 96 50 96 50 152 c 2,20,-1
 50 678 l 2,21,22
 50 685 50 685 164.5 727.5 c 128,-1,23
 279 770 279 770 296 770 c 0,24,25
 302 770 302 770 310 741 c 128,-1,26
 318 712 318 712 328.5 671 c 128,-1,27
 339 630 339 630 350.5 610.5 c 128,-1,28
 362 591 362 591 394 591 c 1,29,-1
 394 571 l 1,30,31
 372 561 372 561 319.5 535.5 c 128,-1,32
 267 510 267 510 263 510 c 0,33,34
 248 510 248 510 225 591.5 c 128,-1,35
 202 673 202 673 188 673 c 0,0,1
311 903 m 128,-1,37
 352 862 352 862 352 852 c 128,-1,38
 352 842 352 842 349 832 c 0,39,40
 343 810 343 810 336 810 c 0,41,42
 324 810 324 810 277.5 840.5 c 128,-1,43
 231 871 231 871 184 909 c 1,44,45
 137 871 137 871 90.5 840.5 c 128,-1,46
 44 810 44 810 32 810 c 0,47,48
 25 810 25 810 20.5 826 c 128,-1,49
 16 842 16 842 16 849.5 c 128,-1,50
 16 857 16 857 24.5 867 c 128,-1,51
 33 877 33 877 47 891.5 c 128,-1,52
 61 906 61 906 75 919 c 0,53,54
 117 958 117 958 130.5 971.5 c 128,-1,55
 144 985 144 985 181.5 985 c 128,-1,56
 219 985 219 985 239 970 c 1,57,36
 270 944 270 944 311 903 c 128,-1,37
EndSplineSet
EndChar

StartChar: Edieresis
Encoding: 203 203 141
Width: 404
GlyphClass: 2
Flags: W
LayerCount: 2
Fore
SplineSet
188 673 m 0,0,1
 178 673 178 673 170 663 c 1,2,-1
 170 399 l 1,3,-1
 311 399 l 1,4,-1
 311 375 l 1,5,-1
 261 350 l 1,6,-1
 170 350 l 1,7,-1
 170 250 l 2,8,9
 170 139 170 139 192 120 c 0,10,11
 225 92 225 92 264 88 c 128,-1,12
 303 84 303 84 348 84 c 1,13,-1
 348 55 l 1,14,15
 343 55 343 55 274 27.5 c 128,-1,16
 205 0 205 0 190 0 c 0,17,18
 159 0 159 0 104.5 48 c 128,-1,19
 50 96 50 96 50 152 c 2,20,-1
 50 678 l 2,21,22
 50 685 50 685 164.5 727.5 c 128,-1,23
 279 770 279 770 296 770 c 0,24,25
 302 770 302 770 310 741 c 128,-1,26
 318 712 318 712 328.5 671 c 128,-1,27
 339 630 339 630 350.5 610.5 c 128,-1,28
 362 591 362 591 394 591 c 1,29,-1
 394 571 l 1,30,31
 372 561 372 561 319.5 535.5 c 128,-1,32
 267 510 267 510 263 510 c 0,33,34
 248 510 248 510 225 591.5 c 128,-1,35
 202 673 202 673 188 673 c 0,0,1
24 867 m 2,36,-1
 24 921 l 2,37,38
 24 924 24 924 61.5 938 c 128,-1,39
 99 952 99 952 105 952 c 128,-1,40
 111 952 111 952 122 937 c 128,-1,41
 133 922 133 922 133 905 c 2,42,-1
 133 840 l 2,43,44
 133 837 133 837 97.5 823 c 128,-1,45
 62 809 62 809 53.5 809 c 128,-1,46
 45 809 45 809 34.5 825 c 128,-1,47
 24 841 24 841 24 867 c 2,36,-1
231 867 m 2,48,-1
 231 921 l 2,49,50
 231 924 231 924 268.5 938 c 128,-1,51
 306 952 306 952 312 952 c 128,-1,52
 318 952 318 952 329 937 c 128,-1,53
 340 922 340 922 340 905 c 2,54,-1
 340 840 l 2,55,56
 340 837 340 837 304.5 823 c 128,-1,57
 269 809 269 809 260.5 809 c 128,-1,58
 252 809 252 809 241.5 825 c 128,-1,59
 231 841 231 841 231 867 c 2,48,-1
EndSplineSet
EndChar

StartChar: Igrave
Encoding: 204 204 142
Width: 220
GlyphClass: 2
Flags: W
LayerCount: 2
Fore
SplineSet
50 128 m 2,0,-1
 50 585 l 2,1,2
 50 622 50 622 42 638 c 128,-1,3
 34 654 34 654 9 654 c 1,4,-1
 9 685 l 1,5,-1
 214 771 l 1,6,-1
 230 739 l 1,7,8
 208 739 208 739 188 713 c 0,9,10
 170 688 170 688 170 637 c 2,11,-1
 170 167 l 2,12,13
 170 140 170 140 179 128.5 c 128,-1,14
 188 117 188 117 210 117 c 1,15,-1
 210 89 l 1,16,17
 7 0 7 0 6 0 c 2,18,-1
 -10 32 l 1,19,20
 -2 32 -2 32 9.5 39 c 128,-1,21
 21 46 21 46 29 55 c 0,22,23
 50 79 50 79 50 128 c 2,0,-1
162 910 m 128,-1,25
 178 872 178 872 178 857 c 128,-1,26
 178 842 178 842 175 832 c 0,27,28
 169 810 169 810 162 810 c 0,29,30
 137 810 137 810 127 822 c 0,31,32
 37 938 37 938 37 966 c 0,33,34
 37 985 37 985 80 985 c 128,-1,35
 123 985 123 985 129 975 c 0,36,24
 146 948 146 948 162 910 c 128,-1,25
EndSplineSet
EndChar

StartChar: Iacute
Encoding: 205 205 143
Width: 220
GlyphClass: 2
Flags: W
LayerCount: 2
Fore
SplineSet
50 128 m 2,0,-1
 50 585 l 2,1,2
 50 622 50 622 42 638 c 128,-1,3
 34 654 34 654 9 654 c 1,4,-1
 9 685 l 1,5,-1
 214 771 l 1,6,-1
 230 739 l 1,7,8
 208 739 208 739 188 713 c 0,9,10
 170 688 170 688 170 637 c 2,11,-1
 170 167 l 2,12,13
 170 140 170 140 179 128.5 c 128,-1,14
 188 117 188 117 210 117 c 1,15,-1
 210 89 l 1,16,17
 7 0 7 0 6 0 c 2,18,-1
 -10 32 l 1,19,20
 -2 32 -2 32 9.5 39 c 128,-1,21
 21 46 21 46 29 55 c 0,22,23
 50 79 50 79 50 128 c 2,0,-1
89 975 m 0,24,25
 95 985 95 985 138 985 c 128,-1,26
 181 985 181 985 181 966 c 0,27,28
 181 938 181 938 91 822 c 0,29,30
 81 810 81 810 56 810 c 0,31,32
 49 810 49 810 44.5 826 c 128,-1,33
 40 842 40 842 40 857 c 128,-1,34
 40 872 40 872 56 910 c 128,-1,35
 72 948 72 948 89 975 c 0,24,25
EndSplineSet
EndChar

StartChar: Icircumflex
Encoding: 206 206 144
Width: 220
GlyphClass: 2
Flags: W
LayerCount: 2
Fore
SplineSet
50 128 m 2,0,-1
 50 585 l 2,1,2
 50 622 50 622 42 638 c 128,-1,3
 34 654 34 654 9 654 c 1,4,-1
 9 685 l 1,5,-1
 214 771 l 1,6,-1
 230 739 l 1,7,8
 208 739 208 739 188 713 c 0,9,10
 170 688 170 688 170 637 c 2,11,-1
 170 167 l 2,12,13
 170 140 170 140 179 128.5 c 128,-1,14
 188 117 188 117 210 117 c 1,15,-1
 210 89 l 1,16,17
 7 0 7 0 6 0 c 2,18,-1
 -10 32 l 1,19,20
 -2 32 -2 32 9.5 39 c 128,-1,21
 21 46 21 46 29 55 c 0,22,23
 50 79 50 79 50 128 c 2,0,-1
239 903 m 128,-1,25
 280 862 280 862 280 852 c 128,-1,26
 280 842 280 842 277 832 c 0,27,28
 271 810 271 810 264 810 c 0,29,30
 252 810 252 810 205.5 840.5 c 128,-1,31
 159 871 159 871 112 909 c 1,32,33
 65 871 65 871 18.5 840.5 c 128,-1,34
 -28 810 -28 810 -40 810 c 0,35,36
 -47 810 -47 810 -51.5 826 c 128,-1,37
 -56 842 -56 842 -56 849.5 c 128,-1,38
 -56 857 -56 857 -47.5 867 c 128,-1,39
 -39 877 -39 877 -25 891.5 c 128,-1,40
 -11 906 -11 906 3 919 c 0,41,42
 45 958 45 958 58.5 971.5 c 128,-1,43
 72 985 72 985 109.5 985 c 128,-1,44
 147 985 147 985 167 970 c 1,45,24
 198 944 198 944 239 903 c 128,-1,25
EndSplineSet
EndChar

StartChar: Idieresis
Encoding: 207 207 145
Width: 220
GlyphClass: 2
Flags: W
LayerCount: 2
Fore
SplineSet
50 128 m 2,0,-1
 50 585 l 2,1,2
 50 622 50 622 42 638 c 128,-1,3
 34 654 34 654 9 654 c 1,4,-1
 9 685 l 1,5,-1
 214 771 l 1,6,-1
 230 739 l 1,7,8
 208 739 208 739 188 713 c 0,9,10
 170 688 170 688 170 637 c 2,11,-1
 170 167 l 2,12,13
 170 140 170 140 179 128.5 c 128,-1,14
 188 117 188 117 210 117 c 1,15,-1
 210 89 l 1,16,17
 7 0 7 0 6 0 c 2,18,-1
 -10 32 l 1,19,20
 -2 32 -2 32 9.5 39 c 128,-1,21
 21 46 21 46 29 55 c 0,22,23
 50 79 50 79 50 128 c 2,0,-1
-48 867 m 2,24,-1
 -48 921 l 2,25,26
 -48 924 -48 924 -10.5 938 c 128,-1,27
 27 952 27 952 33 952 c 128,-1,28
 39 952 39 952 50 937 c 128,-1,29
 61 922 61 922 61 905 c 2,30,-1
 61 840 l 2,31,32
 61 837 61 837 25.5 823 c 128,-1,33
 -10 809 -10 809 -18.5 809 c 128,-1,34
 -27 809 -27 809 -37.5 825 c 128,-1,35
 -48 841 -48 841 -48 867 c 2,24,-1
159 867 m 2,36,-1
 159 921 l 2,37,38
 159 924 159 924 196.5 938 c 128,-1,39
 234 952 234 952 240 952 c 128,-1,40
 246 952 246 952 257 937 c 128,-1,41
 268 922 268 922 268 905 c 2,42,-1
 268 840 l 2,43,44
 268 837 268 837 232.5 823 c 128,-1,45
 197 809 197 809 188.5 809 c 128,-1,46
 180 809 180 809 169.5 825 c 128,-1,47
 159 841 159 841 159 867 c 2,36,-1
EndSplineSet
EndChar

StartChar: Eth
Encoding: 208 208 146
Width: 431
GlyphClass: 2
Flags: W
LayerCount: 2
Fore
SplineSet
50 418 m 1,0,-1
 50 626 l 2,1,2
 50 680 50 680 9 689 c 1,3,-1
 9 711 l 1,4,-1
 110 768 l 1,5,6
 132 759 132 759 151 738.5 c 128,-1,7
 170 718 170 718 170 700 c 1,8,-1
 294 770 l 1,9,10
 312 770 312 770 346.5 729 c 128,-1,11
 381 688 381 688 381 655 c 2,12,-1
 381 93 l 2,13,14
 381 85 381 85 271.5 42.5 c 128,-1,15
 162 0 162 0 137.5 0 c 128,-1,16
 113 0 113 0 81.5 43 c 128,-1,17
 50 86 50 86 50 146 c 2,18,-1
 50 349 l 1,19,-1
 -61 349 l 1,20,-1
 -61 371 l 1,21,-1
 -11 418 l 1,22,-1
 50 418 l 1,0,-1
221 92 m 0,23,24
 240 92 240 92 260 108 c 1,25,-1
 260 394 l 1,26,-1
 210 349 l 1,27,-1
 170 349 l 1,28,-1
 170 166 l 2,29,30
 170 92 170 92 221 92 c 0,23,24
209 651 m 0,31,32
 189 651 189 651 170 636 c 1,33,-1
 170 418 l 1,34,-1
 260 418 l 1,35,-1
 260 580 l 2,36,37
 260 651 260 651 209 651 c 0,31,32
EndSplineSet
EndChar

StartChar: Ntilde
Encoding: 209 209 147
Width: 430
GlyphClass: 2
Flags: W
LayerCount: 2
Fore
SplineSet
50 114 m 2,0,-1
 50 607 l 2,1,2
 50 640 50 640 36 664 c 128,-1,3
 22 688 22 688 1 688 c 1,4,-1
 1 710 l 1,5,6
 8 711 8 711 110 771 c 1,7,8
 117 769 117 769 127 765.5 c 128,-1,9
 137 762 137 762 153.5 746 c 128,-1,10
 170 730 170 730 170 709 c 1,11,12
 176 712 176 712 204 728 c 0,13,14
 278 770 278 770 292 770 c 0,15,16
 324 770 324 770 352 728 c 128,-1,17
 380 686 380 686 380 651 c 2,18,-1
 380 148 l 2,19,20
 380 93 380 93 429 83 c 1,21,-1
 429 61 l 1,22,-1
 320 0 l 1,23,24
 298 9 298 9 279 29.5 c 128,-1,25
 260 50 260 50 260 68 c 2,26,-1
 260 558 l 2,27,28
 260 621 260 621 241.5 644 c 128,-1,29
 223 667 223 667 170 667 c 1,30,-1
 170 154 l 2,31,32
 170 114 170 114 180 99.5 c 128,-1,33
 190 85 190 85 211 85 c 1,34,-1
 211 54 l 1,35,-1
 6 -32 l 1,36,-1
 -10 0 l 1,37,38
 10 0 10 0 29 24 c 0,39,40
 50 52 50 52 50 114 c 2,0,-1
293 809 m 0,41,42
 268 809 268 809 222.5 823.5 c 128,-1,43
 177 838 177 838 153 838 c 128,-1,44
 129 838 129 838 112 830 c 128,-1,45
 95 822 95 822 90 811 c 1,46,-1
 69 811 l 1,47,-1
 31 884 l 1,48,49
 62 924 62 924 94 924 c 128,-1,50
 126 924 126 924 176 910.5 c 128,-1,51
 226 897 226 897 242 897 c 0,52,53
 292 897 292 897 302 922 c 1,54,-1
 322 922 l 1,55,-1
 361 849 l 1,56,57
 330 809 330 809 293 809 c 0,41,42
EndSplineSet
EndChar

StartChar: Ograve
Encoding: 210 210 148
Width: 431
GlyphClass: 2
Flags: W
LayerCount: 2
Fore
SplineSet
50 146 m 2,0,-1
 50 678 l 2,1,2
 50 685 50 685 164 727.5 c 128,-1,3
 278 770 278 770 295 770 c 128,-1,4
 312 770 312 770 346.5 729 c 128,-1,5
 381 688 381 688 381 655 c 2,6,-1
 381 93 l 2,7,8
 381 85 381 85 271.5 42.5 c 128,-1,9
 162 0 162 0 137.5 0 c 128,-1,10
 113 0 113 0 81.5 43 c 128,-1,11
 50 86 50 86 50 146 c 2,0,-1
221 92 m 0,12,13
 240 92 240 92 260 108 c 1,14,-1
 260 603 l 2,15,16
 260 677 260 677 209 677 c 0,17,18
 189 677 189 677 170 662 c 1,19,-1
 170 166 l 2,20,21
 170 92 170 92 221 92 c 0,12,13
225 910 m 128,-1,23
 241 872 241 872 241 857 c 128,-1,24
 241 842 241 842 238 832 c 0,25,26
 232 810 232 810 225 810 c 0,27,28
 200 810 200 810 190 822 c 0,29,30
 100 938 100 938 100 966 c 0,31,32
 100 985 100 985 143 985 c 128,-1,33
 186 985 186 985 192 975 c 0,34,22
 209 948 209 948 225 910 c 128,-1,23
EndSplineSet
EndChar

StartChar: Oacute
Encoding: 211 211 149
Width: 431
GlyphClass: 2
Flags: W
LayerCount: 2
Fore
SplineSet
50 146 m 2,0,-1
 50 678 l 2,1,2
 50 685 50 685 164 727.5 c 128,-1,3
 278 770 278 770 295 770 c 128,-1,4
 312 770 312 770 346.5 729 c 128,-1,5
 381 688 381 688 381 655 c 2,6,-1
 381 93 l 2,7,8
 381 85 381 85 271.5 42.5 c 128,-1,9
 162 0 162 0 137.5 0 c 128,-1,10
 113 0 113 0 81.5 43 c 128,-1,11
 50 86 50 86 50 146 c 2,0,-1
221 92 m 0,12,13
 240 92 240 92 260 108 c 1,14,-1
 260 603 l 2,15,16
 260 677 260 677 209 677 c 0,17,18
 189 677 189 677 170 662 c 1,19,-1
 170 166 l 2,20,21
 170 92 170 92 221 92 c 0,12,13
195 975 m 0,22,23
 201 985 201 985 244 985 c 128,-1,24
 287 985 287 985 287 966 c 0,25,26
 287 938 287 938 197 822 c 0,27,28
 187 810 187 810 162 810 c 0,29,30
 155 810 155 810 150.5 826 c 128,-1,31
 146 842 146 842 146 857 c 128,-1,32
 146 872 146 872 162 910 c 128,-1,33
 178 948 178 948 195 975 c 0,22,23
EndSplineSet
EndChar

StartChar: Ocircumflex
Encoding: 212 212 150
Width: 431
GlyphClass: 2
Flags: W
LayerCount: 2
Fore
SplineSet
50 146 m 2,0,-1
 50 678 l 2,1,2
 50 685 50 685 164 727.5 c 128,-1,3
 278 770 278 770 295 770 c 128,-1,4
 312 770 312 770 346.5 729 c 128,-1,5
 381 688 381 688 381 655 c 2,6,-1
 381 93 l 2,7,8
 381 85 381 85 271.5 42.5 c 128,-1,9
 162 0 162 0 137.5 0 c 128,-1,10
 113 0 113 0 81.5 43 c 128,-1,11
 50 86 50 86 50 146 c 2,0,-1
221 92 m 0,12,13
 240 92 240 92 260 108 c 1,14,-1
 260 603 l 2,15,16
 260 677 260 677 209 677 c 0,17,18
 189 677 189 677 170 662 c 1,19,-1
 170 166 l 2,20,21
 170 92 170 92 221 92 c 0,12,13
345 903 m 128,-1,23
 386 862 386 862 386 852 c 128,-1,24
 386 842 386 842 383 832 c 0,25,26
 377 810 377 810 370 810 c 0,27,28
 358 810 358 810 311.5 840.5 c 128,-1,29
 265 871 265 871 218 909 c 1,30,31
 171 871 171 871 124.5 840.5 c 128,-1,32
 78 810 78 810 66 810 c 0,33,34
 59 810 59 810 54.5 826 c 128,-1,35
 50 842 50 842 50 849.5 c 128,-1,36
 50 857 50 857 58.5 867 c 128,-1,37
 67 877 67 877 81 891.5 c 128,-1,38
 95 906 95 906 109 919 c 0,39,40
 151 958 151 958 164.5 971.5 c 128,-1,41
 178 985 178 985 215.5 985 c 128,-1,42
 253 985 253 985 273 970 c 1,43,22
 304 944 304 944 345 903 c 128,-1,23
EndSplineSet
EndChar

StartChar: Otilde
Encoding: 213 213 151
Width: 431
GlyphClass: 2
Flags: W
LayerCount: 2
Fore
SplineSet
50 146 m 2,0,-1
 50 678 l 2,1,2
 50 685 50 685 164 727.5 c 128,-1,3
 278 770 278 770 295 770 c 128,-1,4
 312 770 312 770 346.5 729 c 128,-1,5
 381 688 381 688 381 655 c 2,6,-1
 381 93 l 2,7,8
 381 85 381 85 271.5 42.5 c 128,-1,9
 162 0 162 0 137.5 0 c 128,-1,10
 113 0 113 0 81.5 43 c 128,-1,11
 50 86 50 86 50 146 c 2,0,-1
221 92 m 0,12,13
 240 92 240 92 260 108 c 1,14,-1
 260 603 l 2,15,16
 260 677 260 677 209 677 c 0,17,18
 189 677 189 677 170 662 c 1,19,-1
 170 166 l 2,20,21
 170 92 170 92 221 92 c 0,12,13
312 809 m 0,22,23
 287 809 287 809 241.5 823.5 c 128,-1,24
 196 838 196 838 172 838 c 128,-1,25
 148 838 148 838 131 830 c 128,-1,26
 114 822 114 822 109 811 c 1,27,-1
 88 811 l 1,28,-1
 50 884 l 1,29,30
 81 924 81 924 113 924 c 128,-1,31
 145 924 145 924 195 910.5 c 128,-1,32
 245 897 245 897 261 897 c 0,33,34
 311 897 311 897 321 922 c 1,35,-1
 341 922 l 1,36,-1
 380 849 l 1,37,38
 349 809 349 809 312 809 c 0,22,23
EndSplineSet
EndChar

StartChar: Odieresis
Encoding: 214 214 152
Width: 431
GlyphClass: 2
Flags: W
LayerCount: 2
Fore
SplineSet
50 146 m 2,0,-1
 50 678 l 2,1,2
 50 685 50 685 164 727.5 c 128,-1,3
 278 770 278 770 295 770 c 128,-1,4
 312 770 312 770 346.5 729 c 128,-1,5
 381 688 381 688 381 655 c 2,6,-1
 381 93 l 2,7,8
 381 85 381 85 271.5 42.5 c 128,-1,9
 162 0 162 0 137.5 0 c 128,-1,10
 113 0 113 0 81.5 43 c 128,-1,11
 50 86 50 86 50 146 c 2,0,-1
221 92 m 0,12,13
 240 92 240 92 260 108 c 1,14,-1
 260 603 l 2,15,16
 260 677 260 677 209 677 c 0,17,18
 189 677 189 677 170 662 c 1,19,-1
 170 166 l 2,20,21
 170 92 170 92 221 92 c 0,12,13
58 867 m 2,22,-1
 58 921 l 2,23,24
 58 924 58 924 95.5 938 c 128,-1,25
 133 952 133 952 139 952 c 128,-1,26
 145 952 145 952 156 937 c 128,-1,27
 167 922 167 922 167 905 c 2,28,-1
 167 840 l 2,29,30
 167 837 167 837 131.5 823 c 128,-1,31
 96 809 96 809 87.5 809 c 128,-1,32
 79 809 79 809 68.5 825 c 128,-1,33
 58 841 58 841 58 867 c 2,22,-1
265 867 m 2,34,-1
 265 921 l 2,35,36
 265 924 265 924 302.5 938 c 128,-1,37
 340 952 340 952 346 952 c 128,-1,38
 352 952 352 952 363 937 c 128,-1,39
 374 922 374 922 374 905 c 2,40,-1
 374 840 l 2,41,42
 374 837 374 837 338.5 823 c 128,-1,43
 303 809 303 809 294.5 809 c 128,-1,44
 286 809 286 809 275.5 825 c 128,-1,45
 265 841 265 841 265 867 c 2,34,-1
EndSplineSet
EndChar

StartChar: multiply
Encoding: 215 215 153
Width: 421
GlyphClass: 2
Flags: W
LayerCount: 2
Fore
SplineSet
268 412 m 1,0,-1
 351 414 l 1,1,-1
 366 399 l 1,2,-1
 267 300 l 1,3,-1
 367 200 l 1,4,-1
 350 183 l 1,5,-1
 269 187 l 1,6,-1
 211 244 l 1,7,-1
 153 186 l 1,8,-1
 72 182 l 1,9,-1
 55 199 l 1,10,-1
 156 300 l 1,11,-1
 56 399 l 1,12,-1
 71 415 l 1,13,-1
 154 412 l 1,14,-1
 211 356 l 1,15,-1
 268 412 l 1,0,-1
EndSplineSet
EndChar

StartChar: Oslash
Encoding: 216 216 154
Width: 431
GlyphClass: 2
Flags: W
LayerCount: 2
Fore
SplineSet
50 146 m 2,0,-1
 50 678 l 2,1,2
 50 685 50 685 164 727.5 c 128,-1,3
 278 770 278 770 294 770 c 0,4,5
 297 770 297 770 317 760 c 1,6,-1
 390 799 l 1,7,-1
 415 799 l 1,8,-1
 375 683 l 1,9,10
 381 668 381 668 381 655 c 2,11,-1
 381 93 l 2,12,13
 381 85 381 85 271.5 42.5 c 128,-1,14
 162 0 162 0 140 0 c 1,15,-1
 64 -38 l 1,16,-1
 42 -38 l 1,17,-1
 74 55 l 1,18,19
 50 96 50 96 50 146 c 2,0,-1
209 677 m 0,20,21
 189 677 189 677 170 662 c 1,22,-1
 170 333 l 1,23,-1
 260 594 l 1,24,-1
 260 603 l 2,25,26
 260 677 260 677 209 677 c 0,20,21
179 116 m 1,27,28
 192 92 192 92 216 92 c 128,-1,29
 240 92 240 92 260 108 c 1,30,-1
 260 350 l 1,31,-1
 179 116 l 1,27,28
EndSplineSet
EndChar

StartChar: Ugrave
Encoding: 217 217 155
Width: 430
GlyphClass: 2
Flags: W
LayerCount: 2
Fore
SplineSet
260 104 m 1,0,-1
 260 585 l 2,1,2
 260 622 260 622 252 638 c 128,-1,3
 244 654 244 654 219 654 c 1,4,-1
 219 685 l 1,5,-1
 424 771 l 1,6,-1
 440 739 l 1,7,8
 418 739 418 739 398 713 c 0,9,10
 380 688 380 688 380 637 c 2,11,-1
 380 164 l 2,12,13
 380 131 380 131 394 107 c 128,-1,14
 408 83 408 83 429 83 c 1,15,-1
 429 61 l 1,16,17
 422 60 422 60 320 0 c 1,18,19
 313 2 313 2 303 5.5 c 128,-1,20
 293 9 293 9 276.5 25 c 128,-1,21
 260 41 260 41 260 62 c 1,22,23
 254 59 254 59 226 43 c 0,24,25
 152 1 152 1 138 1 c 0,26,27
 106 1 106 1 78 42.5 c 128,-1,28
 50 84 50 84 50 120 c 2,29,-1
 50 623 l 2,30,31
 50 678 50 678 1 688 c 1,32,-1
 1 710 l 1,33,-1
 110 771 l 1,34,35
 132 762 132 762 151 741.5 c 128,-1,36
 170 721 170 721 170 703 c 2,37,-1
 170 213 l 2,38,39
 170 150 170 150 188.5 127 c 128,-1,40
 207 104 207 104 260 104 c 1,0,-1
224 910 m 128,-1,42
 240 872 240 872 240 857 c 128,-1,43
 240 842 240 842 237 832 c 0,44,45
 231 810 231 810 224 810 c 0,46,47
 199 810 199 810 189 822 c 0,48,49
 99 938 99 938 99 966 c 0,50,51
 99 985 99 985 142 985 c 128,-1,52
 185 985 185 985 191 975 c 0,53,41
 208 948 208 948 224 910 c 128,-1,42
EndSplineSet
EndChar

StartChar: Uacute
Encoding: 218 218 156
Width: 430
GlyphClass: 2
Flags: W
LayerCount: 2
Fore
SplineSet
260 104 m 1,0,-1
 260 585 l 2,1,2
 260 622 260 622 252 638 c 128,-1,3
 244 654 244 654 219 654 c 1,4,-1
 219 685 l 1,5,-1
 424 771 l 1,6,-1
 440 739 l 1,7,8
 418 739 418 739 398 713 c 0,9,10
 380 688 380 688 380 637 c 2,11,-1
 380 164 l 2,12,13
 380 131 380 131 394 107 c 128,-1,14
 408 83 408 83 429 83 c 1,15,-1
 429 61 l 1,16,17
 422 60 422 60 320 0 c 1,18,19
 313 2 313 2 303 5.5 c 128,-1,20
 293 9 293 9 276.5 25 c 128,-1,21
 260 41 260 41 260 62 c 1,22,23
 254 59 254 59 226 43 c 0,24,25
 152 1 152 1 138 1 c 0,26,27
 106 1 106 1 78 42.5 c 128,-1,28
 50 84 50 84 50 120 c 2,29,-1
 50 623 l 2,30,31
 50 678 50 678 1 688 c 1,32,-1
 1 710 l 1,33,-1
 110 771 l 1,34,35
 132 762 132 762 151 741.5 c 128,-1,36
 170 721 170 721 170 703 c 2,37,-1
 170 213 l 2,38,39
 170 150 170 150 188.5 127 c 128,-1,40
 207 104 207 104 260 104 c 1,0,-1
243 975 m 0,41,42
 249 985 249 985 292 985 c 128,-1,43
 335 985 335 985 335 966 c 0,44,45
 335 938 335 938 245 822 c 0,46,47
 235 810 235 810 210 810 c 0,48,49
 203 810 203 810 198.5 826 c 128,-1,50
 194 842 194 842 194 857 c 128,-1,51
 194 872 194 872 210 910 c 128,-1,52
 226 948 226 948 243 975 c 0,41,42
EndSplineSet
EndChar

StartChar: Ucircumflex
Encoding: 219 219 157
Width: 430
GlyphClass: 2
Flags: W
LayerCount: 2
Fore
SplineSet
260 104 m 1,0,-1
 260 585 l 2,1,2
 260 622 260 622 252 638 c 128,-1,3
 244 654 244 654 219 654 c 1,4,-1
 219 685 l 1,5,-1
 424 771 l 1,6,-1
 440 739 l 1,7,8
 418 739 418 739 398 713 c 0,9,10
 380 688 380 688 380 637 c 2,11,-1
 380 164 l 2,12,13
 380 131 380 131 394 107 c 128,-1,14
 408 83 408 83 429 83 c 1,15,-1
 429 61 l 1,16,17
 422 60 422 60 320 0 c 1,18,19
 313 2 313 2 303 5.5 c 128,-1,20
 293 9 293 9 276.5 25 c 128,-1,21
 260 41 260 41 260 62 c 1,22,23
 254 59 254 59 226 43 c 0,24,25
 152 1 152 1 138 1 c 0,26,27
 106 1 106 1 78 42.5 c 128,-1,28
 50 84 50 84 50 120 c 2,29,-1
 50 623 l 2,30,31
 50 678 50 678 1 688 c 1,32,-1
 1 710 l 1,33,-1
 110 771 l 1,34,35
 132 762 132 762 151 741.5 c 128,-1,36
 170 721 170 721 170 703 c 2,37,-1
 170 213 l 2,38,39
 170 150 170 150 188.5 127 c 128,-1,40
 207 104 207 104 260 104 c 1,0,-1
343 903 m 128,-1,42
 384 862 384 862 384 852 c 128,-1,43
 384 842 384 842 381 832 c 0,44,45
 375 810 375 810 368 810 c 0,46,47
 356 810 356 810 309.5 840.5 c 128,-1,48
 263 871 263 871 216 909 c 1,49,50
 169 871 169 871 122.5 840.5 c 128,-1,51
 76 810 76 810 64 810 c 0,52,53
 57 810 57 810 52.5 826 c 128,-1,54
 48 842 48 842 48 849.5 c 128,-1,55
 48 857 48 857 56.5 867 c 128,-1,56
 65 877 65 877 79 891.5 c 128,-1,57
 93 906 93 906 107 919 c 0,58,59
 149 958 149 958 162.5 971.5 c 128,-1,60
 176 985 176 985 213.5 985 c 128,-1,61
 251 985 251 985 271 970 c 1,62,41
 302 944 302 944 343 903 c 128,-1,42
EndSplineSet
EndChar

StartChar: Udieresis
Encoding: 220 220 158
Width: 430
GlyphClass: 2
Flags: W
LayerCount: 2
Fore
SplineSet
260 104 m 1,0,-1
 260 585 l 2,1,2
 260 622 260 622 252 638 c 128,-1,3
 244 654 244 654 219 654 c 1,4,-1
 219 685 l 1,5,-1
 424 771 l 1,6,-1
 440 739 l 1,7,8
 418 739 418 739 398 713 c 0,9,10
 380 688 380 688 380 637 c 2,11,-1
 380 164 l 2,12,13
 380 131 380 131 394 107 c 128,-1,14
 408 83 408 83 429 83 c 1,15,-1
 429 61 l 1,16,17
 422 60 422 60 320 0 c 1,18,19
 313 2 313 2 303 5.5 c 128,-1,20
 293 9 293 9 276.5 25 c 128,-1,21
 260 41 260 41 260 62 c 1,22,23
 254 59 254 59 226 43 c 0,24,25
 152 1 152 1 138 1 c 0,26,27
 106 1 106 1 78 42.5 c 128,-1,28
 50 84 50 84 50 120 c 2,29,-1
 50 623 l 2,30,31
 50 678 50 678 1 688 c 1,32,-1
 1 710 l 1,33,-1
 110 771 l 1,34,35
 132 762 132 762 151 741.5 c 128,-1,36
 170 721 170 721 170 703 c 2,37,-1
 170 213 l 2,38,39
 170 150 170 150 188.5 127 c 128,-1,40
 207 104 207 104 260 104 c 1,0,-1
56 867 m 2,41,-1
 56 921 l 2,42,43
 56 924 56 924 93.5 938 c 128,-1,44
 131 952 131 952 137 952 c 128,-1,45
 143 952 143 952 154 937 c 128,-1,46
 165 922 165 922 165 905 c 2,47,-1
 165 840 l 2,48,49
 165 837 165 837 129.5 823 c 128,-1,50
 94 809 94 809 85.5 809 c 128,-1,51
 77 809 77 809 66.5 825 c 128,-1,52
 56 841 56 841 56 867 c 2,41,-1
263 867 m 2,53,-1
 263 921 l 2,54,55
 263 924 263 924 300.5 938 c 128,-1,56
 338 952 338 952 344 952 c 128,-1,57
 350 952 350 952 361 937 c 128,-1,58
 372 922 372 922 372 905 c 2,59,-1
 372 840 l 2,60,61
 372 837 372 837 336.5 823 c 128,-1,62
 301 809 301 809 292.5 809 c 128,-1,63
 284 809 284 809 273.5 825 c 128,-1,64
 263 841 263 841 263 867 c 2,53,-1
EndSplineSet
EndChar

StartChar: Yacute
Encoding: 221 221 159
Width: 396
GlyphClass: 2
Flags: W
LayerCount: 2
Fore
SplineSet
191 975 m 0,0,1
 197 985 197 985 240 985 c 128,-1,2
 283 985 283 985 283 966 c 0,3,4
 283 938 283 938 193 822 c 0,5,6
 183 810 183 810 158 810 c 0,7,8
 151 810 151 810 146.5 826 c 128,-1,9
 142 842 142 842 142 857 c 128,-1,10
 142 872 142 872 158 910 c 128,-1,11
 174 948 174 948 191 975 c 0,0,1
-38 688 m 1,12,-1
 -38 709 l 1,13,-1
 66 770 l 1,14,-1
 105 770 l 1,15,-1
 220 409 l 1,16,17
 230 414 230 414 236 416 c 1,18,-1
 236 625 l 2,19,20
 236 659 236 659 218 681 c 0,21,22
 208 692 208 692 195 692 c 1,23,-1
 195 714 l 1,24,-1
 291 771 l 1,25,26
 299 771 299 771 325 748.5 c 128,-1,27
 351 726 351 726 351 706 c 2,28,-1
 351 420 l 2,29,30
 351 403 351 403 239 363 c 1,31,-1
 239 175 l 2,32,33
 239 142 239 142 246.5 129.5 c 128,-1,34
 254 117 254 117 279 117 c 1,35,-1
 279 89 l 1,36,-1
 75 0 l 1,37,-1
 59 32 l 1,38,39
 80 37 80 37 94 49 c 0,40,41
 119 72 119 72 119 145 c 2,42,-1
 119 356 l 1,43,-1
 19 656 l 2,44,45
 14 671 14 671 4 678.5 c 128,-1,46
 -6 686 -6 686 -14 687 c 128,-1,47
 -22 688 -22 688 -38 688 c 1,12,-1
EndSplineSet
EndChar

StartChar: Thorn
Encoding: 222 222 160
Width: 421
GlyphClass: 2
Flags: W
LayerCount: 2
Fore
SplineSet
50 102 m 2,0,-1
 50 574 l 2,1,2
 50 614 50 614 -38 614 c 1,3,-1
 -38 642 l 1,4,5
 92 710 92 710 194 770 c 1,6,-1
 210 738 l 1,7,8
 206 736 206 736 199 730.5 c 128,-1,9
 192 725 192 725 181 697.5 c 128,-1,10
 170 670 170 670 170 630 c 2,11,-1
 170 601 l 1,12,13
 280 668 280 668 296 668 c 128,-1,14
 312 668 312 668 346.5 627 c 128,-1,15
 381 586 381 586 381 553 c 2,16,-1
 381 262 l 2,17,18
 381 255 381 255 301.5 223 c 128,-1,19
 222 191 222 191 170 175 c 1,20,-1
 170 154 l 2,21,22
 170 117 170 117 178 101 c 128,-1,23
 186 85 186 85 211 85 c 1,24,-1
 211 54 l 1,25,-1
 6 -32 l 1,26,-1
 -10 0 l 1,27,28
 12 0 12 0 32 26 c 0,29,30
 50 51 50 51 50 102 c 2,0,-1
209 572 m 0,31,32
 191 572 191 572 170 557 c 1,33,-1
 170 222 l 1,34,35
 196 222 196 222 228 238.5 c 128,-1,36
 260 255 260 255 260 273 c 2,37,-1
 260 498 l 2,38,39
 260 572 260 572 209 572 c 0,31,32
EndSplineSet
EndChar

StartChar: germandbls
Encoding: 223 223 161
Width: 410
GlyphClass: 2
Flags: W
LayerCount: 2
Fore
SplineSet
50 657 m 2,0,1
 50 676 50 676 161.5 722.5 c 128,-1,2
 273 769 273 769 296 769 c 0,3,4
 304 769 304 769 309 761.5 c 128,-1,5
 314 754 314 754 317 748 c 2,6,-1
 326 729 l 2,7,8
 333 716 333 716 340 704 c 0,9,10
 353 680 353 680 373 680 c 1,11,-1
 373 660 l 1,12,13
 356 653 356 653 330 637 c 0,14,15
 267 598 267 598 262 598 c 0,16,17
 247 598 247 598 234.5 642 c 128,-1,18
 222 686 222 686 208 686 c 0,19,20
 170 686 170 686 170 656 c 2,21,-1
 170 534 l 1,22,23
 263 570 263 570 279 570 c 128,-1,24
 295 570 295 570 329.5 529 c 128,-1,25
 364 488 364 488 364 455 c 2,26,-1
 364 299 l 2,27,28
 364 284 364 284 311 257 c 1,29,30
 363 197 363 197 363 132 c 2,31,-1
 363 56 l 2,32,33
 363 -28 363 -28 344 -104 c 128,-1,34
 325 -180 325 -180 305 -180 c 0,35,36
 280 -180 280 -180 240.5 -165 c 128,-1,37
 201 -150 201 -150 174 -135 c 2,38,-1
 147 -120 l 1,39,-1
 147 -90 l 1,40,-1
 181 -90 l 2,41,42
 243 -90 243 -90 243 63 c 2,43,-1
 243 95 l 2,44,45
 243 147 243 147 227.5 170.5 c 128,-1,46
 212 194 212 194 173 194 c 2,47,-1
 170 194 l 1,48,-1
 170 148 l 2,49,50
 170 87 170 87 211 79 c 1,51,-1
 211 57 l 1,52,-1
 110 0 l 1,53,54
 88 9 88 9 69 29.5 c 128,-1,55
 50 50 50 50 50 68 c 2,56,-1
 50 489 l 1,57,-1
 -11 489 l 1,58,-1
 -11 511 l 1,59,-1
 50 538 l 1,60,-1
 50 657 l 2,0,1
197 495 m 0,61,62
 175 495 175 495 170 466 c 1,63,-1
 170 248 l 1,64,65
 220 273 220 273 243 283 c 1,66,-1
 243 413 l 2,67,68
 243 456 243 456 229.5 475.5 c 128,-1,69
 216 495 216 495 197 495 c 0,61,62
EndSplineSet
EndChar

StartChar: agrave
Encoding: 224 224 162
Width: 410
GlyphClass: 2
Flags: W
LayerCount: 2
Fore
SplineSet
370 438 m 2,0,-1
 370 155 l 2,1,2
 370 118 370 118 382 103.5 c 128,-1,3
 394 89 394 89 419 83 c 1,4,-1
 419 61 l 1,5,-1
 310 0 l 1,6,7
 288 9 288 9 269 29.5 c 128,-1,8
 250 50 250 50 250 67 c 1,9,-1
 125 0 l 1,10,11
 122 2 122 2 116 5.5 c 128,-1,12
 110 9 110 9 95.5 20.5 c 128,-1,13
 81 32 81 32 70 45 c 0,14,15
 40 78 40 78 40 120 c 2,16,-1
 40 284 l 2,17,18
 40 300 40 300 92 325 c 128,-1,19
 144 350 144 350 196 366 c 2,20,-1
 249 383 l 1,21,22
 249 440 249 440 219 462.5 c 128,-1,23
 189 485 189 485 103 485 c 1,24,-1
 103 515 l 1,25,26
 258 570 258 570 277 570 c 0,27,28
 310 570 310 570 340 527 c 128,-1,29
 370 484 370 484 370 438 c 2,0,-1
175.5 113.5 m 128,-1,31
 191 97 191 97 210 97 c 128,-1,32
 229 97 229 97 250 112 c 1,33,-1
 250 338 l 1,34,35
 225 329 225 329 212.5 323 c 128,-1,36
 200 317 200 317 186 304 c 0,37,38
 160 280 160 280 160 221 c 2,39,-1
 160 156 l 2,40,30
 160 130 160 130 175.5 113.5 c 128,-1,31
248 731 m 128,-1,42
 264 693 264 693 264 678 c 128,-1,43
 264 663 264 663 261 652 c 0,44,45
 255 631 255 631 248 631 c 0,46,47
 223 631 223 631 213 643 c 0,48,49
 123 759 123 759 123 787 c 0,50,51
 123 806 123 806 166 806 c 128,-1,52
 209 806 209 806 215 796 c 0,53,41
 232 769 232 769 248 731 c 128,-1,42
EndSplineSet
EndChar

StartChar: aacute
Encoding: 225 225 163
Width: 410
GlyphClass: 2
Flags: W
LayerCount: 2
Fore
SplineSet
370 438 m 2,0,-1
 370 155 l 2,1,2
 370 118 370 118 382 103.5 c 128,-1,3
 394 89 394 89 419 83 c 1,4,-1
 419 61 l 1,5,-1
 310 0 l 1,6,7
 288 9 288 9 269 29.5 c 128,-1,8
 250 50 250 50 250 67 c 1,9,-1
 125 0 l 1,10,11
 122 2 122 2 116 5.5 c 128,-1,12
 110 9 110 9 95.5 20.5 c 128,-1,13
 81 32 81 32 70 45 c 0,14,15
 40 78 40 78 40 120 c 2,16,-1
 40 284 l 2,17,18
 40 300 40 300 92 325 c 128,-1,19
 144 350 144 350 196 366 c 2,20,-1
 249 383 l 1,21,22
 249 440 249 440 219 462.5 c 128,-1,23
 189 485 189 485 103 485 c 1,24,-1
 103 515 l 1,25,26
 258 570 258 570 277 570 c 0,27,28
 310 570 310 570 340 527 c 128,-1,29
 370 484 370 484 370 438 c 2,0,-1
175.5 113.5 m 128,-1,31
 191 97 191 97 210 97 c 128,-1,32
 229 97 229 97 250 112 c 1,33,-1
 250 338 l 1,34,35
 225 329 225 329 212.5 323 c 128,-1,36
 200 317 200 317 186 304 c 0,37,38
 160 280 160 280 160 221 c 2,39,-1
 160 156 l 2,40,30
 160 130 160 130 175.5 113.5 c 128,-1,31
276 796 m 0,41,42
 282 806 282 806 325 806 c 128,-1,43
 368 806 368 806 368 787 c 0,44,45
 368 759 368 759 278 643 c 0,46,47
 268 631 268 631 243 631 c 0,48,49
 236 631 236 631 231.5 647 c 128,-1,50
 227 663 227 663 227 678 c 128,-1,51
 227 693 227 693 243 731 c 128,-1,52
 259 769 259 769 276 796 c 0,41,42
EndSplineSet
EndChar

StartChar: acircumflex
Encoding: 226 226 164
Width: 410
GlyphClass: 2
Flags: W
LayerCount: 2
Fore
SplineSet
370 438 m 2,0,-1
 370 155 l 2,1,2
 370 118 370 118 382 103.5 c 128,-1,3
 394 89 394 89 419 83 c 1,4,-1
 419 61 l 1,5,-1
 310 0 l 1,6,7
 288 9 288 9 269 29.5 c 128,-1,8
 250 50 250 50 250 67 c 1,9,-1
 125 0 l 1,10,11
 122 2 122 2 116 5.5 c 128,-1,12
 110 9 110 9 95.5 20.5 c 128,-1,13
 81 32 81 32 70 45 c 0,14,15
 40 78 40 78 40 120 c 2,16,-1
 40 284 l 2,17,18
 40 300 40 300 92 325 c 128,-1,19
 144 350 144 350 196 366 c 2,20,-1
 249 383 l 1,21,22
 249 440 249 440 219 462.5 c 128,-1,23
 189 485 189 485 103 485 c 1,24,-1
 103 515 l 1,25,26
 258 570 258 570 277 570 c 0,27,28
 310 570 310 570 340 527 c 128,-1,29
 370 484 370 484 370 438 c 2,0,-1
175.5 113.5 m 128,-1,31
 191 97 191 97 210 97 c 128,-1,32
 229 97 229 97 250 112 c 1,33,-1
 250 338 l 1,34,35
 225 329 225 329 212.5 323 c 128,-1,36
 200 317 200 317 186 304 c 0,37,38
 160 280 160 280 160 221 c 2,39,-1
 160 156 l 2,40,30
 160 130 160 130 175.5 113.5 c 128,-1,31
369 724.5 m 128,-1,42
 410 684 410 684 410 673.5 c 128,-1,43
 410 663 410 663 407 652 c 0,44,45
 401 631 401 631 394 631 c 0,46,47
 382 631 382 631 335.5 661.5 c 128,-1,48
 289 692 289 692 242 730 c 1,49,50
 195 692 195 692 148.5 661.5 c 128,-1,51
 102 631 102 631 90 631 c 0,52,53
 83 631 83 631 78.5 647 c 128,-1,54
 74 663 74 663 74 670.5 c 128,-1,55
 74 678 74 678 82.5 688 c 128,-1,56
 91 698 91 698 105 712.5 c 128,-1,57
 119 727 119 727 133 740 c 0,58,59
 175 779 175 779 188.5 792.5 c 128,-1,60
 202 806 202 806 239.5 806 c 128,-1,61
 277 806 277 806 297 791 c 1,62,41
 328 765 328 765 369 724.5 c 128,-1,42
EndSplineSet
EndChar

StartChar: atilde
Encoding: 227 227 165
Width: 410
GlyphClass: 2
Flags: W
LayerCount: 2
Fore
SplineSet
370 438 m 2,0,-1
 370 155 l 2,1,2
 370 118 370 118 382 103.5 c 128,-1,3
 394 89 394 89 419 83 c 1,4,-1
 419 61 l 1,5,-1
 310 0 l 1,6,7
 288 9 288 9 269 29.5 c 128,-1,8
 250 50 250 50 250 67 c 1,9,-1
 125 0 l 1,10,11
 122 2 122 2 116 5.5 c 128,-1,12
 110 9 110 9 95.5 20.5 c 128,-1,13
 81 32 81 32 70 45 c 0,14,15
 40 78 40 78 40 120 c 2,16,-1
 40 284 l 2,17,18
 40 300 40 300 92 325 c 128,-1,19
 144 350 144 350 196 366 c 2,20,-1
 249 383 l 1,21,22
 249 440 249 440 219 462.5 c 128,-1,23
 189 485 189 485 103 485 c 1,24,-1
 103 515 l 1,25,26
 258 570 258 570 277 570 c 0,27,28
 310 570 310 570 340 527 c 128,-1,29
 370 484 370 484 370 438 c 2,0,-1
175.5 113.5 m 128,-1,31
 191 97 191 97 210 97 c 128,-1,32
 229 97 229 97 250 112 c 1,33,-1
 250 338 l 1,34,35
 225 329 225 329 212.5 323 c 128,-1,36
 200 317 200 317 186 304 c 0,37,38
 160 280 160 280 160 221 c 2,39,-1
 160 156 l 2,40,30
 160 130 160 130 175.5 113.5 c 128,-1,31
343 630 m 0,41,42
 318 630 318 630 272.5 644.5 c 128,-1,43
 227 659 227 659 203 659 c 128,-1,44
 179 659 179 659 162 651 c 128,-1,45
 145 643 145 643 140 632 c 1,46,-1
 119 632 l 1,47,-1
 81 705 l 1,48,49
 112 745 112 745 144 745 c 128,-1,50
 176 745 176 745 226 731.5 c 128,-1,51
 276 718 276 718 292 718 c 0,52,53
 342 718 342 718 352 743 c 1,54,-1
 372 743 l 1,55,-1
 411 670 l 1,56,57
 380 630 380 630 343 630 c 0,41,42
EndSplineSet
EndChar

StartChar: adieresis
Encoding: 228 228 166
Width: 410
GlyphClass: 2
Flags: W
LayerCount: 2
Fore
SplineSet
370 438 m 2,0,-1
 370 155 l 2,1,2
 370 118 370 118 382 103.5 c 128,-1,3
 394 89 394 89 419 83 c 1,4,-1
 419 61 l 1,5,-1
 310 0 l 1,6,7
 288 9 288 9 269 29.5 c 128,-1,8
 250 50 250 50 250 67 c 1,9,-1
 125 0 l 1,10,11
 122 2 122 2 116 5.5 c 128,-1,12
 110 9 110 9 95.5 20.5 c 128,-1,13
 81 32 81 32 70 45 c 0,14,15
 40 78 40 78 40 120 c 2,16,-1
 40 284 l 2,17,18
 40 300 40 300 92 325 c 128,-1,19
 144 350 144 350 196 366 c 2,20,-1
 249 383 l 1,21,22
 249 440 249 440 219 462.5 c 128,-1,23
 189 485 189 485 103 485 c 1,24,-1
 103 515 l 1,25,26
 258 570 258 570 277 570 c 0,27,28
 310 570 310 570 340 527 c 128,-1,29
 370 484 370 484 370 438 c 2,0,-1
175.5 113.5 m 128,-1,31
 191 97 191 97 210 97 c 128,-1,32
 229 97 229 97 250 112 c 1,33,-1
 250 338 l 1,34,35
 225 329 225 329 212.5 323 c 128,-1,36
 200 317 200 317 186 304 c 0,37,38
 160 280 160 280 160 221 c 2,39,-1
 160 156 l 2,40,30
 160 130 160 130 175.5 113.5 c 128,-1,31
95 688 m 2,41,-1
 95 742 l 2,42,43
 95 745 95 745 132.5 759 c 128,-1,44
 170 773 170 773 176 773 c 128,-1,45
 182 773 182 773 193 758 c 128,-1,46
 204 743 204 743 204 726 c 2,47,-1
 204 661 l 2,48,49
 204 658 204 658 168.5 644 c 128,-1,50
 133 630 133 630 124.5 630 c 128,-1,51
 116 630 116 630 105.5 646 c 128,-1,52
 95 662 95 662 95 688 c 2,41,-1
302 688 m 2,53,-1
 302 742 l 2,54,55
 302 745 302 745 339.5 759 c 128,-1,56
 377 773 377 773 383 773 c 128,-1,57
 389 773 389 773 400 758 c 128,-1,58
 411 743 411 743 411 726 c 2,59,-1
 411 661 l 2,60,61
 411 658 411 658 375.5 644 c 128,-1,62
 340 630 340 630 331.5 630 c 128,-1,63
 323 630 323 630 312.5 646 c 128,-1,64
 302 662 302 662 302 688 c 2,53,-1
EndSplineSet
EndChar

StartChar: aring
Encoding: 229 229 167
Width: 410
GlyphClass: 2
Flags: W
LayerCount: 2
Fore
SplineSet
370 438 m 2,0,-1
 370 155 l 2,1,2
 370 118 370 118 382 103.5 c 128,-1,3
 394 89 394 89 419 83 c 1,4,-1
 419 61 l 1,5,-1
 310 0 l 1,6,7
 288 9 288 9 269 29.5 c 128,-1,8
 250 50 250 50 250 67 c 1,9,-1
 125 0 l 1,10,11
 122 2 122 2 116 5.5 c 128,-1,12
 110 9 110 9 95.5 20.5 c 128,-1,13
 81 32 81 32 70 45 c 0,14,15
 40 78 40 78 40 120 c 2,16,-1
 40 284 l 2,17,18
 40 300 40 300 92 325 c 128,-1,19
 144 350 144 350 196 366 c 2,20,-1
 249 383 l 1,21,22
 249 440 249 440 219 462.5 c 128,-1,23
 189 485 189 485 103 485 c 1,24,-1
 103 515 l 1,25,26
 258 570 258 570 277 570 c 0,27,28
 310 570 310 570 340 527 c 128,-1,29
 370 484 370 484 370 438 c 2,0,-1
175.5 113.5 m 128,-1,31
 191 97 191 97 210 97 c 128,-1,32
 229 97 229 97 250 112 c 1,33,-1
 250 338 l 1,34,35
 225 329 225 329 212.5 323 c 128,-1,36
 200 317 200 317 186 304 c 0,37,38
 160 280 160 280 160 221 c 2,39,-1
 160 156 l 2,40,30
 160 130 160 130 175.5 113.5 c 128,-1,31
172 691 m 2,41,-1
 172 753 l 2,42,43
 172 756 172 756 225 774 c 128,-1,44
 278 792 278 792 285 792 c 128,-1,45
 292 792 292 792 306.5 774.5 c 128,-1,46
 321 757 321 757 321 744 c 2,47,-1
 321 669 l 2,48,49
 321 666 321 666 270 648 c 128,-1,50
 219 630 219 630 208.5 630 c 128,-1,51
 198 630 198 630 185 647.5 c 128,-1,52
 172 665 172 665 172 691 c 2,41,-1
249 669 m 0,53,54
 256 669 256 669 260 675 c 1,55,-1
 260 722 l 2,56,57
 260 753 260 753 244 753 c 0,58,59
 236 753 236 753 232 747 c 1,60,-1
 232 700 l 2,61,62
 232 669 232 669 249 669 c 0,53,54
EndSplineSet
EndChar

StartChar: ae
Encoding: 230 230 168
Width: 600
GlyphClass: 2
Flags: W
LayerCount: 2
Fore
SplineSet
485 570 m 0,0,1
 490 570 490 570 510 554.5 c 128,-1,2
 530 539 530 539 550 511.5 c 128,-1,3
 570 484 570 484 570 458 c 2,4,-1
 570 290 l 2,5,6
 570 272 570 272 517 246 c 128,-1,7
 464 220 464 220 414.5 203.5 c 128,-1,8
 365 187 365 187 361 187 c 1,9,10
 361 110 361 110 428 92 c 0,11,12
 461 84 461 84 507 84 c 1,13,-1
 507 55 l 1,14,15
 343 0 343 0 327.5 0 c 128,-1,16
 312 0 312 0 289.5 21 c 128,-1,17
 267 42 267 42 253 75 c 1,18,-1
 115 0 l 1,19,20
 112 2 112 2 106 5.5 c 128,-1,21
 100 9 100 9 85.5 20.5 c 128,-1,22
 71 32 71 32 60 45 c 0,23,24
 30 78 30 78 30 120 c 2,25,-1
 30 284 l 2,26,27
 30 300 30 300 82 325 c 128,-1,28
 134 350 134 350 186 366 c 2,29,-1
 239 383 l 1,30,31
 239 440 239 440 209 462.5 c 128,-1,32
 179 485 179 485 93 485 c 1,33,-1
 93 515 l 1,34,35
 248 570 248 570 267 570 c 0,36,37
 303 570 303 570 334 520 c 1,38,39
 467 570 467 570 485 570 c 0,0,1
437 458.5 m 128,-1,41
 424 478 424 478 404 478 c 128,-1,42
 384 478 384 478 360 463 c 1,43,-1
 360 232 l 1,44,45
 450 257 450 257 450 340 c 2,46,-1
 450 411 l 2,47,40
 450 439 450 439 437 458.5 c 128,-1,41
165.5 113.5 m 128,-1,49
 181 97 181 97 200 97 c 128,-1,50
 219 97 219 97 240 112 c 1,51,-1
 240 338 l 1,52,53
 215 329 215 329 202.5 323 c 128,-1,54
 190 317 190 317 176 304 c 0,55,56
 150 280 150 280 150 221 c 2,57,-1
 150 156 l 2,58,48
 150 130 150 130 165.5 113.5 c 128,-1,49
EndSplineSet
EndChar

StartChar: ccedilla
Encoding: 231 231 169
Width: 404
GlyphClass: 2
Flags: W
LayerCount: 2
Fore
SplineSet
188 473 m 0,0,1
 202 473 202 473 225 391.5 c 128,-1,2
 248 310 248 310 263 310 c 0,3,4
 267 310 267 310 319.5 335.5 c 128,-1,5
 372 361 372 361 394 371 c 1,6,-1
 394 391 l 1,7,8
 362 391 362 391 350.5 410.5 c 128,-1,9
 339 430 339 430 328.5 471 c 128,-1,10
 318 512 318 512 310 541 c 128,-1,11
 302 570 302 570 296 570 c 0,12,13
 279 570 279 570 164.5 527.5 c 128,-1,14
 50 485 50 485 50 478 c 2,15,-1
 50 142 l 2,16,17
 50 85 50 85 81 42.5 c 128,-1,18
 112 0 112 0 142 0 c 0,19,20
 153 0 153 0 317 55 c 1,21,-1
 317 84 l 1,22,23
 270 84 270 84 236 92 c 1,24,25
 170 110 170 110 170 187 c 2,26,-1
 170 463 l 1,27,28
 178 473 178 473 188 473 c 0,0,1
179 -83 m 1,29,-1
 121 -101 l 1,30,31
 112 -101 112 -101 104.5 -82.5 c 128,-1,32
 97 -64 97 -64 97 -46 c 0,33,34
 97 -14 97 -14 113 21 c 2,35,-1
 118 32 l 1,36,-1
 184 32 l 1,37,38
 170 -20 170 -20 170 -31.5 c 128,-1,39
 170 -43 170 -43 177 -43 c 1,40,-1
 231 -27 l 1,41,42
 241 -27 241 -27 248 -44 c 128,-1,43
 255 -61 255 -61 255 -85 c 2,44,-1
 255 -126 l 2,45,46
 255 -133 255 -133 196.5 -151 c 128,-1,47
 138 -169 138 -169 130 -169 c 0,48,49
 115 -169 115 -169 115 -148 c 0,50,51
 115 -144 115 -144 178 -123 c 0,52,53
 189 -119 189 -119 189 -111 c 2,54,-1
 189 -100 l 2,55,56
 189 -83 189 -83 179 -83 c 1,29,-1
EndSplineSet
EndChar

StartChar: egrave
Encoding: 232 232 170
Width: 430
GlyphClass: 2
Flags: W
LayerCount: 2
Fore
SplineSet
295 570 m 0,0,1
 300 570 300 570 320 554.5 c 128,-1,2
 340 539 340 539 360 511.5 c 128,-1,3
 380 484 380 484 380 458 c 2,4,-1
 380 290 l 2,5,6
 380 272 380 272 327 246 c 128,-1,7
 274 220 274 220 224.5 203.5 c 128,-1,8
 175 187 175 187 171 187 c 1,9,10
 171 110 171 110 238 92 c 0,11,12
 271 84 271 84 317 84 c 1,13,-1
 317 55 l 1,14,15
 153 0 153 0 142 0 c 0,16,17
 112 0 112 0 81 42.5 c 128,-1,18
 50 85 50 85 50 142 c 2,19,-1
 50 478 l 2,20,21
 50 485 50 485 164 527.5 c 128,-1,22
 278 570 278 570 295 570 c 0,0,1
247 458.5 m 128,-1,24
 234 478 234 478 214 478 c 128,-1,25
 194 478 194 478 170 463 c 1,26,-1
 170 232 l 1,27,28
 260 257 260 257 260 340 c 2,29,-1
 260 411 l 2,30,23
 260 439 260 439 247 458.5 c 128,-1,24
266 731 m 128,-1,32
 282 693 282 693 282 678 c 128,-1,33
 282 663 282 663 279 652 c 0,34,35
 273 631 273 631 266 631 c 0,36,37
 241 631 241 631 231 643 c 0,38,39
 141 759 141 759 141 787 c 0,40,41
 141 806 141 806 184 806 c 128,-1,42
 227 806 227 806 233 796 c 0,43,31
 250 769 250 769 266 731 c 128,-1,32
EndSplineSet
EndChar

StartChar: eacute
Encoding: 233 233 171
Width: 430
GlyphClass: 2
Flags: W
LayerCount: 2
Fore
SplineSet
295 570 m 0,0,1
 300 570 300 570 320 554.5 c 128,-1,2
 340 539 340 539 360 511.5 c 128,-1,3
 380 484 380 484 380 458 c 2,4,-1
 380 290 l 2,5,6
 380 272 380 272 327 246 c 128,-1,7
 274 220 274 220 224.5 203.5 c 128,-1,8
 175 187 175 187 171 187 c 1,9,10
 171 110 171 110 238 92 c 0,11,12
 271 84 271 84 317 84 c 1,13,-1
 317 55 l 1,14,15
 153 0 153 0 142 0 c 0,16,17
 112 0 112 0 81 42.5 c 128,-1,18
 50 85 50 85 50 142 c 2,19,-1
 50 478 l 2,20,21
 50 485 50 485 164 527.5 c 128,-1,22
 278 570 278 570 295 570 c 0,0,1
247 458.5 m 128,-1,24
 234 478 234 478 214 478 c 128,-1,25
 194 478 194 478 170 463 c 1,26,-1
 170 232 l 1,27,28
 260 257 260 257 260 340 c 2,29,-1
 260 411 l 2,30,23
 260 439 260 439 247 458.5 c 128,-1,24
292 796 m 0,31,32
 298 806 298 806 341 806 c 128,-1,33
 384 806 384 806 384 787 c 0,34,35
 384 759 384 759 294 643 c 0,36,37
 284 631 284 631 259 631 c 0,38,39
 252 631 252 631 247.5 647 c 128,-1,40
 243 663 243 663 243 678 c 128,-1,41
 243 693 243 693 259 731 c 128,-1,42
 275 769 275 769 292 796 c 0,31,32
EndSplineSet
EndChar

StartChar: ecircumflex
Encoding: 234 234 172
Width: 430
GlyphClass: 2
Flags: W
LayerCount: 2
Fore
SplineSet
295 570 m 0,0,1
 300 570 300 570 320 554.5 c 128,-1,2
 340 539 340 539 360 511.5 c 128,-1,3
 380 484 380 484 380 458 c 2,4,-1
 380 290 l 2,5,6
 380 272 380 272 327 246 c 128,-1,7
 274 220 274 220 224.5 203.5 c 128,-1,8
 175 187 175 187 171 187 c 1,9,10
 171 110 171 110 238 92 c 0,11,12
 271 84 271 84 317 84 c 1,13,-1
 317 55 l 1,14,15
 153 0 153 0 142 0 c 0,16,17
 112 0 112 0 81 42.5 c 128,-1,18
 50 85 50 85 50 142 c 2,19,-1
 50 478 l 2,20,21
 50 485 50 485 164 527.5 c 128,-1,22
 278 570 278 570 295 570 c 0,0,1
247 458.5 m 128,-1,24
 234 478 234 478 214 478 c 128,-1,25
 194 478 194 478 170 463 c 1,26,-1
 170 232 l 1,27,28
 260 257 260 257 260 340 c 2,29,-1
 260 411 l 2,30,23
 260 439 260 439 247 458.5 c 128,-1,24
351 724.5 m 128,-1,32
 392 684 392 684 392 673.5 c 128,-1,33
 392 663 392 663 389 652 c 0,34,35
 383 631 383 631 376 631 c 0,36,37
 364 631 364 631 317.5 661.5 c 128,-1,38
 271 692 271 692 224 730 c 1,39,40
 177 692 177 692 130.5 661.5 c 128,-1,41
 84 631 84 631 72 631 c 0,42,43
 65 631 65 631 60.5 647 c 128,-1,44
 56 663 56 663 56 670.5 c 128,-1,45
 56 678 56 678 64.5 688 c 128,-1,46
 73 698 73 698 87 712.5 c 128,-1,47
 101 727 101 727 115 740 c 0,48,49
 157 779 157 779 170.5 792.5 c 128,-1,50
 184 806 184 806 221.5 806 c 128,-1,51
 259 806 259 806 279 791 c 1,52,31
 310 765 310 765 351 724.5 c 128,-1,32
EndSplineSet
EndChar

StartChar: edieresis
Encoding: 235 235 173
Width: 430
GlyphClass: 2
Flags: W
LayerCount: 2
Fore
SplineSet
295 570 m 0,0,1
 300 570 300 570 320 554.5 c 128,-1,2
 340 539 340 539 360 511.5 c 128,-1,3
 380 484 380 484 380 458 c 2,4,-1
 380 290 l 2,5,6
 380 272 380 272 327 246 c 128,-1,7
 274 220 274 220 224.5 203.5 c 128,-1,8
 175 187 175 187 171 187 c 1,9,10
 171 110 171 110 238 92 c 0,11,12
 271 84 271 84 317 84 c 1,13,-1
 317 55 l 1,14,15
 153 0 153 0 142 0 c 0,16,17
 112 0 112 0 81 42.5 c 128,-1,18
 50 85 50 85 50 142 c 2,19,-1
 50 478 l 2,20,21
 50 485 50 485 164 527.5 c 128,-1,22
 278 570 278 570 295 570 c 0,0,1
247 458.5 m 128,-1,24
 234 478 234 478 214 478 c 128,-1,25
 194 478 194 478 170 463 c 1,26,-1
 170 232 l 1,27,28
 260 257 260 257 260 340 c 2,29,-1
 260 411 l 2,30,23
 260 439 260 439 247 458.5 c 128,-1,24
56 688 m 2,31,-1
 56 742 l 2,32,33
 56 745 56 745 93.5 759 c 128,-1,34
 131 773 131 773 137 773 c 128,-1,35
 143 773 143 773 154 758 c 128,-1,36
 165 743 165 743 165 726 c 2,37,-1
 165 661 l 2,38,39
 165 658 165 658 129.5 644 c 128,-1,40
 94 630 94 630 85.5 630 c 128,-1,41
 77 630 77 630 66.5 646 c 128,-1,42
 56 662 56 662 56 688 c 2,31,-1
263 688 m 2,43,-1
 263 742 l 2,44,45
 263 745 263 745 300.5 759 c 128,-1,46
 338 773 338 773 344 773 c 128,-1,47
 350 773 350 773 361 758 c 128,-1,48
 372 743 372 743 372 726 c 2,49,-1
 372 661 l 2,50,51
 372 658 372 658 336.5 644 c 128,-1,52
 301 630 301 630 292.5 630 c 128,-1,53
 284 630 284 630 273.5 646 c 128,-1,54
 263 662 263 662 263 688 c 2,43,-1
EndSplineSet
EndChar

StartChar: igrave
Encoding: 236 236 174
Width: 220
GlyphClass: 2
Flags: W
LayerCount: 2
Fore
SplineSet
170 502 m 2,0,-1
 170 148 l 2,1,2
 170 87 170 87 211 79 c 1,3,-1
 211 57 l 1,4,-1
 110 0 l 1,5,6
 88 9 88 9 69 29.5 c 128,-1,7
 50 50 50 50 50 68 c 2,8,-1
 50 422 l 2,9,10
 50 483 50 483 9 491 c 1,11,-1
 9 513 l 1,12,-1
 110 570 l 1,13,14
 132 561 132 561 151 540.5 c 128,-1,15
 170 520 170 520 170 502 c 2,0,-1
137 731 m 128,-1,17
 153 693 153 693 153 678 c 128,-1,18
 153 663 153 663 150 652 c 0,19,20
 144 631 144 631 137 631 c 0,21,22
 112 631 112 631 102 643 c 0,23,24
 12 759 12 759 12 787 c 0,25,26
 12 806 12 806 55 806 c 128,-1,27
 98 806 98 806 104 796 c 0,28,16
 121 769 121 769 137 731 c 128,-1,17
EndSplineSet
EndChar

StartChar: iacute
Encoding: 237 237 175
Width: 220
GlyphClass: 2
Flags: W
LayerCount: 2
Fore
SplineSet
170 502 m 2,0,-1
 170 148 l 2,1,2
 170 87 170 87 211 79 c 1,3,-1
 211 57 l 1,4,-1
 110 0 l 1,5,6
 88 9 88 9 69 29.5 c 128,-1,7
 50 50 50 50 50 68 c 2,8,-1
 50 422 l 2,9,10
 50 483 50 483 9 491 c 1,11,-1
 9 513 l 1,12,-1
 110 570 l 1,13,14
 132 561 132 561 151 540.5 c 128,-1,15
 170 520 170 520 170 502 c 2,0,-1
98 796 m 0,16,17
 104 806 104 806 147 806 c 128,-1,18
 190 806 190 806 190 787 c 0,19,20
 190 759 190 759 100 643 c 0,21,22
 90 631 90 631 65 631 c 0,23,24
 58 631 58 631 53.5 647 c 128,-1,25
 49 663 49 663 49 678 c 128,-1,26
 49 693 49 693 65 731 c 128,-1,27
 81 769 81 769 98 796 c 0,16,17
EndSplineSet
EndChar

StartChar: icircumflex
Encoding: 238 238 176
Width: 220
GlyphClass: 2
Flags: W
LayerCount: 2
Fore
SplineSet
170 502 m 2,0,-1
 170 148 l 2,1,2
 170 87 170 87 211 79 c 1,3,-1
 211 57 l 1,4,-1
 110 0 l 1,5,6
 88 9 88 9 69 29.5 c 128,-1,7
 50 50 50 50 50 68 c 2,8,-1
 50 422 l 2,9,10
 50 483 50 483 9 491 c 1,11,-1
 9 513 l 1,12,-1
 110 570 l 1,13,14
 132 561 132 561 151 540.5 c 128,-1,15
 170 520 170 520 170 502 c 2,0,-1
239 724.5 m 128,-1,17
 280 684 280 684 280 673.5 c 128,-1,18
 280 663 280 663 277 652 c 0,19,20
 271 631 271 631 264 631 c 0,21,22
 252 631 252 631 205.5 661.5 c 128,-1,23
 159 692 159 692 112 730 c 1,24,25
 65 692 65 692 18.5 661.5 c 128,-1,26
 -28 631 -28 631 -40 631 c 0,27,28
 -47 631 -47 631 -51.5 647 c 128,-1,29
 -56 663 -56 663 -56 670.5 c 128,-1,30
 -56 678 -56 678 -47.5 688 c 128,-1,31
 -39 698 -39 698 -25 712.5 c 128,-1,32
 -11 727 -11 727 3 740 c 0,33,34
 45 779 45 779 58.5 792.5 c 128,-1,35
 72 806 72 806 109.5 806 c 128,-1,36
 147 806 147 806 167 791 c 1,37,16
 198 765 198 765 239 724.5 c 128,-1,17
EndSplineSet
EndChar

StartChar: idieresis
Encoding: 239 239 177
Width: 220
GlyphClass: 2
Flags: W
LayerCount: 2
Fore
SplineSet
170 502 m 2,0,-1
 170 148 l 2,1,2
 170 87 170 87 211 79 c 1,3,-1
 211 57 l 1,4,-1
 110 0 l 1,5,6
 88 9 88 9 69 29.5 c 128,-1,7
 50 50 50 50 50 68 c 2,8,-1
 50 422 l 2,9,10
 50 483 50 483 9 491 c 1,11,-1
 9 513 l 1,12,-1
 110 570 l 1,13,14
 132 561 132 561 151 540.5 c 128,-1,15
 170 520 170 520 170 502 c 2,0,-1
-48 688 m 2,16,-1
 -48 742 l 2,17,18
 -48 745 -48 745 -10.5 759 c 128,-1,19
 27 773 27 773 33 773 c 128,-1,20
 39 773 39 773 50 758 c 128,-1,21
 61 743 61 743 61 726 c 2,22,-1
 61 661 l 2,23,24
 61 658 61 658 25.5 644 c 128,-1,25
 -10 630 -10 630 -18.5 630 c 128,-1,26
 -27 630 -27 630 -37.5 646 c 128,-1,27
 -48 662 -48 662 -48 688 c 2,16,-1
159 688 m 2,28,-1
 159 742 l 2,29,30
 159 745 159 745 196.5 759 c 128,-1,31
 234 773 234 773 240 773 c 128,-1,32
 246 773 246 773 257 758 c 128,-1,33
 268 743 268 743 268 726 c 2,34,-1
 268 661 l 2,35,36
 268 658 268 658 232.5 644 c 128,-1,37
 197 630 197 630 188.5 630 c 128,-1,38
 180 630 180 630 169.5 646 c 128,-1,39
 159 662 159 662 159 688 c 2,28,-1
EndSplineSet
EndChar

StartChar: eth
Encoding: 240 240 178
Width: 431
GlyphClass: 2
Flags: W
LayerCount: 2
Fore
SplineSet
98 690 m 2,0,-1
 69 690 l 1,1,-1
 69 720 l 1,2,3
 176 770 176 770 227 770 c 0,4,5
 251 770 251 770 308 673 c 1,6,-1
 397 712 l 1,7,-1
 407 690 l 1,8,-1
 379 629 l 1,9,-1
 340 611 l 1,10,11
 381 522 381 522 381 477 c 2,12,-1
 381 94 l 2,13,14
 381 85 381 85 274 42.5 c 128,-1,15
 167 0 167 0 135 0 c 0,16,17
 128 0 128 0 108.5 15.5 c 128,-1,18
 89 31 89 31 69.5 60.5 c 128,-1,19
 50 90 50 90 50 121 c 2,20,-1
 50 415 l 2,21,22
 50 419 50 419 75.5 431 c 128,-1,23
 101 443 101 443 152 459 c 128,-1,24
 203 475 203 475 258 484 c 1,25,26
 258 517 258 517 235 565 c 1,27,-1
 131 519 l 1,28,-1
 122 540 l 1,29,-1
 149 603 l 1,30,-1
 198 624 l 1,31,32
 146 690 146 690 98 690 c 2,0,-1
221 92 m 0,33,34
 241 92 241 92 259 108 c 1,35,-1
 259 433 l 1,36,37
 230 433 230 433 185 415 c 2,38,-1
 170 409 l 1,39,-1
 170 166 l 2,40,41
 170 92 170 92 221 92 c 0,33,34
EndSplineSet
EndChar

StartChar: ntilde
Encoding: 241 241 179
Width: 430
GlyphClass: 2
Flags: W
LayerCount: 2
Fore
SplineSet
50 68 m 2,0,-1
 50 407 l 2,1,2
 50 440 50 440 36 464 c 128,-1,3
 22 488 22 488 1 488 c 1,4,-1
 1 510 l 1,5,6
 8 511 8 511 110 571 c 1,7,8
 117 569 117 569 127 565.5 c 128,-1,9
 137 562 137 562 153.5 546 c 128,-1,10
 170 530 170 530 170 509 c 1,11,12
 176 512 176 512 204 528 c 0,13,14
 278 570 278 570 292 570 c 0,15,16
 324 570 324 570 352 528 c 128,-1,17
 380 486 380 486 380 451 c 2,18,-1
 380 148 l 2,19,20
 380 93 380 93 429 83 c 1,21,-1
 429 61 l 1,22,-1
 320 0 l 1,23,24
 298 9 298 9 279 29.5 c 128,-1,25
 260 50 260 50 260 68 c 2,26,-1
 260 358 l 2,27,28
 260 414 260 414 247.5 443.5 c 128,-1,29
 235 473 235 473 203 473 c 1,30,-1
 170 467 l 1,31,-1
 170 148 l 2,32,33
 170 87 170 87 211 79 c 1,34,-1
 211 57 l 1,35,-1
 110 0 l 1,36,37
 88 9 88 9 69 29.5 c 128,-1,38
 50 50 50 50 50 68 c 2,0,-1
310 630 m 0,39,40
 285 630 285 630 239.5 644.5 c 128,-1,41
 194 659 194 659 170 659 c 128,-1,42
 146 659 146 659 129 651 c 128,-1,43
 112 643 112 643 107 632 c 1,44,-1
 86 632 l 1,45,-1
 48 705 l 1,46,47
 79 745 79 745 111 745 c 128,-1,48
 143 745 143 745 193 731.5 c 128,-1,49
 243 718 243 718 259 718 c 0,50,51
 309 718 309 718 319 743 c 1,52,-1
 339 743 l 1,53,-1
 378 670 l 1,54,55
 347 630 347 630 310 630 c 0,39,40
EndSplineSet
EndChar

StartChar: ograve
Encoding: 242 242 180
Width: 431
GlyphClass: 2
Flags: W
LayerCount: 2
Fore
SplineSet
50 146 m 2,0,-1
 50 478 l 2,1,2
 50 485 50 485 164 527.5 c 128,-1,3
 278 570 278 570 295 570 c 128,-1,4
 312 570 312 570 346.5 529 c 128,-1,5
 381 488 381 488 381 455 c 2,6,-1
 381 93 l 2,7,8
 381 85 381 85 271.5 42.5 c 128,-1,9
 162 0 162 0 137.5 0 c 128,-1,10
 113 0 113 0 81.5 43 c 128,-1,11
 50 86 50 86 50 146 c 2,0,-1
221 92 m 0,12,13
 240 92 240 92 260 108 c 1,14,-1
 260 403 l 2,15,16
 260 477 260 477 209 477 c 0,17,18
 189 477 189 477 170 462 c 1,19,-1
 170 166 l 2,20,21
 170 92 170 92 221 92 c 0,12,13
266 731 m 128,-1,23
 282 693 282 693 282 678 c 128,-1,24
 282 663 282 663 279 652 c 0,25,26
 273 631 273 631 266 631 c 0,27,28
 241 631 241 631 231 643 c 0,29,30
 141 759 141 759 141 787 c 0,31,32
 141 806 141 806 184 806 c 128,-1,33
 227 806 227 806 233 796 c 0,34,22
 250 769 250 769 266 731 c 128,-1,23
EndSplineSet
EndChar

StartChar: oacute
Encoding: 243 243 181
Width: 431
GlyphClass: 2
Flags: W
LayerCount: 2
Fore
SplineSet
50 146 m 2,0,-1
 50 478 l 2,1,2
 50 485 50 485 164 527.5 c 128,-1,3
 278 570 278 570 295 570 c 128,-1,4
 312 570 312 570 346.5 529 c 128,-1,5
 381 488 381 488 381 455 c 2,6,-1
 381 93 l 2,7,8
 381 85 381 85 271.5 42.5 c 128,-1,9
 162 0 162 0 137.5 0 c 128,-1,10
 113 0 113 0 81.5 43 c 128,-1,11
 50 86 50 86 50 146 c 2,0,-1
221 92 m 0,12,13
 240 92 240 92 260 108 c 1,14,-1
 260 403 l 2,15,16
 260 477 260 477 209 477 c 0,17,18
 189 477 189 477 170 462 c 1,19,-1
 170 166 l 2,20,21
 170 92 170 92 221 92 c 0,12,13
284 796 m 0,22,23
 290 806 290 806 333 806 c 128,-1,24
 376 806 376 806 376 787 c 0,25,26
 376 759 376 759 286 643 c 0,27,28
 276 631 276 631 251 631 c 0,29,30
 244 631 244 631 239.5 647 c 128,-1,31
 235 663 235 663 235 678 c 128,-1,32
 235 693 235 693 251 731 c 128,-1,33
 267 769 267 769 284 796 c 0,22,23
EndSplineSet
EndChar

StartChar: ocircumflex
Encoding: 244 244 182
Width: 431
GlyphClass: 2
Flags: W
LayerCount: 2
Fore
SplineSet
50 146 m 2,0,-1
 50 478 l 2,1,2
 50 485 50 485 164 527.5 c 128,-1,3
 278 570 278 570 295 570 c 128,-1,4
 312 570 312 570 346.5 529 c 128,-1,5
 381 488 381 488 381 455 c 2,6,-1
 381 93 l 2,7,8
 381 85 381 85 271.5 42.5 c 128,-1,9
 162 0 162 0 137.5 0 c 128,-1,10
 113 0 113 0 81.5 43 c 128,-1,11
 50 86 50 86 50 146 c 2,0,-1
221 92 m 0,12,13
 240 92 240 92 260 108 c 1,14,-1
 260 403 l 2,15,16
 260 477 260 477 209 477 c 0,17,18
 189 477 189 477 170 462 c 1,19,-1
 170 166 l 2,20,21
 170 92 170 92 221 92 c 0,12,13
343 724.5 m 128,-1,23
 384 684 384 684 384 673.5 c 128,-1,24
 384 663 384 663 381 652 c 0,25,26
 375 631 375 631 368 631 c 0,27,28
 356 631 356 631 309.5 661.5 c 128,-1,29
 263 692 263 692 216 730 c 1,30,31
 169 692 169 692 122.5 661.5 c 128,-1,32
 76 631 76 631 64 631 c 0,33,34
 57 631 57 631 52.5 647 c 128,-1,35
 48 663 48 663 48 670.5 c 128,-1,36
 48 678 48 678 56.5 688 c 128,-1,37
 65 698 65 698 79 712.5 c 128,-1,38
 93 727 93 727 107 740 c 0,39,40
 149 779 149 779 162.5 792.5 c 128,-1,41
 176 806 176 806 213.5 806 c 128,-1,42
 251 806 251 806 271 791 c 1,43,22
 302 765 302 765 343 724.5 c 128,-1,23
EndSplineSet
EndChar

StartChar: otilde
Encoding: 245 245 183
Width: 431
GlyphClass: 2
Flags: W
LayerCount: 2
Fore
SplineSet
50 146 m 2,0,-1
 50 478 l 2,1,2
 50 485 50 485 164 527.5 c 128,-1,3
 278 570 278 570 295 570 c 128,-1,4
 312 570 312 570 346.5 529 c 128,-1,5
 381 488 381 488 381 455 c 2,6,-1
 381 93 l 2,7,8
 381 85 381 85 271.5 42.5 c 128,-1,9
 162 0 162 0 137.5 0 c 128,-1,10
 113 0 113 0 81.5 43 c 128,-1,11
 50 86 50 86 50 146 c 2,0,-1
221 92 m 0,12,13
 240 92 240 92 260 108 c 1,14,-1
 260 403 l 2,15,16
 260 477 260 477 209 477 c 0,17,18
 189 477 189 477 170 462 c 1,19,-1
 170 166 l 2,20,21
 170 92 170 92 221 92 c 0,12,13
310 630 m 0,22,23
 285 630 285 630 239.5 644.5 c 128,-1,24
 194 659 194 659 170 659 c 128,-1,25
 146 659 146 659 129 651 c 128,-1,26
 112 643 112 643 107 632 c 1,27,-1
 86 632 l 1,28,-1
 48 705 l 1,29,30
 79 745 79 745 111 745 c 128,-1,31
 143 745 143 745 193 731.5 c 128,-1,32
 243 718 243 718 259 718 c 0,33,34
 309 718 309 718 319 743 c 1,35,-1
 339 743 l 1,36,-1
 378 670 l 1,37,38
 347 630 347 630 310 630 c 0,22,23
EndSplineSet
EndChar

StartChar: odieresis
Encoding: 246 246 184
Width: 431
GlyphClass: 2
Flags: W
LayerCount: 2
Fore
SplineSet
50 146 m 2,0,-1
 50 478 l 2,1,2
 50 485 50 485 164 527.5 c 128,-1,3
 278 570 278 570 295 570 c 128,-1,4
 312 570 312 570 346.5 529 c 128,-1,5
 381 488 381 488 381 455 c 2,6,-1
 381 93 l 2,7,8
 381 85 381 85 271.5 42.5 c 128,-1,9
 162 0 162 0 137.5 0 c 128,-1,10
 113 0 113 0 81.5 43 c 128,-1,11
 50 86 50 86 50 146 c 2,0,-1
221 92 m 0,12,13
 240 92 240 92 260 108 c 1,14,-1
 260 403 l 2,15,16
 260 477 260 477 209 477 c 0,17,18
 189 477 189 477 170 462 c 1,19,-1
 170 166 l 2,20,21
 170 92 170 92 221 92 c 0,12,13
56 688 m 2,22,-1
 56 742 l 2,23,24
 56 745 56 745 93.5 759 c 128,-1,25
 131 773 131 773 137 773 c 128,-1,26
 143 773 143 773 154 758 c 128,-1,27
 165 743 165 743 165 726 c 2,28,-1
 165 661 l 2,29,30
 165 658 165 658 129.5 644 c 128,-1,31
 94 630 94 630 85.5 630 c 128,-1,32
 77 630 77 630 66.5 646 c 128,-1,33
 56 662 56 662 56 688 c 2,22,-1
263 688 m 2,34,-1
 263 742 l 2,35,36
 263 745 263 745 300.5 759 c 128,-1,37
 338 773 338 773 344 773 c 128,-1,38
 350 773 350 773 361 758 c 128,-1,39
 372 743 372 743 372 726 c 2,40,-1
 372 661 l 2,41,42
 372 658 372 658 336.5 644 c 128,-1,43
 301 630 301 630 292.5 630 c 128,-1,44
 284 630 284 630 273.5 646 c 128,-1,45
 263 662 263 662 263 688 c 2,34,-1
EndSplineSet
EndChar

StartChar: divide
Encoding: 247 247 185
Width: 421
GlyphClass: 2
Flags: W
LayerCount: 2
Fore
SplineSet
149 102 m 2,0,-1
 149 163 l 2,1,2
 149 166 149 166 190.5 181.5 c 128,-1,3
 232 197 232 197 238.5 197 c 128,-1,4
 245 197 245 197 257.5 180 c 128,-1,5
 270 163 270 163 270 145 c 2,6,-1
 270 72 l 2,7,8
 270 69 270 69 230 53.5 c 128,-1,9
 190 38 190 38 181 38 c 128,-1,10
 172 38 172 38 160.5 55.5 c 128,-1,11
 149 73 149 73 149 102 c 2,0,-1
149 470 m 2,12,-1
 149 531 l 2,13,14
 149 534 149 534 190.5 549.5 c 128,-1,15
 232 565 232 565 238.5 565 c 128,-1,16
 245 565 245 565 257.5 548 c 128,-1,17
 270 531 270 531 270 513 c 2,18,-1
 270 440 l 2,19,20
 270 437 270 437 230 421.5 c 128,-1,21
 190 406 190 406 181 406 c 128,-1,22
 172 406 172 406 160.5 423.5 c 128,-1,23
 149 441 149 441 149 470 c 2,12,-1
411 340 m 1,24,-1
 411 316 l 1,25,-1
 351 261 l 1,26,-1
 10 261 l 1,27,-1
 10 283 l 1,28,-1
 70 340 l 1,29,-1
 411 340 l 1,24,-1
EndSplineSet
EndChar

StartChar: oslash
Encoding: 248 248 186
Width: 431
GlyphClass: 2
Flags: W
LayerCount: 2
Fore
SplineSet
50 146 m 2,0,-1
 50 478 l 2,1,2
 50 483 50 483 133 515.5 c 128,-1,3
 216 548 216 548 268 564 c 1,4,-1
 291 630 l 1,5,-1
 364 669 l 1,6,-1
 389 669 l 1,7,-1
 342 533 l 1,8,9
 381 490 381 490 381 455 c 2,10,-1
 381 93 l 2,11,12
 381 86 381 86 294.5 51 c 128,-1,13
 208 16 208 16 161 4 c 1,14,-1
 139 -60 l 1,15,-1
 64 -98 l 1,16,-1
 42 -98 l 1,17,-1
 87 34 l 1,18,19
 50 82 50 82 50 146 c 2,0,-1
236 469 m 1,20,21
 224 477 224 477 206.5 477 c 128,-1,22
 189 477 189 477 170 462 c 1,23,-1
 170 276 l 1,24,-1
 236 469 l 1,20,21
194 100 m 1,25,26
 205 92 205 92 222.5 92 c 128,-1,27
 240 92 240 92 260 108 c 1,28,-1
 260 292 l 1,29,-1
 194 100 l 1,25,26
EndSplineSet
EndChar

StartChar: ugrave
Encoding: 249 249 187
Width: 430
GlyphClass: 2
Flags: W
LayerCount: 2
Fore
SplineSet
185.5 113.5 m 128,-1,1
 201 97 201 97 220 97 c 128,-1,2
 239 97 239 97 260 112 c 1,3,-1
 260 423 l 2,4,5
 260 484 260 484 219 492 c 1,6,-1
 219 514 l 1,7,-1
 320 571 l 1,8,9
 342 562 342 562 361 541.5 c 128,-1,10
 380 521 380 521 380 503 c 2,11,-1
 380 164 l 2,12,13
 380 131 380 131 394 107 c 128,-1,14
 408 83 408 83 429 83 c 1,15,-1
 429 61 l 1,16,17
 422 60 422 60 320 0 c 1,18,19
 297 10 297 10 278.5 29.5 c 128,-1,20
 260 49 260 49 260 67 c 1,21,-1
 135 0 l 1,22,23
 132 2 132 2 126 5.5 c 128,-1,24
 120 9 120 9 105.5 20.5 c 128,-1,25
 91 32 91 32 80 45 c 0,26,27
 50 78 50 78 50 120 c 2,28,-1
 50 423 l 2,29,30
 50 478 50 478 1 488 c 1,31,-1
 1 510 l 1,32,-1
 110 571 l 1,33,34
 132 562 132 562 151 541.5 c 128,-1,35
 170 521 170 521 170 503 c 2,36,-1
 170 156 l 2,37,0
 170 130 170 130 185.5 113.5 c 128,-1,1
211 731 m 128,-1,39
 227 693 227 693 227 678 c 128,-1,40
 227 663 227 663 224 652 c 0,41,42
 218 631 218 631 211 631 c 0,43,44
 186 631 186 631 176 643 c 0,45,46
 86 759 86 759 86 787 c 0,47,48
 86 806 86 806 129 806 c 128,-1,49
 172 806 172 806 178 796 c 0,50,38
 195 769 195 769 211 731 c 128,-1,39
EndSplineSet
EndChar

StartChar: uacute
Encoding: 250 250 188
Width: 430
GlyphClass: 2
Flags: W
LayerCount: 2
Fore
SplineSet
185.5 113.5 m 128,-1,1
 201 97 201 97 220 97 c 128,-1,2
 239 97 239 97 260 112 c 1,3,-1
 260 423 l 2,4,5
 260 484 260 484 219 492 c 1,6,-1
 219 514 l 1,7,-1
 320 571 l 1,8,9
 342 562 342 562 361 541.5 c 128,-1,10
 380 521 380 521 380 503 c 2,11,-1
 380 164 l 2,12,13
 380 131 380 131 394 107 c 128,-1,14
 408 83 408 83 429 83 c 1,15,-1
 429 61 l 1,16,17
 422 60 422 60 320 0 c 1,18,19
 297 10 297 10 278.5 29.5 c 128,-1,20
 260 49 260 49 260 67 c 1,21,-1
 135 0 l 1,22,23
 132 2 132 2 126 5.5 c 128,-1,24
 120 9 120 9 105.5 20.5 c 128,-1,25
 91 32 91 32 80 45 c 0,26,27
 50 78 50 78 50 120 c 2,28,-1
 50 423 l 2,29,30
 50 478 50 478 1 488 c 1,31,-1
 1 510 l 1,32,-1
 110 571 l 1,33,34
 132 562 132 562 151 541.5 c 128,-1,35
 170 521 170 521 170 503 c 2,36,-1
 170 156 l 2,37,0
 170 130 170 130 185.5 113.5 c 128,-1,1
233 796 m 0,38,39
 239 806 239 806 282 806 c 128,-1,40
 325 806 325 806 325 787 c 0,41,42
 325 759 325 759 235 643 c 0,43,44
 225 631 225 631 200 631 c 0,45,46
 193 631 193 631 188.5 647 c 128,-1,47
 184 663 184 663 184 678 c 128,-1,48
 184 693 184 693 200 731 c 128,-1,49
 216 769 216 769 233 796 c 0,38,39
EndSplineSet
EndChar

StartChar: ucircumflex
Encoding: 251 251 189
Width: 430
GlyphClass: 2
Flags: W
LayerCount: 2
Fore
SplineSet
185.5 113.5 m 128,-1,1
 201 97 201 97 220 97 c 128,-1,2
 239 97 239 97 260 112 c 1,3,-1
 260 423 l 2,4,5
 260 484 260 484 219 492 c 1,6,-1
 219 514 l 1,7,-1
 320 571 l 1,8,9
 342 562 342 562 361 541.5 c 128,-1,10
 380 521 380 521 380 503 c 2,11,-1
 380 164 l 2,12,13
 380 131 380 131 394 107 c 128,-1,14
 408 83 408 83 429 83 c 1,15,-1
 429 61 l 1,16,17
 422 60 422 60 320 0 c 1,18,19
 297 10 297 10 278.5 29.5 c 128,-1,20
 260 49 260 49 260 67 c 1,21,-1
 135 0 l 1,22,23
 132 2 132 2 126 5.5 c 128,-1,24
 120 9 120 9 105.5 20.5 c 128,-1,25
 91 32 91 32 80 45 c 0,26,27
 50 78 50 78 50 120 c 2,28,-1
 50 423 l 2,29,30
 50 478 50 478 1 488 c 1,31,-1
 1 510 l 1,32,-1
 110 571 l 1,33,34
 132 562 132 562 151 541.5 c 128,-1,35
 170 521 170 521 170 503 c 2,36,-1
 170 156 l 2,37,0
 170 130 170 130 185.5 113.5 c 128,-1,1
345 724.5 m 128,-1,39
 386 684 386 684 386 673.5 c 128,-1,40
 386 663 386 663 383 652 c 0,41,42
 377 631 377 631 370 631 c 0,43,44
 358 631 358 631 311.5 661.5 c 128,-1,45
 265 692 265 692 218 730 c 1,46,47
 171 692 171 692 124.5 661.5 c 128,-1,48
 78 631 78 631 66 631 c 0,49,50
 59 631 59 631 54.5 647 c 128,-1,51
 50 663 50 663 50 670.5 c 128,-1,52
 50 678 50 678 58.5 688 c 128,-1,53
 67 698 67 698 81 712.5 c 128,-1,54
 95 727 95 727 109 740 c 0,55,56
 151 779 151 779 164.5 792.5 c 128,-1,57
 178 806 178 806 215.5 806 c 128,-1,58
 253 806 253 806 273 791 c 1,59,38
 304 765 304 765 345 724.5 c 128,-1,39
EndSplineSet
EndChar

StartChar: udieresis
Encoding: 252 252 190
Width: 430
GlyphClass: 2
Flags: W
LayerCount: 2
Fore
SplineSet
185.5 113.5 m 128,-1,1
 201 97 201 97 220 97 c 128,-1,2
 239 97 239 97 260 112 c 1,3,-1
 260 423 l 2,4,5
 260 484 260 484 219 492 c 1,6,-1
 219 514 l 1,7,-1
 320 571 l 1,8,9
 342 562 342 562 361 541.5 c 128,-1,10
 380 521 380 521 380 503 c 2,11,-1
 380 164 l 2,12,13
 380 131 380 131 394 107 c 128,-1,14
 408 83 408 83 429 83 c 1,15,-1
 429 61 l 1,16,17
 422 60 422 60 320 0 c 1,18,19
 297 10 297 10 278.5 29.5 c 128,-1,20
 260 49 260 49 260 67 c 1,21,-1
 135 0 l 1,22,23
 132 2 132 2 126 5.5 c 128,-1,24
 120 9 120 9 105.5 20.5 c 128,-1,25
 91 32 91 32 80 45 c 0,26,27
 50 78 50 78 50 120 c 2,28,-1
 50 423 l 2,29,30
 50 478 50 478 1 488 c 1,31,-1
 1 510 l 1,32,-1
 110 571 l 1,33,34
 132 562 132 562 151 541.5 c 128,-1,35
 170 521 170 521 170 503 c 2,36,-1
 170 156 l 2,37,0
 170 130 170 130 185.5 113.5 c 128,-1,1
58 688 m 2,38,-1
 58 742 l 2,39,40
 58 745 58 745 95.5 759 c 128,-1,41
 133 773 133 773 139 773 c 128,-1,42
 145 773 145 773 156 758 c 128,-1,43
 167 743 167 743 167 726 c 2,44,-1
 167 661 l 2,45,46
 167 658 167 658 131.5 644 c 128,-1,47
 96 630 96 630 87.5 630 c 128,-1,48
 79 630 79 630 68.5 646 c 128,-1,49
 58 662 58 662 58 688 c 2,38,-1
265 688 m 2,50,-1
 265 742 l 2,51,52
 265 745 265 745 302.5 759 c 128,-1,53
 340 773 340 773 346 773 c 128,-1,54
 352 773 352 773 363 758 c 128,-1,55
 374 743 374 743 374 726 c 2,56,-1
 374 661 l 2,57,58
 374 658 374 658 338.5 644 c 128,-1,59
 303 630 303 630 294.5 630 c 128,-1,60
 286 630 286 630 275.5 646 c 128,-1,61
 265 662 265 662 265 688 c 2,50,-1
EndSplineSet
EndChar

StartChar: yacute
Encoding: 253 253 191
Width: 431
GlyphClass: 2
Flags: W
LayerCount: 2
Fore
SplineSet
381 503 m 2,0,-1
 381 106 l 2,1,2
 381 68 381 68 347 -2.5 c 128,-1,3
 313 -73 313 -73 275 -126.5 c 128,-1,4
 237 -180 237 -180 223 -180 c 0,5,6
 198 -180 198 -180 156 -165 c 128,-1,7
 114 -150 114 -150 84 -135 c 2,8,-1
 55 -120 l 1,9,-1
 55 -90 l 1,10,-1
 89 -90 l 2,11,12
 128 -90 128 -90 178 -45.5 c 128,-1,13
 228 -1 228 -1 261 73 c 1,14,15
 148 20 148 20 131 20 c 0,16,17
 100 20 100 20 75.5 59.5 c 128,-1,18
 51 99 51 99 51 148 c 2,19,-1
 51 423 l 2,20,21
 51 478 51 478 2 488 c 1,22,-1
 2 510 l 1,23,-1
 111 571 l 1,24,25
 133 562 133 562 152 541.5 c 128,-1,26
 171 521 171 521 171 503 c 2,27,-1
 171 232 l 2,28,29
 171 162 171 162 193 138.5 c 128,-1,30
 215 115 215 115 261 115 c 1,31,-1
 261 423 l 2,32,33
 261 484 261 484 220 492 c 1,34,-1
 220 514 l 1,35,-1
 321 571 l 1,36,37
 343 562 343 562 362 541.5 c 128,-1,38
 381 521 381 521 381 503 c 2,0,-1
232 796 m 0,39,40
 238 806 238 806 281 806 c 128,-1,41
 324 806 324 806 324 787 c 0,42,43
 324 759 324 759 234 643 c 0,44,45
 224 631 224 631 199 631 c 0,46,47
 192 631 192 631 187.5 647 c 128,-1,48
 183 663 183 663 183 678 c 128,-1,49
 183 693 183 693 199 731 c 128,-1,50
 215 769 215 769 232 796 c 0,39,40
EndSplineSet
EndChar

StartChar: thorn
Encoding: 254 254 192
Width: 431
GlyphClass: 2
Flags: W
LayerCount: 2
Fore
SplineSet
381 442 m 2,0,-1
 381 91 l 2,1,2
 381 84 381 84 292.5 49.5 c 128,-1,3
 204 15 204 15 170 6 c 1,4,-1
 170 -31 l 2,5,6
 170 -92 170 -92 211 -100 c 1,7,-1
 211 -122 l 1,8,-1
 110 -179 l 1,9,10
 88 -170 88 -170 69 -149.5 c 128,-1,11
 50 -129 50 -129 50 -111 c 2,12,-1
 50 563 l 2,13,14
 50 590 50 590 41 601.5 c 128,-1,15
 32 613 32 613 10 613 c 1,16,-1
 10 641 l 1,17,18
 140 709 140 709 242 769 c 1,19,-1
 258 737 l 1,20,21
 248 732 248 732 230 717.5 c 128,-1,22
 212 703 212 703 200 688 c 0,23,24
 170 650 170 650 170 602 c 2,25,-1
 170 517 l 1,26,27
 273 570 273 570 290 570 c 0,28,29
 316 570 316 570 348.5 529 c 128,-1,30
 381 488 381 488 381 442 c 2,0,-1
260 116 m 2,31,-1
 260 358 l 2,32,33
 260 456 260 456 224 469 c 0,34,35
 207 475 207 475 170 475 c 1,36,-1
 170 63 l 1,37,38
 196 63 196 63 228 80 c 128,-1,39
 260 97 260 97 260 116 c 2,31,-1
EndSplineSet
EndChar

StartChar: ydieresis
Encoding: 255 255 193
Width: 431
GlyphClass: 2
Flags: W
LayerCount: 2
Fore
SplineSet
381 503 m 2,0,-1
 381 106 l 2,1,2
 381 68 381 68 347 -2.5 c 128,-1,3
 313 -73 313 -73 275 -126.5 c 128,-1,4
 237 -180 237 -180 223 -180 c 0,5,6
 198 -180 198 -180 156 -165 c 128,-1,7
 114 -150 114 -150 84 -135 c 2,8,-1
 55 -120 l 1,9,-1
 55 -90 l 1,10,-1
 89 -90 l 2,11,12
 128 -90 128 -90 178 -45.5 c 128,-1,13
 228 -1 228 -1 261 73 c 1,14,15
 148 20 148 20 131 20 c 0,16,17
 100 20 100 20 75.5 59.5 c 128,-1,18
 51 99 51 99 51 148 c 2,19,-1
 51 423 l 2,20,21
 51 478 51 478 2 488 c 1,22,-1
 2 510 l 1,23,-1
 111 571 l 1,24,25
 133 562 133 562 152 541.5 c 128,-1,26
 171 521 171 521 171 503 c 2,27,-1
 171 232 l 2,28,29
 171 162 171 162 193 138.5 c 128,-1,30
 215 115 215 115 261 115 c 1,31,-1
 261 423 l 2,32,33
 261 484 261 484 220 492 c 1,34,-1
 220 514 l 1,35,-1
 321 571 l 1,36,37
 343 562 343 562 362 541.5 c 128,-1,38
 381 521 381 521 381 503 c 2,0,-1
58 688 m 2,39,-1
 58 742 l 2,40,41
 58 745 58 745 95.5 759 c 128,-1,42
 133 773 133 773 139 773 c 128,-1,43
 145 773 145 773 156 758 c 128,-1,44
 167 743 167 743 167 726 c 2,45,-1
 167 661 l 2,46,47
 167 658 167 658 131.5 644 c 128,-1,48
 96 630 96 630 87.5 630 c 128,-1,49
 79 630 79 630 68.5 646 c 128,-1,50
 58 662 58 662 58 688 c 2,39,-1
265 688 m 2,51,-1
 265 742 l 2,52,53
 265 745 265 745 302.5 759 c 128,-1,54
 340 773 340 773 346 773 c 128,-1,55
 352 773 352 773 363 758 c 128,-1,56
 374 743 374 743 374 726 c 2,57,-1
 374 661 l 2,58,59
 374 658 374 658 338.5 644 c 128,-1,60
 303 630 303 630 294.5 630 c 128,-1,61
 286 630 286 630 275.5 646 c 128,-1,62
 265 662 265 662 265 688 c 2,51,-1
EndSplineSet
EndChar

StartChar: Amacron
Encoding: 256 256 194
Width: 431
GlyphClass: 2
Flags: W
LayerCount: 2
Fore
SplineSet
50 102 m 2,0,-1
 50 676 l 2,1,2
 50 683 50 683 164 725.5 c 128,-1,3
 278 768 278 768 295 768 c 128,-1,4
 312 768 312 768 346.5 727 c 128,-1,5
 381 686 381 686 381 653 c 2,6,-1
 381 391 l 1,7,-1
 430 391 l 1,8,-1
 430 367 l 1,9,-1
 381 342 l 1,10,-1
 381 148 l 2,11,12
 381 93 381 93 429 83 c 1,13,-1
 429 61 l 1,14,-1
 320 0 l 1,15,16
 298 9 298 9 279 29.5 c 128,-1,17
 260 50 260 50 260 68 c 2,18,-1
 260 342 l 1,19,-1
 170 342 l 1,20,-1
 170 154 l 2,21,22
 170 117 170 117 178 101 c 128,-1,23
 186 85 186 85 211 85 c 1,24,-1
 211 54 l 1,25,-1
 6 -32 l 1,26,-1
 -10 0 l 1,27,28
 12 0 12 0 32 26 c 0,29,30
 50 51 50 51 50 102 c 2,0,-1
209 675 m 0,31,32
 189 675 189 675 170 660 c 1,33,-1
 170 365 l 1,34,-1
 229 391 l 1,35,-1
 260 391 l 1,36,-1
 260 601 l 2,37,38
 260 675 260 675 209 675 c 0,31,32
376 880 m 1,39,-1
 376 856 l 1,40,-1
 326 811 l 1,41,-1
 55 811 l 1,42,-1
 55 833 l 1,43,-1
 105 880 l 1,44,-1
 376 880 l 1,39,-1
EndSplineSet
EndChar

StartChar: amacron
Encoding: 257 257 195
Width: 410
GlyphClass: 2
Flags: W
LayerCount: 2
Fore
SplineSet
370 438 m 2,0,-1
 370 155 l 2,1,2
 370 118 370 118 382 103.5 c 128,-1,3
 394 89 394 89 419 83 c 1,4,-1
 419 61 l 1,5,-1
 310 0 l 1,6,7
 288 9 288 9 269 29.5 c 128,-1,8
 250 50 250 50 250 67 c 1,9,-1
 125 0 l 1,10,11
 122 2 122 2 116 5.5 c 128,-1,12
 110 9 110 9 95.5 20.5 c 128,-1,13
 81 32 81 32 70 45 c 0,14,15
 40 78 40 78 40 120 c 2,16,-1
 40 284 l 2,17,18
 40 300 40 300 92 325 c 128,-1,19
 144 350 144 350 196 366 c 2,20,-1
 249 383 l 1,21,22
 249 440 249 440 219 462.5 c 128,-1,23
 189 485 189 485 103 485 c 1,24,-1
 103 515 l 1,25,26
 258 570 258 570 277 570 c 0,27,28
 310 570 310 570 340 527 c 128,-1,29
 370 484 370 484 370 438 c 2,0,-1
175.5 113.5 m 128,-1,31
 191 97 191 97 210 97 c 128,-1,32
 229 97 229 97 250 112 c 1,33,-1
 250 338 l 1,34,35
 225 329 225 329 212.5 323 c 128,-1,36
 200 317 200 317 186 304 c 0,37,38
 160 280 160 280 160 221 c 2,39,-1
 160 156 l 2,40,30
 160 130 160 130 175.5 113.5 c 128,-1,31
410 699 m 1,41,-1
 410 675 l 1,42,-1
 360 630 l 1,43,-1
 89 630 l 1,44,-1
 89 652 l 1,45,-1
 139 699 l 1,46,-1
 410 699 l 1,41,-1
EndSplineSet
EndChar

StartChar: Abreve
Encoding: 258 258 196
Width: 431
GlyphClass: 2
Flags: W
LayerCount: 2
Fore
SplineSet
50 102 m 2,0,-1
 50 676 l 2,1,2
 50 683 50 683 164 725.5 c 128,-1,3
 278 768 278 768 295 768 c 128,-1,4
 312 768 312 768 346.5 727 c 128,-1,5
 381 686 381 686 381 653 c 2,6,-1
 381 391 l 1,7,-1
 430 391 l 1,8,-1
 430 367 l 1,9,-1
 381 342 l 1,10,-1
 381 148 l 2,11,12
 381 93 381 93 429 83 c 1,13,-1
 429 61 l 1,14,-1
 320 0 l 1,15,16
 298 9 298 9 279 29.5 c 128,-1,17
 260 50 260 50 260 68 c 2,18,-1
 260 342 l 1,19,-1
 170 342 l 1,20,-1
 170 154 l 2,21,22
 170 117 170 117 178 101 c 128,-1,23
 186 85 186 85 211 85 c 1,24,-1
 211 54 l 1,25,-1
 6 -32 l 1,26,-1
 -10 0 l 1,27,28
 12 0 12 0 32 26 c 0,29,30
 50 51 50 51 50 102 c 2,0,-1
209 675 m 0,31,32
 189 675 189 675 170 660 c 1,33,-1
 170 365 l 1,34,-1
 229 391 l 1,35,-1
 260 391 l 1,36,-1
 260 601 l 2,37,38
 260 675 260 675 209 675 c 0,31,32
357 925 m 2,39,-1
 357 889 l 2,40,41
 357 881 357 881 279.5 845 c 128,-1,42
 202 809 202 809 179 809 c 128,-1,43
 156 809 156 809 115 847.5 c 128,-1,44
 74 886 74 886 74 940 c 0,45,46
 74 943 74 943 104.5 956 c 128,-1,47
 135 969 135 969 140 969 c 128,-1,48
 145 969 145 969 154 955 c 128,-1,49
 163 941 163 941 167 925 c 2,50,-1
 185 855 l 1,51,52
 207 855 207 855 227 864.5 c 128,-1,53
 247 874 247 874 256 883 c 2,54,-1
 264 892 l 1,55,-1
 264 940 l 2,56,57
 264 943 264 943 294.5 956 c 128,-1,58
 325 969 325 969 330.5 969 c 128,-1,59
 336 969 336 969 346.5 955 c 128,-1,60
 357 941 357 941 357 925 c 2,39,-1
EndSplineSet
EndChar

StartChar: abreve
Encoding: 259 259 197
Width: 410
GlyphClass: 2
Flags: W
LayerCount: 2
Fore
SplineSet
370 438 m 2,0,-1
 370 155 l 2,1,2
 370 118 370 118 382 103.5 c 128,-1,3
 394 89 394 89 419 83 c 1,4,-1
 419 61 l 1,5,-1
 310 0 l 1,6,7
 288 9 288 9 269 29.5 c 128,-1,8
 250 50 250 50 250 67 c 1,9,-1
 125 0 l 1,10,11
 122 2 122 2 116 5.5 c 128,-1,12
 110 9 110 9 95.5 20.5 c 128,-1,13
 81 32 81 32 70 45 c 0,14,15
 40 78 40 78 40 120 c 2,16,-1
 40 284 l 2,17,18
 40 300 40 300 92 325 c 128,-1,19
 144 350 144 350 196 366 c 2,20,-1
 249 383 l 1,21,22
 249 440 249 440 219 462.5 c 128,-1,23
 189 485 189 485 103 485 c 1,24,-1
 103 515 l 1,25,26
 258 570 258 570 277 570 c 0,27,28
 310 570 310 570 340 527 c 128,-1,29
 370 484 370 484 370 438 c 2,0,-1
175.5 113.5 m 128,-1,31
 191 97 191 97 210 97 c 128,-1,32
 229 97 229 97 250 112 c 1,33,-1
 250 338 l 1,34,35
 225 329 225 329 212.5 323 c 128,-1,36
 200 317 200 317 186 304 c 0,37,38
 160 280 160 280 160 221 c 2,39,-1
 160 156 l 2,40,30
 160 130 160 130 175.5 113.5 c 128,-1,31
378 746 m 2,41,-1
 378 710 l 2,42,43
 378 702 378 702 300.5 666 c 128,-1,44
 223 630 223 630 200 630 c 128,-1,45
 177 630 177 630 136 668.5 c 128,-1,46
 95 707 95 707 95 761 c 0,47,48
 95 764 95 764 125.5 777 c 128,-1,49
 156 790 156 790 161 790 c 128,-1,50
 166 790 166 790 175 776 c 128,-1,51
 184 762 184 762 188 746 c 2,52,-1
 206 676 l 1,53,54
 228 676 228 676 248 685 c 128,-1,55
 268 694 268 694 276 704 c 1,56,-1
 285 713 l 1,57,-1
 285 761 l 2,58,59
 285 764 285 764 315.5 777 c 128,-1,60
 346 790 346 790 351.5 790 c 128,-1,61
 357 790 357 790 367.5 776 c 128,-1,62
 378 762 378 762 378 746 c 2,41,-1
EndSplineSet
EndChar

StartChar: Aogonek
Encoding: 260 260 198
Width: 431
GlyphClass: 2
Flags: W
LayerCount: 2
Fore
SplineSet
50 102 m 2,0,-1
 50 676 l 2,1,2
 50 683 50 683 164 725.5 c 128,-1,3
 278 768 278 768 295 768 c 128,-1,4
 312 768 312 768 346.5 727 c 128,-1,5
 381 686 381 686 381 653 c 2,6,-1
 381 391 l 1,7,-1
 430 391 l 1,8,-1
 430 367 l 1,9,-1
 381 342 l 1,10,-1
 381 148 l 2,11,12
 381 93 381 93 429 83 c 1,13,-1
 429 61 l 1,14,-1
 320 0 l 1,15,16
 298 9 298 9 279 29.5 c 128,-1,17
 260 50 260 50 260 68 c 2,18,-1
 260 342 l 1,19,-1
 170 342 l 1,20,-1
 170 154 l 2,21,22
 170 117 170 117 178 101 c 128,-1,23
 186 85 186 85 211 85 c 1,24,-1
 211 54 l 1,25,-1
 6 -32 l 1,26,-1
 -10 0 l 1,27,28
 12 0 12 0 32 26 c 0,29,30
 50 51 50 51 50 102 c 2,0,-1
209 675 m 0,31,32
 189 675 189 675 170 660 c 1,33,-1
 170 365 l 1,34,-1
 229 391 l 1,35,-1
 260 391 l 1,36,-1
 260 601 l 2,37,38
 260 675 260 675 209 675 c 0,31,32
358 83 m 1,39,40
 339 30 339 30 339 2 c 128,-1,41
 339 -26 339 -26 341.5 -37 c 128,-1,42
 344 -48 344 -48 354 -64 c 0,43,44
 372 -94 372 -94 458 -94 c 1,45,-1
 458 -112 l 1,46,47
 369 -150 369 -150 350 -150 c 128,-1,48
 331 -150 331 -150 294.5 -126.5 c 128,-1,49
 258 -103 258 -103 258 -59 c 0,50,51
 258 -16 258 -16 270 24 c 2,52,-1
 274 38 l 1,53,-1
 358 83 l 1,39,40
EndSplineSet
EndChar

StartChar: aogonek
Encoding: 261 261 199
Width: 410
GlyphClass: 2
Flags: W
LayerCount: 2
Fore
SplineSet
370 438 m 2,0,-1
 370 155 l 2,1,2
 370 118 370 118 382 103.5 c 128,-1,3
 394 89 394 89 419 83 c 1,4,-1
 419 61 l 1,5,-1
 310 0 l 1,6,7
 288 9 288 9 269 29.5 c 128,-1,8
 250 50 250 50 250 67 c 1,9,-1
 125 0 l 1,10,11
 122 2 122 2 116 5.5 c 128,-1,12
 110 9 110 9 95.5 20.5 c 128,-1,13
 81 32 81 32 70 45 c 0,14,15
 40 78 40 78 40 120 c 2,16,-1
 40 284 l 2,17,18
 40 300 40 300 92 325 c 128,-1,19
 144 350 144 350 196 366 c 2,20,-1
 249 383 l 1,21,22
 249 440 249 440 219 462.5 c 128,-1,23
 189 485 189 485 103 485 c 1,24,-1
 103 515 l 1,25,26
 258 570 258 570 277 570 c 0,27,28
 310 570 310 570 340 527 c 128,-1,29
 370 484 370 484 370 438 c 2,0,-1
175.5 113.5 m 128,-1,31
 191 97 191 97 210 97 c 128,-1,32
 229 97 229 97 250 112 c 1,33,-1
 250 338 l 1,34,35
 225 329 225 329 212.5 323 c 128,-1,36
 200 317 200 317 186 304 c 0,37,38
 160 280 160 280 160 221 c 2,39,-1
 160 156 l 2,40,30
 160 130 160 130 175.5 113.5 c 128,-1,31
336 83 m 1,41,42
 317 30 317 30 317 2 c 128,-1,43
 317 -26 317 -26 319.5 -37 c 128,-1,44
 322 -48 322 -48 332 -64 c 0,45,46
 350 -94 350 -94 436 -94 c 1,47,-1
 436 -112 l 1,48,49
 347 -150 347 -150 328 -150 c 128,-1,50
 309 -150 309 -150 272.5 -126.5 c 128,-1,51
 236 -103 236 -103 236 -59 c 0,52,53
 236 -16 236 -16 248 24 c 2,54,-1
 252 38 l 1,55,-1
 336 83 l 1,41,42
EndSplineSet
EndChar

StartChar: Cacute
Encoding: 262 262 200
Width: 404
GlyphClass: 2
Flags: W
LayerCount: 2
Fore
SplineSet
188 673 m 0,0,1
 178 673 178 673 170 663 c 1,2,-1
 170 250 l 2,3,4
 170 208 170 208 175 182.5 c 128,-1,5
 180 157 180 157 197 132 c 0,6,7
 230 84 230 84 348 84 c 1,8,-1
 348 55 l 1,9,10
 343 55 343 55 274 27.5 c 128,-1,11
 205 0 205 0 190 0 c 0,12,13
 140 0 140 0 95 57.5 c 128,-1,14
 50 115 50 115 50 179 c 2,15,-1
 50 678 l 2,16,17
 50 685 50 685 164.5 727.5 c 128,-1,18
 279 770 279 770 296 770 c 0,19,20
 302 770 302 770 310 741 c 128,-1,21
 318 712 318 712 328.5 671 c 128,-1,22
 339 630 339 630 350.5 610.5 c 128,-1,23
 362 591 362 591 394 591 c 1,24,-1
 394 571 l 1,25,26
 372 561 372 561 319.5 535.5 c 128,-1,27
 267 510 267 510 263 510 c 0,28,29
 248 510 248 510 225 591.5 c 128,-1,30
 202 673 202 673 188 673 c 0,0,1
169 975 m 0,31,32
 175 985 175 985 218 985 c 128,-1,33
 261 985 261 985 261 966 c 0,34,35
 261 938 261 938 171 822 c 0,36,37
 161 810 161 810 136 810 c 0,38,39
 129 810 129 810 124.5 826 c 128,-1,40
 120 842 120 842 120 857 c 128,-1,41
 120 872 120 872 136 910 c 128,-1,42
 152 948 152 948 169 975 c 0,31,32
EndSplineSet
EndChar

StartChar: cacute
Encoding: 263 263 201
Width: 404
GlyphClass: 2
Flags: W
LayerCount: 2
Fore
SplineSet
188 473 m 0,0,1
 178 473 178 473 170 463 c 1,2,-1
 170 187 l 2,3,4
 170 110 170 110 236 92 c 1,5,6
 270 84 270 84 317 84 c 1,7,-1
 317 55 l 1,8,9
 153 0 153 0 142 0 c 0,10,11
 112 0 112 0 81 42.5 c 128,-1,12
 50 85 50 85 50 142 c 2,13,-1
 50 478 l 2,14,15
 50 485 50 485 164.5 527.5 c 128,-1,16
 279 570 279 570 296 570 c 0,17,18
 302 570 302 570 310 541 c 128,-1,19
 318 512 318 512 328.5 471 c 128,-1,20
 339 430 339 430 350.5 410.5 c 128,-1,21
 362 391 362 391 394 391 c 1,22,-1
 394 371 l 1,23,24
 372 361 372 361 319.5 335.5 c 128,-1,25
 267 310 267 310 263 310 c 0,26,27
 248 310 248 310 225 391.5 c 128,-1,28
 202 473 202 473 188 473 c 0,0,1
184 796 m 0,29,30
 190 806 190 806 233 806 c 128,-1,31
 276 806 276 806 276 787 c 0,32,33
 276 759 276 759 186 643 c 0,34,35
 176 631 176 631 151 631 c 0,36,37
 144 631 144 631 139.5 647 c 128,-1,38
 135 663 135 663 135 678 c 128,-1,39
 135 693 135 693 151 731 c 128,-1,40
 167 769 167 769 184 796 c 0,29,30
EndSplineSet
EndChar

StartChar: Ccircumflex
Encoding: 264 264 202
Width: 404
GlyphClass: 2
Flags: W
LayerCount: 2
Fore
SplineSet
188 673 m 0,0,1
 178 673 178 673 170 663 c 1,2,-1
 170 250 l 2,3,4
 170 208 170 208 175 182.5 c 128,-1,5
 180 157 180 157 197 132 c 0,6,7
 230 84 230 84 348 84 c 1,8,-1
 348 55 l 1,9,10
 343 55 343 55 274 27.5 c 128,-1,11
 205 0 205 0 190 0 c 0,12,13
 140 0 140 0 95 57.5 c 128,-1,14
 50 115 50 115 50 179 c 2,15,-1
 50 678 l 2,16,17
 50 685 50 685 164.5 727.5 c 128,-1,18
 279 770 279 770 296 770 c 0,19,20
 302 770 302 770 310 741 c 128,-1,21
 318 712 318 712 328.5 671 c 128,-1,22
 339 630 339 630 350.5 610.5 c 128,-1,23
 362 591 362 591 394 591 c 1,24,-1
 394 571 l 1,25,26
 372 561 372 561 319.5 535.5 c 128,-1,27
 267 510 267 510 263 510 c 0,28,29
 248 510 248 510 225 591.5 c 128,-1,30
 202 673 202 673 188 673 c 0,0,1
319 903 m 128,-1,32
 360 862 360 862 360 852 c 128,-1,33
 360 842 360 842 357 832 c 0,34,35
 351 810 351 810 344 810 c 0,36,37
 332 810 332 810 285.5 840.5 c 128,-1,38
 239 871 239 871 192 909 c 1,39,40
 145 871 145 871 98.5 840.5 c 128,-1,41
 52 810 52 810 40 810 c 0,42,43
 33 810 33 810 28.5 826 c 128,-1,44
 24 842 24 842 24 849.5 c 128,-1,45
 24 857 24 857 32.5 867 c 128,-1,46
 41 877 41 877 55 891.5 c 128,-1,47
 69 906 69 906 83 919 c 0,48,49
 125 958 125 958 138.5 971.5 c 128,-1,50
 152 985 152 985 189.5 985 c 128,-1,51
 227 985 227 985 247 970 c 1,52,31
 278 944 278 944 319 903 c 128,-1,32
EndSplineSet
EndChar

StartChar: ccircumflex
Encoding: 265 265 203
Width: 404
GlyphClass: 2
Flags: W
LayerCount: 2
Fore
SplineSet
188 473 m 0,0,1
 178 473 178 473 170 463 c 1,2,-1
 170 187 l 2,3,4
 170 110 170 110 236 92 c 1,5,6
 270 84 270 84 317 84 c 1,7,-1
 317 55 l 1,8,9
 153 0 153 0 142 0 c 0,10,11
 112 0 112 0 81 42.5 c 128,-1,12
 50 85 50 85 50 142 c 2,13,-1
 50 478 l 2,14,15
 50 485 50 485 164.5 527.5 c 128,-1,16
 279 570 279 570 296 570 c 0,17,18
 302 570 302 570 310 541 c 128,-1,19
 318 512 318 512 328.5 471 c 128,-1,20
 339 430 339 430 350.5 410.5 c 128,-1,21
 362 391 362 391 394 391 c 1,22,-1
 394 371 l 1,23,24
 372 361 372 361 319.5 335.5 c 128,-1,25
 267 310 267 310 263 310 c 0,26,27
 248 310 248 310 225 391.5 c 128,-1,28
 202 473 202 473 188 473 c 0,0,1
334 724.5 m 128,-1,30
 375 684 375 684 375 673.5 c 128,-1,31
 375 663 375 663 372 652 c 0,32,33
 366 631 366 631 359 631 c 0,34,35
 347 631 347 631 300.5 661.5 c 128,-1,36
 254 692 254 692 207 730 c 1,37,38
 160 692 160 692 113.5 661.5 c 128,-1,39
 67 631 67 631 55 631 c 0,40,41
 48 631 48 631 43.5 647 c 128,-1,42
 39 663 39 663 39 670.5 c 128,-1,43
 39 678 39 678 47.5 688 c 128,-1,44
 56 698 56 698 70 712.5 c 128,-1,45
 84 727 84 727 98 740 c 0,46,47
 140 779 140 779 153.5 792.5 c 128,-1,48
 167 806 167 806 204.5 806 c 128,-1,49
 242 806 242 806 262 791 c 1,50,29
 293 765 293 765 334 724.5 c 128,-1,30
EndSplineSet
EndChar

